<svg id="Layer_1" data-name="Layer 1" xmlns="http://www.w3.org/2000/svg" viewBox="0 0 921.09 519.7"><defs><style>.cls-1{fill:#7fdccb;}.cls-2{fill:#00b997;}.cls-3,.cls-5{fill:#fff;}.cls-3{isolation:isolate;opacity:0.35;}.cls-4{fill:#ff634f;}.cls-6{fill:#ff9800;}</style></defs><path class="cls-1" d="M373.77,519.22v.47H0v-.47a23.62,23.62,0,0,1,2.38,0c5.66.53,11.34.48,17,.48H357.73c4.32,0,8.63-.08,12.93-.45A10.8,10.8,0,0,1,373.77,519.22Z"/><path class="cls-2" d="M26.93,378V94c.82-1.93.64-4,.67-6l.09-1.1a.68.68,0,0,0,0-.82l.69-5a.81.81,0,0,0,.14-.88,97.71,97.71,0,0,1,9-27.51A96.12,96.12,0,0,1,117.75.4H417a86.05,86.05,0,0,1,15.15,2.1q48.12,11.67,68,57.08a83,83,0,0,1,6.93,30.07c-.24,2.61.07,5.23.07,7.85V374.28c0,2.68-.3,5.35-.07,8a50.62,50.62,0,0,1-1,9.35c-3.89,22.53-14.34,41.46-31.51,56.54a94.2,94.2,0,0,1-54.08,23.35,9.08,9.08,0,0,0-2.55,0c-3.52.31-7.05.37-10.59.37H130.09c-4.65,0-9.3,0-13.93-.39q-1,0-2,0c-1.95-.25-3.91-.44-5.84-.75a96,96,0,0,1-80.23-81.45.65.65,0,0,0-.07-.81l-.5-4.63A17,17,0,0,0,26.93,378Z"/><path class="cls-1" d="M417,0V.41H117.75V0Z"/><path class="cls-1" d="M507.36,382.3h-.19l-.18.06c-.24-2.69.06-5.37.06-8.05V97.54c0-2.61-.31-5.23-.06-7.85a.32.32,0,0,0,.37,0Z"/><path class="cls-1" d="M26.93,88.1,27.6,88a15.52,15.52,0,0,1-.67,6Z"/><path class="cls-1" d="M27.57,384l-.64-.1V378A17.38,17.38,0,0,1,27.57,384Z"/><path class="cls-1" d="M28.43,81.12a1,1,0,0,1,.14-.88A.81.81,0,0,1,28.43,81.12Z"/><path class="cls-1" d="M27.69,86.92a.64.64,0,0,1,0-.82A.68.68,0,0,1,27.69,86.92Z"/><path class="cls-1" d="M28.13,389.38a.66.66,0,0,1-.07-.82A.66.66,0,0,1,28.13,389.38Z"/><path class="cls-3" d="M510,366.66c-11.34,84.5-52.44,116.07-123.31,108H127.51c-51.19-8-77.6-26.86-95.21-68.37,30.07-79.1,143.67-120.62,212.63-139,26.18-7,56.81-32.12,80.9-56.86a151.3,151.3,0,0,0,34.41-56.28c19.32-56,67.55-174.91,115.16-128.64,31.8,30.93,33.75,61.69,33.75,89Z"/><path class="cls-4" d="M323.79,150.77c20.28.08,33.59,15,29.08,32.64a22.79,22.79,0,0,1-5.44,9.89c-11.25,12.22-35.2,12.77-47,1.06s-11.38-32,3.68-39.9C309.36,151.71,317.87,150.77,323.79,150.77Z"/><rect class="cls-5" x="300.69" y="213.45" width="39.96" height="140.56"/><path class="cls-5" d="M447.15,254.42h37.2v43a74.36,74.36,0,0,1-3.53,22.94,53.88,53.88,0,0,1-11.07,19.37,52.87,52.87,0,0,1-19.06,13.37Q439.16,358,423.17,358q-16.59,0-28.28-4.92a53.39,53.39,0,0,1-19.21-13.22,50.14,50.14,0,0,1-10.91-19.37,79,79,0,0,1-3.38-23.36V161.9h39.33v40.88H484.3v28.29H400.72v62.1q0,14.44,5.37,22.28t17.68,7.84q12,0,17.68-7.68t5.69-21.82Z"/><path class="cls-5" d="M663.19,299.3a63.87,63.87,0,0,1-7.54,24,64.71,64.71,0,0,1-15.21,18.41,70.14,70.14,0,0,1-21.09,12,74.58,74.58,0,0,1-25.67,4.3,75.37,75.37,0,0,1-28.13-5.07,57.69,57.69,0,0,1-21.94-15.35,71.63,71.63,0,0,1-14.29-25.51q-5.09-15.22-5.08-35.51t5.08-35q5.07-14.76,14.29-24.14a57.73,57.73,0,0,1,22.28-14,86.7,86.7,0,0,1,29.05-4.61,85.62,85.62,0,0,1,26.87,4A62.88,62.88,0,0,1,643,214.46a55.86,55.86,0,0,1,14.29,18.45,64.6,64.6,0,0,1,6.15,24H623.23q-1.56-11.67-9.39-18.29T594.64,232a32.74,32.74,0,0,0-12,2.15,23.46,23.46,0,0,0-9.68,7.22,37.82,37.82,0,0,0-6.62,13.53,75.24,75.24,0,0,0-2.46,20.75q0,24.9,8.92,36.87t20.6,12q11.67,0,20-6.46t9.53-18.74Z"/><path class="cls-5" d="M769.55,354a61,61,0,0,1-2.46-13.53,49.42,49.42,0,0,1-18.76,12.76q-11.67,4.75-27,4.76-26.13,0-38.27-11.52t-12.14-30q0-16.31,5.22-26a38.88,38.88,0,0,1,14.45-15.22,69.47,69.47,0,0,1,22-8.16q12.75-2.6,27.82-4.76t20.29-5.68q5.24-3.54,5.23-11.53,0-7.38-6.92-11.53t-18.6-4.15q-13.82,0-19.83,6.15T713,252H675.79a68.57,68.57,0,0,1,3.84-21.52A41.2,41.2,0,0,1,691,213.53q7.82-7,20.44-10.91t30.74-3.83q17.82,0,30.31,4t20,11.53a44.07,44.07,0,0,1,10.91,18.74,87.72,87.72,0,0,1,3.38,25.36V354Zm-2.77-74.09a21.6,21.6,0,0,1-8.92,4.92,163.25,163.25,0,0,1-16.9,4q-17.21,3.39-23.67,8.61t-6.46,15.06q0,16.9,19.37,16.9a38.62,38.62,0,0,0,14.3-2.6,35,35,0,0,0,19.07-17.52,28.78,28.78,0,0,0,2.92-12.76Z"/><path class="cls-5" d="M824.26,354V147.49h40V354.06Z"/><path class="cls-5" d="M881.13,354V147.49h40V354.06Z"/><path class="cls-6" d="M161.35,227.55l-.37.52Z"/><path class="cls-5" d="M172.11,389.57a14.31,14.31,0,0,1-2.17-.16c-3.73-.57-5.41-.86-7.53-1.22-1.44-.24-3-.52-5.62-.93-7.66-1.24-11.47-6.4-10.44-14.17.42-3.28.9-6.79,1.45-10.33a2.05,2.05,0,0,0,0-.55,2,2,0,0,0-.55-.13h-.23a9.58,9.58,0,0,0-3.11-.18,11.68,11.68,0,0,0-.82,3.28c-.33,1.95-.71,3.86-1.07,5.74l-.43,2.07c-1.38,7.19-6.36,11.05-13.32,10.36a92.44,92.44,0,0,1-12.82-1.92l-1.75-.35a13.11,13.11,0,0,1-10.14-14.44,98.32,98.32,0,0,1,1.76-11.47c.21-.93.11-1.16.1-1.17a2.83,2.83,0,0,0-1.13-.31c-7.43-1.18-10.72-1.79-14.2-2.46-3.09-.58-6.29-1.18-12.63-2.22l-.29-.05c-5-.82-10.27-1.71-14.25-7.43a21.15,21.15,0,0,1-3.39-15.07q2.16-15.34,4.33-30.67,3.28-22.86,6.56-45.71c6.32-44.11,12.85-89.72,19-134.6.66-4.78,3.81-9.56,8.43-12.78,4.27-3,9.14-4.19,13.33-3.28,1.64.34,2.46.53,2.84.63a21.94,21.94,0,0,1,3.43.37l1.22.17v.32l4.91.7c5.55.81,11.28,1.58,16.91,2.45a2.08,2.08,0,0,0,.61,0,4.89,4.89,0,0,0,.16-.76c.59-4,1.2-7.62,1.86-11.1,1.74-9.15,7.8-13.51,17.06-12.29,4.41.57,4.56.6,7,1l2.94.45a13.54,13.54,0,0,1,11.29,14.56c-.43,4.29-.9,8.12-1.45,11.74,0,.19-.08.59-.09.82a3.4,3.4,0,0,0,.63.08H181c1.54.08,3,.15,3.28-.09s.45-1.64.65-3.33c.1-.82.19-1.64.28-2.46.27-2.45.55-4.91,1-7.42a9.87,9.87,0,0,1,4.09-6c3.75-2.78,7.46-3.87,11.37-3.32,2,.28,3.35.46,4.46.59,2,.27,3.38.44,7.13,1.07A15.38,15.38,0,0,1,225.89,103c-.11,3.1-.45,6.23-.78,9.26-.12,1.11-.24,2.22-.35,3.34v.24a4.46,4.46,0,0,0,0,.82l.37.09c5.27,1.07,10,3.53,14.41,6,16.38,9,28.57,21.37,36.27,36.66,7,13.93,9.53,28.59,7.6,44.7-1.45,12.1-5.49,22.17-12.34,30.78-.72.95-1.85,6.74-1.19,7.83a3.88,3.88,0,0,1,1.46,2.09l1.64,4.77a110.78,110.78,0,0,1,3.67,23.31,86.77,86.77,0,0,1-1.42,22.86c-5.14,28.87-21.6,49.83-48.94,62.27a80.44,80.44,0,0,1-33.53,7.54h-.33a14.59,14.59,0,0,1-2.39-.29,6.06,6.06,0,0,0-2.32-.17,7.26,7.26,0,0,0-.22,2.45,15.84,15.84,0,0,1-.09,2.18c-.38,3.06-.74,5.57-1.12,7.88A14.38,14.38,0,0,1,172.11,389.57Zm-27.46-30.19a21,21,0,0,1,2.74.24h.23a3.12,3.12,0,0,1,2.23,1.06,3,3,0,0,1,.38,2.46c-.55,3.5-1,7-1.45,10.26-.82,6.45,2.06,10.4,8.41,11.47,2.58.41,4.19.69,5.63.93,2.11.36,3.78.64,7.49,1.21a11.92,11.92,0,0,0,13.52-9.83c.37-2.29.72-4.76,1.11-7.8a14.39,14.39,0,0,0,.06-1.86c0-1.68,0-3.4,1.13-4.35s2.73-.63,4.3-.34a13.1,13.1,0,0,0,2,.25,78.18,78.18,0,0,0,32.82-7.33c26.56-12.12,42.55-32.47,47.53-60.49A85.16,85.16,0,0,0,274.14,273V273a111.52,111.52,0,0,0-3.62-22.6l-1.64-4.7c-.2-.58-.38-.78-.5-.82a2.85,2.85,0,0,1-1.18-2c-.45-2.58.72-8,1.79-9.39,6.56-8.23,10.44-17.9,11.84-29.49,1.86-15.61-.55-29.78-7.38-43.3C266,145.78,254.11,133.8,238.22,125c-4.23-2.34-8.78-4.7-13.7-5.7-2.62-.53-2.4-2.56-2.3-3.54v-.22c.12-1.12.24-2.24.35-3.36.33-3,.67-6.07.77-9.08a12.87,12.87,0,0,0-10.58-13c-3.71-.62-5-.82-7-1-1.11-.14-2.46-.31-4.49-.6-3.23-.45-6.35.48-9.55,2.86a7.31,7.31,0,0,0-3.14,4.44c-.45,2.38-.72,4.85-1,7.24l-.27,2.46c-.64,5.38-1.18,5.86-6.49,5.59h-.38a3.3,3.3,0,0,1-2.46-.94,3.38,3.38,0,0,1-.38-2.77c.54-3.58,1-7.38,1.43-11.62a11,11,0,0,0-9.21-11.89l-2.94-.45c-2.46-.38-2.54-.4-6.93-1C152,81.4,147.08,85,145.6,92.75c-.65,3.45-1.26,7-1.85,11a2.75,2.75,0,0,1-2.56,2.92,3,3,0,0,1-1-.13c-5.6-.9-11.33-1.71-16.86-2.46l-6.12-.87L116,103l.05-.31-.82-.11-.06.21-1.23-.28-3.07-.67c-3.53-.77-7.69.28-11.4,2.88-4.1,2.85-6.84,7-7.38,11.11-6.2,44.9-12.73,90.5-19,134.61q-3.27,22.86-6.55,45.72-2.19,15.33-4.33,30.65a18.68,18.68,0,0,0,3,13.34c3.39,4.86,7.88,5.6,12.63,6.4l.29.05c6.37,1.05,9.58,1.64,12.68,2.23,3.47.66,6.74,1.27,14.14,2.46a3.13,3.13,0,0,1,3.32,2.93,3.28,3.28,0,0,1-.28,1.51,95.8,95.8,0,0,0-1.71,11.2,10.65,10.65,0,0,0,8.2,11.78l1.74.35A90.64,90.64,0,0,0,128.69,381c5.64.56,9.53-2.46,10.65-8.38l.43-2.18c.36-1.82.73-3.72,1-5.59C141.45,360.58,142,359.38,144.65,359.38Z"/><path class="cls-2" d="M201.84,201.5a32.24,32.24,0,0,1,3.75-7.38c6.32-6.08,13.93-9.14,22.6-8.41,11.06.92,19,6.67,23.16,17.21,1.4,3.51.57,6.38-2.35,7.68a2.9,2.9,0,0,1-4.1-1.13c-1.92-2.82-3.71-5.74-6.3-8.07-5.73-5.18-17.64-6.09-24-1.64-1.79,1.25-3.53,2.57-5.29,3.87C205.43,206.49,204.05,206.11,201.84,201.5Z"/><path class="cls-2" d="M110.83,188.58a33.76,33.76,0,0,1,3.76-7.41c6.31-6.08,13.93-9.14,22.6-8.42,11.06.93,19,6.68,23.15,17.21,1.4,3.52.58,6.38-2.35,7.68a2.9,2.9,0,0,1-4.1-1.13c-1.91-2.81-3.71-5.74-6.29-8.07-5.74-5.17-17.65-6.08-24-1.63-1.79,1.25-3.53,2.55-5.29,3.86C114.43,193.57,113,193.2,110.83,188.58Z"/><path class="cls-5" d="M168,264.33c-16.14-2.09-31.49-6.77-46.71-12.36,2.73,3.49,5.15,7.19,9,9.27,9.84,5.36,19.91,10.14,31.28,11.47,7.65.91,15.27,2.37,23,1.94,3.17-.18,6.31-.75,9.47-1.14,7.9-1,15-4.19,21.94-8.2C200,265.48,184,266.39,168,264.33Z"/><path class="cls-5" d="M249.32,242c-1.72-1.64-1.33-2.88,1-4.2a29.77,29.77,0,0,0,5.24-3.91c16.07-14.75,19.1-33.24,14.82-53.75-.14-.44-.3-.87-.46-1.31l.05.06c.11-2.07-1.16-3.76-1.58-5.65-1.74-7.87-6.13-14.36-10.93-20.49-10.43-13.35-24.54-21.42-40.15-27.2-3.48-1.29-8.45.28-6-13.62l2.3-5.79A4.65,4.65,0,0,0,210.29,99c-4.1-.74-2.5-.48-6.63-1a5.36,5.36,0,0,0-6,4.51c-.82,5.45-1.57,10.91-2.68,16.32a2.53,2.53,0,0,1-2.87,2c-4.61-.69-9.26-1.13-13.85-1.91-3.65-.63-7.41-.65-11-1.91A119.14,119.14,0,0,1,170,97.57c.45-3.14-.63-4.85-3.49-5.27-4.5-.68-1.85-.25-6.37-.87-2.52-.35-4.69.71-5.1,3a118.86,118.86,0,0,0-1.91,17.33c-.05,2.56-.81,3-2.78,3.09-3.46.23-6.88-.36-10.35-.33s-17.91-2.46-28.93-3.94c-5.73-.74-9.32,2.18-10.07,7.93-.18,1.35-.37,2.71-.57,4.1q-11,77.22-22,154.45c-1.71,12-4.15,37.46-5.42,51a9.49,9.49,0,0,0,8.09,10.27q15.76,2.28,31.56,4.47a10.34,10.34,0,0,1,6.46,3.1c-.87,5.74-1.73,11.47-2.64,17.15-.44,2.75-.2,5.21,2.33,6.93,4.55.88,1.94.64,6.47,1.64,3.74.82,5,0,5.54-3.79.75-5.14,1.52-10.27,2.35-15.4.49-3-.42-3.52,7.08-2.46,5.63.82,8.35,1.09,14.39,2.05,7.62,1.22,7.3.52,7,3.28A130.4,130.4,0,0,0,159,370.13c-.15,1.69-.11,3.28,1.22,4.54.42.82.92,1.72,1.89,1.83,4.77.58,3.61,1.42,8.44,1.52,2.32.06,3.88-1,4.23-3.63.72-5.6,1.77-11.15,2.57-16.74.76-5.34,1.27-5.54,7.61-4.38a42,42,0,0,0,10.5.51c19.6-1.39,36.39-9,49.82-23.15,0,0,8.69-6.55,14.63-27.17,4.81-16.72,3.43-32.42,1.64-42.34C260.11,253.32,254.94,247.33,249.32,242ZM113.69,181.17c6.31-6.08,13.93-9.14,22.6-8.42,11.06.93,19,6.68,23.16,17.21,1.41,3.52.57,6.38-2.35,7.68a2.89,2.89,0,0,1-4.09-1.13c-1.93-2.81-3.71-5.74-6.3-8.07-5.74-5.17-17.64-6.08-24-1.63-1.77,1.25-3.53,2.55-5.27,3.86-3.94,2.92-5.33,2.54-7.52-2.07A33.72,33.72,0,0,1,113.69,181.17Zm110.55,88.66c-2,9.89-5.25,19.27-11.29,27.52-8.41,11.47-20,17.8-33.69,20.72-.31.06-.6.15-.9.23a86.56,86.56,0,0,1-11,1.18l-14.42-2.15a70.47,70.47,0,0,1-11.59-4.39c-7.83-4.35-14.87-9.7-20.12-17C113.46,285.1,109.39,273,110,259.58a30,30,0,0,1,2.18-9.84,13.59,13.59,0,0,1,4.39-5.38c2.64-2.15,5.24-1.32,7.8.18,7.12,4.19,15,6.21,22.94,8.09a18.54,18.54,0,0,0,2.79.24,49.2,49.2,0,0,0,11.3,2.61c9,2,18.12,2.46,27.24,3.35,7.69.74,15.28,0,22.94-.28a17.07,17.07,0,0,0,4.81-1c3.28-1.11,5.36-.13,6.89,2.91A14.06,14.06,0,0,1,224.24,269.83Zm19.83-60.42c-1.92-2.82-3.71-5.74-6.3-8.08-5.73-5.17-17.65-6.08-24-1.63-1.78,1.25-3.53,2.56-5.28,3.86-3.94,2.93-5.32,2.55-7.52-2.06a31.84,31.84,0,0,1,3.75-7.38c6.31-6.08,13.93-9.14,22.6-8.42,11,.93,19,6.68,23.15,17.21,1.4,3.51.58,6.38-2.35,7.68C246.4,211.29,245.18,211.07,244.07,209.41Z"/></svg>