<svg xmlns="http://www.w3.org/2000/svg" id="Layer_1" data-name="Layer 1" viewBox="0 0 1091.25 580.79"><defs fill="#000000"><style>.cls-1{fill:#3d83f6;}.cls-2{fill:#7fdccb;}.cls-3,.cls-5{fill:#fff;}.cls-3{opacity:0.35;}.cls-4{fill:#ffffff;}.cls-6{fill:#003c52;}.cls-7{fill:#ff9800;}</style></defs><path class="cls-1" d="M0,461.28V114.72c1-2.36.79-4.84.82-7.3l.11-1.34a.81.81,0,0,0,.06-1L1.84,99A1,1,0,0,0,2,97.92,119.55,119.55,0,0,1,13,64.35,117.3,117.3,0,0,1,110.84.49H467.33L476,.5a104.57,104.57,0,0,1,18.49,2.56q58.73,14.25,83,69.66a101.59,101.59,0,0,1,8.46,36.7c-.3,3.19.08,6.39.08,9.58q0,34.78,0,69.57,0,134.1,0,268.2c0,3.27-.37,6.54-.08,9.82A61.86,61.86,0,0,1,584.76,478c-4.75,27.49-17.5,50.59-38.45,69-18.88,16.6-41,26-66,28.5a10.8,10.8,0,0,0-3.11,0c-4.3.37-8.61.45-12.93.45H125.9c-5.67,0-11.35,0-17-.48a23.62,23.62,0,0,0-2.38,0c-2.38-.3-4.77-.53-7.13-.91a114.83,114.83,0,0,1-66.18-34.4c-17.59-18.2-28.07-40-31.73-65a.81.81,0,0,0-.09-1l-.6-5.64A21.05,21.05,0,0,0,0,461.28Z" fill="#000000"/><path class="cls-2" d="M480.29,575.53V576H106.52v-.47a23.62,23.62,0,0,1,2.38,0c5.66.53,11.34.48,17,.48H464.25c4.32,0,8.63-.08,12.93-.45A10.8,10.8,0,0,1,480.29,575.53Z" fill="#000000"/><path class="cls-2" d="M476,0l0,.5-8.62,0H110.84V0Z" fill="#000000"/><path class="cls-2" d="M586.32,466.56l-.23,0-.22.07c-.29-3.28.08-6.55.08-9.82q0-134.1,0-268.2,0-34.78,0-69.57c0-3.19-.38-6.39-.08-9.58a.39.39,0,0,0,.45,0Z" fill="#000000"/><path class="cls-2" d="M0,107.52l.82-.1c0,2.46.14,4.94-.82,7.3Z" fill="#000000"/><path class="cls-2" d="M.78,468.6,0,468.48v-7.2A21.05,21.05,0,0,1,.78,468.6Z" fill="#000000"/><path class="cls-2" d="M1.84,99A1.24,1.24,0,0,1,2,97.92,1,1,0,0,1,1.84,99Z" fill="#000000"/><path class="cls-2" d="M.93,106.08a.78.78,0,0,1,.06-1A.81.81,0,0,1,.93,106.08Z" fill="#000000"/><path class="cls-2" d="M1.47,475.2a.81.81,0,0,1-.09-1A.81.81,0,0,1,1.47,475.2Z" fill="#000000"/><path class="cls-3" d="M589.57,447.48c-13.84,103.12-64,141.65-150.49,131.84H122.75c-62.47-9.77-94.7-32.79-116.19-83.44,36.7-96.54,175.33-147.21,259.49-169.63,31.95-8.51,69.34-39.2,98.73-69.39a184.74,184.74,0,0,0,42-68.68c23.58-68.3,82.44-213.47,140.54-157,38.81,37.75,41.19,75.29,41.19,108.63Z" fill="#000000"/><path class="cls-4" d="M362.29,184c24.76.1,41,18.31,35.49,39.84a27.63,27.63,0,0,1-6.64,12.06c-13.73,14.92-42.95,15.59-57.39,1.3s-13.89-39,4.49-48.69C344.68,185.15,355.07,184,362.29,184Z" fill="#000000"/><rect class="cls-5" x="334.1" y="260.5" width="48.77" height="171.54" fill="#000000"/><path class="cls-5" d="M512.85,310.5h45.39V363a90.34,90.34,0,0,1-4.31,28,65.53,65.53,0,0,1-13.51,23.63,64.46,64.46,0,0,1-23.26,16.32q-14.07,6-33.58,6-20.25,0-34.51-6a65.3,65.3,0,0,1-23.45-16.13,61.14,61.14,0,0,1-13.31-23.64,96.69,96.69,0,0,1-4.13-28.51V197.58h48v49.89h102V282h-102v75.79q0,17.63,6.56,27.19t21.57,9.57q14.64,0,21.58-9.38t6.94-26.63Z" fill="#000000"/><path class="cls-6" d="M776.5,365.27a78,78,0,0,1-9.2,29.26A78.92,78.92,0,0,1,748.74,417,85.53,85.53,0,0,1,723,431.67a91,91,0,0,1-31.33,5.25,92.06,92.06,0,0,1-34.33-6.19A70.47,70.47,0,0,1,630.56,412q-11.25-12.57-17.44-31.14t-6.19-43.33q0-24.76,6.19-42.77t17.44-29.45a70.43,70.43,0,0,1,27.2-17.07,106,106,0,0,1,35.45-5.62A104.62,104.62,0,0,1,726,247.47a76.77,76.77,0,0,1,25.88,14.26,68.29,68.29,0,0,1,17.45,22.51,78.92,78.92,0,0,1,7.5,29.26H727.73q-1.89-14.25-11.45-22.32t-23.44-8.07a40,40,0,0,0-14.63,2.63,28.59,28.59,0,0,0-11.82,8.81q-5.07,6.19-8.07,16.51t-3,25.32q0,30.39,10.88,45T691.34,396q14.25,0,24.38-7.88t11.63-22.88Z" fill="#000000"/><path class="cls-6" d="M906.3,432.05a75,75,0,0,1-3-16.51q-8.64,9.76-22.89,15.57t-33,5.81q-31.89,0-46.71-14.06t-14.81-36.58q0-19.89,6.37-31.7A47.49,47.49,0,0,1,809.89,336a84.77,84.77,0,0,1,26.82-9.95q15.56-3.18,33.95-5.81t24.76-6.94q6.38-4.31,6.38-14.07,0-9-8.44-14.07t-22.7-5.06q-16.87,0-24.2,7.5t-9.19,19.89H791.88a83.28,83.28,0,0,1,4.69-26.26,50.26,50.26,0,0,1,13.88-20.64Q820,252,835.4,247.28t37.51-4.68q21.75,0,37,4.87t24.39,14.07a53.8,53.8,0,0,1,13.32,22.88,107.32,107.32,0,0,1,4.12,30.95V432.05Zm-3.38-90.42q-3.75,3.76-10.88,6a197.33,197.33,0,0,1-20.63,4.87q-21,4.14-28.89,10.51t-7.88,18.38q0,20.64,23.64,20.63a47.22,47.22,0,0,0,17.45-3.18,43.71,43.71,0,0,0,13.87-8.63A43.13,43.13,0,0,0,899,377.46a35,35,0,0,0,3.57-15.57Z" fill="#000000"/><path class="cls-6" d="M973.07,432.05V180h48.77v252.1Z" fill="#000000"/><path class="cls-6" d="M1042.48,432.05V180h48.77v252.1Z" fill="#000000"/><path class="cls-7" d="M164.05,277.7l-.45.64Z" fill="#000000"/><path class="cls-5" d="M177.18,475.44a18.4,18.4,0,0,1-2.65-.2c-4.55-.7-6.6-1.05-9.19-1.49-1.75-.29-3.71-.63-6.85-1.13-9.35-1.52-14-7.82-12.75-17.3.52-4,1.1-8.29,1.78-12.6a3.08,3.08,0,0,0,.06-.68,2.93,2.93,0,0,0-.67-.15l-.29,0c-1.71-.23-3.48-.46-3.79-.22s-.65,2.06-1,4c-.41,2.38-.87,4.71-1.31,7L140,455.2c-1.69,8.77-7.77,13.49-16.26,12.64a112.22,112.22,0,0,1-15.65-2.34l-2.13-.43c-7.91-1.59-13.23-9.17-12.37-17.62a120.53,120.53,0,0,1,2.14-14c.26-1.13.14-1.41.13-1.42s-.24-.2-1.38-.38c-9.07-1.44-13.09-2.19-17.34-3-3.77-.71-7.67-1.44-15.41-2.72l-.35-.06c-6.16-1-12.53-2.08-17.39-9.06a25.83,25.83,0,0,1-4.14-18.4q2.63-18.72,5.29-37.43,4-27.89,8-55.78c7.71-53.83,15.68-109.49,23.25-164.27.8-5.83,4.65-11.66,10.29-15.6,5.21-3.65,11.15-5.11,16.27-4,2,.42,3,.65,3.46.77a27.72,27.72,0,0,1,4.19.45l1.48.21,0,.39,6,.85c6.77,1,13.76,1.94,20.63,3a2.87,2.87,0,0,0,.75,0,5.42,5.42,0,0,0,.19-.93c.73-4.87,1.47-9.3,2.28-13.55,2.12-11.16,9.52-16.49,20.82-15,5.38.7,5.56.73,8.51,1.19l3.59.55a16.52,16.52,0,0,1,13.78,17.77c-.53,5.23-1.1,9.91-1.77,14.32,0,.24-.1.72-.11,1a3.66,3.66,0,0,0,.77.1l.46,0c1.88.1,3.65.19,4-.11s.56-2,.8-4.06c.12-1,.23-2,.34-3,.33-3,.67-6,1.23-9.06a12,12,0,0,1,5-7.27c4.57-3.4,9.1-4.73,13.87-4.06,2.48.35,4.09.56,5.44.73,2.49.32,4.13.53,8.7,1.3a18.75,18.75,0,0,1,15.45,18.79c-.13,3.79-.54,7.61-.94,11.3-.15,1.36-.3,2.72-.43,4.08l0,.29a4.74,4.74,0,0,0-.05,1s.16.06.45.11c6.43,1.31,12.21,4.31,17.58,7.28,20,11,34.87,26.08,44.27,44.74,8.59,17,11.63,34.89,9.28,54.55-1.77,14.77-6.7,27.06-15.07,37.56-.87,1.17-2.25,8.23-1.45,9.56a4.8,4.8,0,0,1,1.79,2.55l2,5.82A136.5,136.5,0,0,1,304.72,333a106.28,106.28,0,0,1-1.74,27.9c-6.27,35.23-26.36,60.81-59.72,76a98.2,98.2,0,0,1-40.92,9.2h-.41a18.48,18.48,0,0,1-2.92-.36,7.5,7.5,0,0,0-2.82-.21c-.29.33-.28,2.05-.28,3a19.47,19.47,0,0,1-.1,2.66c-.47,3.73-.91,6.79-1.37,9.61A17.56,17.56,0,0,1,177.18,475.44Zm-33.51-36.85a26.42,26.42,0,0,1,3.34.29l.29,0a3.82,3.82,0,0,1,2.72,1.3,3.75,3.75,0,0,1,.46,3c-.67,4.27-1.25,8.54-1.77,12.52-1,7.87,2.52,12.69,10.26,14,3.15.5,5.12.84,6.87,1.13,2.58.44,4.62.78,9.15,1.48a14.53,14.53,0,0,0,16.49-12c.46-2.79.89-5.81,1.36-9.51a18.22,18.22,0,0,0,.07-2.27c0-2.05,0-4.16,1.38-5.31s3.34-.77,5.25-.42a16.25,16.25,0,0,0,2.41.31A95.46,95.46,0,0,0,242,434.16c32.41-14.79,51.93-39.63,58-73.82a103.72,103.72,0,0,0,1.7-27.16v-.06a136.35,136.35,0,0,0-4.42-27.58l-2-5.74c-.24-.7-.46-.94-.61-1a3.45,3.45,0,0,1-1.44-2.48c-.55-3.15.88-9.82,2.19-11.46,8-10.05,12.74-21.85,14.44-36,2.27-19.05-.66-36.34-9-52.84-9.13-18.11-23.61-32.73-43-43.47-5.16-2.85-10.71-5.74-16.72-6.95-3.19-.65-2.92-3.13-2.8-4.33l0-.26c.14-1.37.29-2.74.43-4.11.4-3.64.81-7.4.93-11.08A15.69,15.69,0,0,0,226.79,110c-4.52-.76-6.14-1-8.59-1.28-1.36-.18-3-.39-5.48-.74-3.94-.55-7.75.59-11.66,3.49a9,9,0,0,0-3.83,5.42c-.54,2.9-.88,5.92-1.2,8.84-.11,1-.22,2-.34,3-.78,6.57-1.44,7.15-7.92,6.82l-.46,0a4,4,0,0,1-3-1.15,4.08,4.08,0,0,1-.46-3.38c.65-4.36,1.22-9,1.74-14.18a13.48,13.48,0,0,0-11.24-14.51l-3.59-.55c-3-.46-3.1-.48-8.45-1.18-9.63-1.26-15.68,3.09-17.48,12.59-.8,4.21-1.54,8.6-2.26,13.44a3.35,3.35,0,0,1-4.38,3.4c-6.84-1.09-13.83-2.08-20.58-3l-7.46-1.06-1.49-.22.06-.38-1-.13-.08.26-1.5-.35c-.3-.07-1.23-.28-3.74-.82-4.31-.94-9.39.35-13.92,3.52-5,3.48-8.35,8.55-9,13.56-7.57,54.79-15.54,110.45-23.25,164.28q-4,27.9-8,55.79-2.67,18.71-5.28,37.41a22.83,22.83,0,0,0,3.62,16.28c4.14,5.93,9.62,6.84,15.42,7.81l.35.06c7.77,1.29,11.69,2,15.48,2.73,4.23.8,8.22,1.55,17.25,3a3.82,3.82,0,0,1,3.71,5.41,115,115,0,0,0-2.08,13.67c-.7,6.91,3.58,13.09,10,14.38l2.13.43a110.43,110.43,0,0,0,15.36,2.3c6.89.69,11.63-3,13-10.22l.52-2.66c.44-2.23.89-4.54,1.28-6.82C139.76,440.05,140.42,438.59,143.67,438.59Z" fill="#000000"/><path class="cls-1" d="M213.47,245.91c1-3.3,2.83-6.15,4.57-9,7.71-7.43,17-11.16,27.58-10.27,13.5,1.13,23.15,8.14,28.27,21,1.71,4.29.69,7.79-2.87,9.38-2.09.92-3.58.65-5-1.38-2.35-3.44-4.53-7-7.69-9.85-7-6.32-21.53-7.43-29.27-2-2.18,1.53-4.31,3.13-6.45,4.72C217.85,252,216.16,251.54,213.47,245.91Z" fill="#000000"/><path class="cls-1" d="M102.4,230.15c1-3.29,2.84-6.14,4.58-9.05,7.7-7.42,17-11.15,27.58-10.27,13.5,1.13,23.15,8.15,28.26,21,1.71,4.29.7,7.79-2.87,9.37-2.08.93-3.57.65-5-1.38-2.34-3.43-4.53-7-7.68-9.84-7-6.32-21.54-7.43-29.28-2-2.18,1.53-4.31,3.12-6.45,4.71C106.79,236.24,105.09,235.78,102.4,230.15Z" fill="#000000"/><path class="cls-5" d="M172.21,322.59c-19.69-2.55-38.43-8.26-57-15.08,3.33,4.26,6.29,8.77,11,11.31,12,6.54,24.3,12.38,38.17,14,9.34,1.11,18.63,2.89,28.1,2.36,3.86-.21,7.7-.91,11.55-1.39,9.64-1.22,18.3-5.11,26.78-10C211.22,324,191.72,325.11,172.21,322.59Z" fill="#000000"/><path class="cls-5" d="M271.41,295.29c-2.1-2-1.62-3.51,1.18-5.12a35.92,35.92,0,0,0,6.4-4.78c19.61-18,23.31-40.56,18.09-65.6-.18-.53-.37-1.06-.56-1.59l.05.07c.14-2.52-1.41-4.59-1.92-6.9-2.13-9.6-7.48-17.52-13.34-25-12.73-16.29-29.95-26.14-49-33.2-4.25-1.57-10.31.34-7.34-16.62l2.81-7.06a5.69,5.69,0,0,0-4-8.71c-5-.9-3.05-.58-8.09-1.25a6.55,6.55,0,0,0-7.33,5.5c-1,6.65-1.91,13.32-3.27,19.92a3.1,3.1,0,0,1-3.5,2.42c-5.62-.85-11.3-1.38-16.9-2.34-4.46-.77-9.05-.79-13.38-2.33a145.91,145.91,0,0,1,3.27-23.62c.55-3.84-.76-5.92-4.26-6.44-5.49-.83-2.26-.3-7.77-1.06-3.08-.43-5.73.87-6.22,3.73A144,144,0,0,0,154,136.46c-.07,3.12-1,3.6-3.4,3.76-4.22.29-8.4-.44-12.63-.4s-21.86-3-35.3-4.8c-7-.91-11.38,2.66-12.3,9.67-.22,1.65-.45,3.31-.69,5Q76.29,243.93,62.88,338.19c-2.09,14.69-5.07,45.72-6.61,62.28A11.58,11.58,0,0,0,66.14,413q19.24,2.78,38.51,5.46a12.53,12.53,0,0,1,7.89,3.78c-1.07,7-2.11,14-3.22,20.93-.54,3.35-.25,6.36,2.84,8.46,5.55,1.07,2.37.78,7.89,2,4.57,1,6.08,0,6.76-4.63.92-6.27,1.86-12.53,2.88-18.79.59-3.63-.52-4.3,8.63-3,6.88,1,10.19,1.32,17.57,2.5,9.3,1.49,8.91.63,8.55,4-1.26,6-2.72,11.9-3.28,18-.19,2.06-.14,4,1.49,5.54.51,1,1.12,2.1,2.3,2.24,5.83.7,4.41,1.73,10.31,1.85,2.83.07,4.73-1.17,5.16-4.43.88-6.83,2.16-13.61,3.13-20.43.93-6.52,1.55-6.76,9.29-5.35a51.45,51.45,0,0,0,12.82.63c23.92-1.7,44.41-11,60.79-28.25,0,0,10.61-8,17.86-33.16,5.87-20.41,4.18-39.57,2-51.68C284.58,309.16,278.27,301.85,271.41,295.29ZM105.89,221.1c7.7-7.42,17-11.15,27.58-10.27,13.5,1.13,23.15,8.15,28.26,21,1.72,4.29.7,7.79-2.86,9.37-2.09.93-3.58.65-5-1.38-2.35-3.43-4.53-7-7.69-9.84-7-6.32-21.53-7.43-29.28-2-2.17,1.53-4.31,3.12-6.44,4.71-4.8,3.57-6.5,3.11-9.18-2.52C102.28,226.86,104.15,224,105.89,221.1ZM240.8,329.3c-2.4,12.07-6.41,23.52-13.77,33.59-10.27,14-24.42,21.72-41.12,25.28-.38.08-.74.19-1.1.29a108,108,0,0,1-13.44,1.44l-17.6-2.63a86.2,86.2,0,0,1-14.14-5.36c-9.55-5.3-18.15-11.83-24.55-20.76-9.47-13.21-14.44-27.95-13.69-44.36a36.79,36.79,0,0,1,2.66-12,16.65,16.65,0,0,1,5.36-6.57c3.23-2.62,6.4-1.61,9.52.22,8.69,5.11,18.31,7.58,28,9.87a22.5,22.5,0,0,0,3.4.29,59.53,59.53,0,0,0,13.79,3.19c11,2.43,22.12,3,33.25,4.09,9.38.9,18.65,0,28-.34a21.13,21.13,0,0,0,5.87-1.19c4-1.35,6.53-.15,8.4,3.56A17.08,17.08,0,0,1,240.8,329.3ZM265,255.56c-2.34-3.44-4.53-7-7.68-9.85-7-6.32-21.54-7.43-29.28-2-2.18,1.53-4.31,3.13-6.45,4.72-4.8,3.57-6.49,3.11-9.18-2.52,1-3.3,2.84-6.15,4.58-9,7.7-7.43,17-11.16,27.58-10.28,13.49,1.14,23.15,8.15,28.26,21,1.71,4.29.7,7.79-2.87,9.38C267.85,257.86,266.36,257.59,265,255.56Z" fill="#000000"/></svg>