<svg width="34" height="34" viewBox="0 0 34 34" fill="none" xmlns="http://www.w3.org/2000/svg">
<path d="M3.26931 11.3656C2.93675 8.73802 4.72175 5.13614 6.82337 3.48396C7.446 2.99521 9.54337 3.55939 10.0874 3.26827C11.373 2.57977 13.4767 1.67452 14.739 2.40658C15.521 2.86027 15.0811 3.94614 15.8567 4.41258C17.3474 5.31039 21.233 3.84627 22.7492 4.69946C24.0922 5.45489 24.8795 11.5579 26.1545 12.4217C26.8653 12.903 30.2451 11.1913 30.6956 12.2432C31.5541 14.246 25.7125 17.5589 25.1058 19.2876C24.6319 20.637 26.5476 22.0225 25.4033 22.881C23.6874 24.1687 24.3132 26.1184 23.7947 26.4924C22.1542 27.675 22.7896 28.3751 21.6729 30.0624C20.4329 31.9356 18.479 31.9218 17.0011 31.8718C15.572 31.824 13.8826 27.777 13.6404 26.367C13.3928 24.9295 14.9154 22.9915 14.7135 21.5751C14.5116 20.1588 13.1867 20.6433 12.4249 19.2153C11.662 17.7852 12.3792 15.8546 11.5207 14.7103C10.9597 13.9623 6.71818 15.1651 6.00312 14.5488C4.96293 13.6542 3.43825 12.698 3.26931 11.3656Z" fill="url(#paint0_radial_1_288)"/>
<path d="M29.5874 20.5977C29.7957 20.2587 30.277 20.281 30.414 20.655C31.1567 22.6748 30.8337 27.3158 29.4344 28.2785C28.5079 28.916 25.8506 28.8618 26.2618 27.744C26.7707 26.3607 27.3084 26.1875 27.4752 25.4342C27.6059 24.8423 26.9344 23.3145 27.3572 22.9118C28.1584 22.1542 28.747 21.964 29.5874 20.5977Z" fill="url(#paint1_radial_1_288)"/>
<defs>
<radialGradient id="paint0_radial_1_288" cx="0" cy="0" r="1" gradientUnits="userSpaceOnUse" gradientTransform="translate(17.0054 17.0103) rotate(90) scale(14.8753 13.7762)">
<stop stop-color="#21CCC4"/>
<stop offset="1" stop-color="#539087"/>
</radialGradient>
<radialGradient id="paint1_radial_1_288" cx="0" cy="0" r="1" gradientUnits="userSpaceOnUse" gradientTransform="translate(28.5103 24.5232) rotate(90) scale(4.16502 2.29144)">
<stop stop-color="#21CCC4"/>
<stop offset="1" stop-color="#539087"/>
</radialGradient>
</defs>
</svg>
