<svg width="48" height="48" viewBox="0 0 48 48" fill="none" xmlns="http://www.w3.org/2000/svg">
<g id="location 1" clip-path="url(#clip0_1_308)">
<path id="path8458" d="M42.863 1.27692L42.9647 1.34589L43.1208 1.37131L42.9647 1.30959L42.8993 1.27692H42.863ZM43.1208 1.37131L43.197 1.40398L43.1752 1.3822L43.1208 1.37131ZM43.197 1.40398L43.5528 1.75976L43.3132 1.45118L43.197 1.40398ZM43.5528 1.75976L43.3785 1.72708L43.3495 1.96669L43.3785 1.97032V1.79606L43.5528 1.75976ZM43.3495 1.96669L43.07 1.93402L43.3495 1.97032V1.96669ZM41.4798 2.0393L41.066 2.14095L40.9607 2.31521L40.997 2.45316L41.4472 2.55481L40.6884 2.41686L39.8934 2.69277L39.2726 2.8997L39.2036 3.24459L38.993 3.34987L38.8914 3.41885L38.9277 3.45515L39.0983 3.5931L39.4432 3.62941L39.5122 3.76373L39.1673 3.86901L38.8587 3.80004L38.9277 3.97066L38.4775 4.35186L38.5792 4.62777L38.1326 4.45351V4.48981L38.0999 4.45351L37.6135 4.31918L37.2686 4.48981L37.0254 4.86737H36.2702L36.2993 4.69674H35.9544L35.8201 4.76209L35.9217 5.14691L35.6821 4.90368L35.8564 5.00896L35.8201 4.79839L35.5079 5.00896L35.7838 4.76209L34.9197 4.97265L35.0577 5.07793L34.956 5.21226L34.8871 5.31754L34.9923 5.24856H35.0214V5.28124L35.0577 5.35384L35.1267 5.42282L35.1956 5.45549L35.3009 5.56078H35.2646L34.9923 5.62612L35.094 5.83669L34.6801 5.7314L34.4369 5.94197L34.1283 5.80038L34.1973 6.3522L33.4385 5.94197L33.6092 5.83669L33.3659 5.76771L33.4676 5.66243L33.228 5.4918L32.8831 5.56078L32.5019 5.42282L32.4692 5.87299L32.019 5.90566L31.7431 5.87299L31.7794 5.69873L31.2603 5.7314L31.0207 5.97464L30.8101 5.66243L30.7738 5.80038L30.6395 5.66243L30.3963 5.69873V5.87299L30.5705 5.83669L29.9098 6.11259L29.8118 6.28685L29.9824 5.90566L30.7738 5.14691L30.5342 4.93635L30.7448 5.04163V4.90368L30.2946 4.55879L29.7392 4.73305L29.8444 4.55879L29.4306 4.52248L29.6702 4.38453L29.3943 4.24657L29.0821 4.52248L29.0494 4.76209H28.9114H28.7735L28.8751 4.93635L28.7735 4.8347L28.3269 5.00896L28.3923 4.90368L28.0474 4.86737L27.9784 4.97265H28.1527L27.1144 5.18321L27.049 5.42282L26.9438 5.28124L27.0127 5.7314L25.9744 5.69873L25.8401 6.14527L26.1487 6.56276L25.9091 7.28521L25.8728 7.39049L25.7675 7.25254L25.7348 7.15089L25.9091 6.83504L25.6985 6.97663L26.1124 6.52646L25.8038 6.45748L25.6296 6.28685L25.4589 6.11259L25.2847 6.14527V6.31953L24.9761 6.21788L25.183 6.70072L24.8345 6.52646L25.0088 5.80038L24.9035 6.04362L24.4206 6.28685V6.66441L24.2863 6.90765L24.0068 7.25254L24.4206 7.32151L24.6639 7.52845L24.6312 7.84066L24.3843 8.01129L24.5949 8.18555L24.319 8.01129L24.4896 7.45947H24.1121L23.8688 7.90964L23.0411 8.42515L22.5909 8.04396L23.1464 8.08027L23.8361 7.56475L23.7672 7.25254L24.0395 6.83504L24.25 6.49015V6.21788L24.7002 5.76771L24.5586 5.62612L24.3553 5.5281L24.2863 5.4918L23.7672 5.97464L23.386 6.07629L23.0774 6.52646L22.9721 6.70072L23.1791 6.80237L23.2154 7.08191L22.8305 7.35419L22.6599 6.80237L22.7325 6.87135L22.5583 6.6862L22.6345 6.83867L22.4965 7.37234L22.4893 7.44495L21.9447 7.72086L21.0843 7.92053L20.2711 8.05848L19.5015 9.10403H19.4252L19.2764 9.16212L19.2219 9.30008L18.9787 9.56872L18.4959 10.0879L17.8424 10.745L17.6028 10.7704L17.2688 10.9519L17.2288 11.1298L17.3595 11.344L17.3704 11.4856L17.2288 11.6453L16.9021 11.6961L16.4084 11.54L16.2414 11.5691L16.1797 11.7397L16.1942 12.3097L16.2668 12.3423L16.3285 12.444L16.5536 12.4549L16.8622 12.4476L17.0001 12.4948L17.0727 12.64L17.0074 12.7489L16.5064 13.0212L16.4519 13.1737L16.3902 13.1991L16.3648 13.2753L16.441 13.4387L16.7133 13.6892L16.6298 13.7328L16.7605 13.9869L16.8658 14.1212L16.8549 14.212L16.7605 14.3173L16.648 14.4334L16.314 14.212L16.0671 14.3245L15.9691 13.8707L15.7694 13.8126L15.7295 13.8417L15.4972 13.5549L15.4282 13.4206L15.3447 13.2427L15.174 13.0866L14.8909 13.0684L14.3645 12.8615L13.9615 12.8215L13.8816 12.8869L13.6239 13.1918L13.5331 13.8453L13.2899 14.1067L13.1047 14.2991L13.0684 14.4843L12.9922 14.6767L13.3697 15.0216V15.2249L12.9196 15.6387L12.9886 15.813L12.542 15.5044L12.2661 15.675L12.3315 15.9183L12.0555 15.6387L11.9539 15.7803L12.0555 15.9546L11.8522 16.5028L12.1245 16.9529L11.8849 17.1925L11.747 17.748L11.9902 17.3341L12.2298 17.4031L12.2661 18.0929L11.8522 18.1292L11.747 17.7843L11.4711 18.0929L11.4347 18.4378L11.4711 18.2671L11.6417 18.4051L11.5763 18.6483L11.4711 18.5067L11.3331 18.7173H11.5074V18.9932L11.0209 19.9952L10.3311 19.7157L9.81196 18.7463L10.0516 18.0566L10.3311 17.9549L10.5707 17.6137L10.872 17.65L10.6796 17.4176L10.5417 17.1707L10.44 16.9493L10.4037 16.815L10.3856 16.7024L10.4364 16.6516L10.4255 16.5354L10.371 16.3793L10.313 16.2123L10.2404 16.0707L10.1423 15.8747L10.0298 15.6714L10.0552 15.6206L10.0044 15.4354L9.94266 15.2321L9.81197 14.9998L9.72847 14.9635L9.69943 14.8582L9.60867 14.6222L9.51428 14.4153L9.45619 14.212L9.34002 13.4097L9.3618 14.2955L9.43441 14.8836L9.22748 15.3701L9.01691 15.508L8.60305 15.4391L8.57038 15.4027L8.25816 15.0942L7.98225 14.5387L8.01856 13.8816L7.70997 13.5404L7.08555 13.4678L6.84594 12.9849L6.70436 13.1555L6.77333 13.3298L6.60271 13.1555L6.50105 13.2971L6.25782 12.7489L6.01458 12.8107L5.84032 12.9849L5.98191 13.1265L5.6697 13.4678V13.642L5.56441 13.5694L5.63702 13.3661L5.49544 13.5041V13.8489L5.39016 13.9179L5.32481 14.2301L5.18685 14.2592L5.36111 14.4697L5.11788 14.4334L5.32481 14.575L5.29214 15.1958L5.39016 15.3338L5.63702 15.0942L5.706 15.2285L5.73867 15.9546L6.01458 16.1615L6.29049 16.0598L6.3268 16.3321L6.5664 16.3684L6.15254 16.8186L5.9093 17.3377L4.70038 18.3724L4.38091 19.3889L3.97793 19.8899L4.08322 20.0642L3.90896 21.8939L3.771 22.3077L3.90896 22.8632L3.80731 23.6583L3.59674 24.3117L3.66572 24.8309L3.771 25.3464L3.87265 27.2487L3.63305 27.9385L3.59674 29.3543L4.08322 29.7029L4.32282 29.5976L5.39016 29.9751L5.6697 29.8372L6.74066 30.0477L6.91492 29.7029L7.91328 29.9751L8.15651 29.6665L8.5014 29.8009L8.77731 29.456L9.19117 29.5613L9.33276 28.9405L9.50339 28.8388L9.60867 28.9731L10.3311 28.3197L10.1242 27.4883L9.60867 26.9728L9.46708 26.5952L9.53606 25.9345L9.74662 25.6259L8.53407 26.2794L8.05486 25.9345L7.8443 25.9708L7.63737 25.5896L7.98225 24.8672L7.80799 24.6929L7.53572 25.281L7.49941 24.486L7.67367 24.2064L7.46311 23.4477L7.60469 22.4493L7.46311 22.3441L7.67367 22.3767L7.70997 22.1371V22.0681L7.94958 22.3077L8.05486 22.1371L8.15651 22.4493L8.36344 22.482V22.5873L8.32714 23.8289L8.60305 24.1774L8.84629 24.9361L9.1585 25.2447H9.95355V26.0761L10.8503 26.7985L11.4711 27.285L13.4387 27.7279L13.4061 28.1781L13.6493 28.2834V28.7662L13.7255 28.788L13.7836 28.6972L13.8453 28.8279L13.9942 28.8715L13.9252 29.0784L14.1975 28.9731L13.9942 29.1111L14.2338 29.5976L14.7892 29.7029L14.6476 29.8735L14.0595 29.8009L14.7529 30.9081L15.3737 30.8392L15.548 30.2873L15.8239 30.3926L15.617 30.4943L15.5807 30.6649L15.7513 30.7012L15.5807 30.8392L15.6859 31.184L15.479 31.6015L15.548 33.6382L16.4411 36.4009L16.5463 36.9854L16.6879 37.5735L17.1708 38.089L17.4104 37.991L17.552 37.7115L17.9985 37.6752L17.8605 37.5735L18.0312 37.3303L18.1001 37.225L18.3797 37.2613V36.5715L18.514 36.263L18.7246 35.8455L18.6556 34.9125L18.7936 34.6365L19.1384 34.6729L19.3454 34.3969L19.8645 34.3643V34.1174L20.8338 33.6382L21.3493 33.1553L22.0391 32.9448L22.4167 32.5999L22.3513 32.255L22.8015 32.1207L22.9358 31.8738L23.0048 32.2187L23.248 31.9791L23.4223 32.255V32.0154L23.5239 32.186L23.6619 32.0154L23.7999 32.186L23.8688 31.8738L24.0068 32.186L24.181 31.8048L24.2137 32.1207L24.319 32.0481L24.2863 31.6996L24.6639 31.7359L25.2484 33.1553L25.39 32.9811L25.3537 33.188L25.7349 33.326L25.8728 33.6382L25.5606 33.6019L25.8038 33.9141L25.9091 33.6382L26.1124 34.6039L25.9091 35.3989L26.1124 35.2573L25.9745 35.4679L26.1124 35.3263L26.2867 35.5369L26.3883 35.3263L26.5299 35.5369L26.6679 35.2936L27.0128 35.2283L26.9075 35.0177L27.0817 35.192L27.2887 35.0177V34.6729L27.5283 35.192L27.7388 35.1557V36.0197L27.9131 36.7095L27.9784 36.5026L28.2217 37.0907L28.1527 37.5409L28.327 37.6461L28.0837 38.1254L28.1527 38.4702L28.258 38.3359L28.2217 38.4702L27.9784 39.3706L28.1854 39.2653L28.9114 40.093L28.9804 40.162L29.22 41.1967L29.6012 41.8901L30.8101 42.5798L31.0534 42.3729L31.224 42.5109L30.7738 41.8574V41.0623L30.6032 40.7174L29.7392 40.0277L29.1547 39.8534L28.9114 39.0947L28.8425 38.8151L28.4976 38.8514L28.4613 38.4702V38.2996L28.9114 37.4356V37.225L28.8751 36.8475H28.9114L29.4306 36.7458L29.3616 37.1597L29.8445 37.127L30.3309 37.3993L30.5705 38.0237L30.8101 37.8857L30.8464 38.1943L30.9844 38.089L31.6379 38.4013L31.4636 39.0257H31.7431L32.2296 38.6808L32.0191 38.4013L32.4002 38.5755L32.2623 38.3686L32.1933 38.2996L32.3276 38.3686L32.4329 38.4702L32.3639 38.3686L32.2986 38.2633L32.5382 38.3359L32.3276 38.2306H32.5382L32.5019 38.089L32.7778 38.1617L33.6781 37.6098L33.7471 36.9527L33.8814 36.9164L33.5729 35.6422L33.228 35.2283L32.6072 34.8798L31.8121 33.8778L31.9138 33.3587L32.2623 33.119L32.2296 32.8758L32.3639 32.9121L32.2623 32.7379H32.6072L32.8141 32.4293L33.159 32.393L33.1917 32.186L33.5039 32.4293L33.7471 32.2187L33.9178 32.3603L33.7834 32.6689L33.9541 33.0138L34.1283 32.9811V32.393L34.161 32.4982L34.7455 32.255V32.1207H35.094V31.9464L35.3699 32.0154L35.3372 31.6342L35.4353 31.8738L35.5079 31.6996L35.6458 31.7722L35.5079 31.322L36.027 31.6996L35.9544 31.5652L36.2339 31.3547L36.2702 31.4963L36.4735 31.2857L36.6115 31.391L37.0254 31.1514L37.1306 30.9771L36.9927 30.9081L37.3376 30.7702L37.3739 30.5633L37.5082 30.6649L37.7188 30.32L37.5445 30.2184L37.9584 30.1458L37.8894 29.9425H38.1L37.9947 29.7319H38.2016V29.5286L38.3722 29.6302L38.2379 29.2527L38.4085 29.0421H38.2379L38.3396 29.0094L38.2016 28.8715L38.4085 28.9042H38.4775L38.6845 28.1781L38.5465 28.0764L38.993 27.9022L38.8224 27.6989L38.993 27.5246L38.8224 27.4193L39.062 27.3504L39.0293 27.1434L38.7897 27.285L39.062 26.9728L38.964 26.9365L38.6518 26.8348L38.1689 27.0055L38.8587 26.4537L38.2706 26.0761H37.9584L38.7897 26.0398L38.2379 25.6586L37.824 24.7946H37.6825L37.3049 24.6929L37.2686 24.5223L37.5445 24.1048L37.6498 23.9305L37.5445 23.8289L37.7877 23.7926L37.7551 23.5167L38.2016 23.2081L38.4448 23.2408V22.9322L37.6135 22.8959L37.3376 23.1391L37.0617 23.415L36.7858 22.8632H36.2993L36.2702 22.482L36.7495 22.3077L37.0617 21.7886L37.3376 21.3094L37.6498 21.0988L37.8894 21.3747L37.6135 22.0318L37.8894 21.9629L37.6498 22.3767L38.4775 21.5127L39.2363 21.48L39.2036 21.9302L39.4069 21.9992L39.1673 22.1044L39.0983 22.3767L39.3416 22.3441L39.2726 22.4493L39.4795 22.413L39.5122 22.3077L39.8934 22.3767L40.1693 22.8269L39.9623 22.7216L39.8571 22.9322L40.0313 23.1028V22.9322L40.1003 23.2081L40.2709 23.1718L40.1693 23.7926L40.3762 24.0031L40.2419 24.0358L40.3762 24.1774L40.5831 23.8289L40.6884 24.0031V23.7563L40.8627 23.8616L40.7574 23.6583L41.066 23.7272V23.4477L41.2766 23.484L41.3092 22.9322L41.1023 22.3767L40.4452 21.687L39.9986 21.5127L39.9623 21.2404L40.5831 20.4091L40.4125 19.9262L40.6521 19.545L40.5831 19.3744H40.7901L40.8264 18.8916L41.3818 19.0658L41.8973 18.4051L42.1733 16.677L42.1406 15.3338V15.0579L41.861 14.575L41.6904 14.2301L41.5525 13.4351L41.066 13.0902H41.2402L41.2076 12.9159L40.6194 12.7054L40.5178 12.6763L40.2419 12.8107L40.3072 12.9522L40.1003 13.2971L39.9986 12.8796L39.926 13.2608L39.6864 12.847L39.4432 12.9849L39.2036 12.8796L39.5485 11.8776L39.6175 11.1879L39.6538 10.2222L40.2419 9.77202L40.3762 9.84462V9.67037L40.8954 9.46343L40.7901 9.18389L41.4799 9.04957L41.3455 9.25287L41.4799 9.32548L41.999 8.70468L41.8247 8.5994L41.7267 8.73372L41.5851 8.5631L41.3092 7.63009L41.5851 7.0819L41.6214 7.00929L41.7594 7.21622L41.8247 7.35418L41.9663 7.45946V7.42678L41.999 7.3215L42.1733 7.52844L41.999 6.87134L42.1043 6.73701L41.7267 6.45747L41.7957 6.25054L41.9663 6.21786L41.93 6.42117L42.5181 6.94031L42.4492 7.35418L42.7251 8.08025L42.9356 8.73372L42.7941 9.01326L43.07 9.56871L43.5528 10.2222L45.3172 11.776L45.1429 10.912L44.8343 10.636L45.0739 10.3601V10.3238L45.0376 10.2912L44.867 10.1169L44.8634 10.1133L44.7617 10.0153L44.6601 9.94628L44.7617 9.35815L44.2426 8.87531L44.3842 8.63571L43.8287 8.31986L43.7271 8.08026L43.4512 8.21821L42.8304 7.25253L42.8993 7.11457L43.07 7.15088L42.9356 6.73701L43.2079 6.94032L43.0337 6.63173L43.1752 6.25054L43.5891 6.31952L43.3785 6.14526L43.0337 5.31753L42.863 4.59145L43.1063 4.38452L42.9356 4.17759L42.0353 3.93798L42.1733 4.00696L41.861 3.97066L41.93 4.21389L41.8247 4.14492L41.7267 4.28287L41.93 3.69475L41.7957 3.55679L41.6214 3.34986L41.2402 3.20827V3.07395L41.6904 3.28088V3.00497L42.1043 3.03765L42.3439 2.89969L42.2096 2.79441L42.4165 2.83071L42.3439 2.69276L42.1406 2.72906L41.999 2.55481L41.7957 2.45315L41.6904 2.5185L41.8247 2.3152H41.6214L41.7594 2.24622L41.4798 2.0393ZM24.3553 5.5281H24.5259L24.6639 5.38652L24.4896 5.35384L24.3553 5.5281ZM43.3785 7.4268L43.2805 7.60105L43.4511 7.80436L43.3785 7.4268ZM45.2119 11.914L45.3172 12.3605L45.3535 12.0882L45.2119 11.914ZM41.1713 12.2625L41.1023 12.3605L41.4109 12.5711L41.1713 12.2625ZM41.4109 12.5711L41.2765 12.847L41.5161 13.3298L42.0353 13.8163L42.3439 14.3318L43.3785 16.2632L43.3132 15.8166L43.5891 15.7839L43.7634 16.0236L43.6944 15.8166L43.0336 15.3338L42.794 14.644L43.001 14.4334L43.3785 14.6077L42.794 14.0886L42.1406 13.5041L41.4109 12.5711ZM39.7554 12.5021V12.7417L39.926 12.6074L39.7554 12.5021ZM45.3172 15.4028L45.1066 15.6097L45.1429 16.1978L45.3172 15.4028ZM45.0376 16.2632L44.9033 16.2995V16.6117L44.9686 16.8186L45.0376 16.2632ZM43.4511 16.4737L43.865 17.6137L43.5528 17.7516L43.6944 17.8896L43.5891 18.1328L43.5528 18.2018L43.7997 18.5793V18.583L43.865 18.681L44.1772 18.3724L43.7997 18.3034L43.7634 18.0965L44.003 18.1655L44.1082 17.8896L44.729 17.9585V17.4067L45.1066 16.8876L44.9686 16.9929L44.729 16.5064L44.6927 16.7823L44.3478 16.8876L43.4511 16.4737ZM44.3478 18.5104L44.1409 18.6157L44.3842 18.8553L44.0393 18.7863V19.0658V19.1675L44.1409 19.5124L44.2099 19.4434H44.2426L44.3152 19.5813L44.3478 19.7193L44.4168 20.4454L44.003 21.48L43.7997 21.3747L43.865 21.0988L43.6944 21.2404L43.7997 22.2025L42.7251 22.6526L42.0716 23.6583L42.1732 23.8289L42.6561 23.7272V23.3787L42.7614 23.5167L43.2805 22.9649L43.6944 22.7942L43.7271 23.2771L44.0719 23.3787L44.1082 23.2081L44.3478 22.7942L44.1082 22.6526V22.413L44.2426 22.551V22.413L44.4168 22.4493L44.3152 22.6236L44.729 22.413L44.8343 22.0682L44.9686 22.3078L44.9323 21.9302H45.1429L45.0739 21.618H45.1429H45.2119L45.2482 21.8249V21.8939V21.9992L45.2809 21.9302L45.4188 21.4474L45.2119 21.2041L45.1792 20.7903L44.9033 20.2058L45.0739 20.0642L44.9686 19.3417L44.3478 18.5104ZM43.4838 23.1391L43.2079 23.1718L43.001 23.5167L42.8993 23.4477L42.6888 23.9668L42.8303 23.8616L43.001 24.2065L43.1063 24.0358L43.2442 23.6583L43.5201 23.7272L43.6254 23.3461L43.4838 23.1391ZM42.2095 23.8616L41.7267 24.3117L41.9663 24.5223L41.7957 24.417L41.8973 24.6929L42.1406 24.555L41.9663 24.348L42.0716 24.2065L42.2749 24.5223L42.2095 25.2447L42.4492 25.3137V25.0051L42.5181 25.3827L42.7251 25.1068L42.7614 24.1774L42.2095 23.8616ZM39.2363 29.456L38.7171 30.4943V30.7702L39.1673 31.2567L39.4795 29.5613L39.2363 29.456ZM50.2545 31.6342L50.1492 31.7722L50.2182 31.8412L50.2545 31.6342ZM40.1003 32.9811L39.3089 33.0828L39.3415 34.2917L39.0983 34.259H39.062L38.993 34.4659L39.1673 34.9125L39.2363 35.0541L39.4432 35.192V34.9814L39.6538 35.0177L39.5485 35.4679L39.8934 35.5006L40.1003 35.2574L40.5505 35.5732L40.4815 35.192L40.8953 35.5732L41.2402 35.5006L41.2765 35.7075L41.3092 35.4316L41.1023 35.5006L40.9607 35.2574L41.1713 35.123L41.0333 35.0541H40.8264L40.7574 35.2574L40.5831 34.9814L40.3072 35.0867L40.3435 35.2574L40.0313 35.0541L39.828 34.6366L40.2709 33.7035L40.0676 33.2897L40.1003 32.9811ZM34.4369 33.0828L33.6092 33.2243L33.2969 33.6019L33.5366 34.0521L33.8161 34.1174L34.23 33.8088L34.5059 33.2534L34.4369 33.0828ZM41.7957 35.5369L41.3818 35.6712L41.7957 35.9871V36.1577H41.4472L41.5161 36.4336L41.861 36.8475L41.8247 36.6768L41.9663 36.6405L41.8029 36.1904L42.1732 36.2267L41.999 35.7075L41.7957 35.5369ZM39.4069 35.6422L39.6538 35.8455V35.8818L39.8571 36.1904L39.9986 36.1577L40.0313 35.7075L39.4069 35.6422ZM40.8627 35.7765V36.1214L41.0333 35.9508L41.2765 36.0923L40.8627 35.7765ZM40.2419 36.2956L40.3762 36.9854L40.8953 36.5026V36.2956L40.7574 36.4009L40.2419 36.2956ZM41.3455 36.3319L41.135 37.0217L41.0333 37.3303L41.1713 37.0217L41.3455 36.7821V36.3319ZM40.9317 36.5716L40.7901 37.0544L40.7211 37.127L40.5831 37.225L40.8953 37.5409L41.0333 37.3993L40.9607 37.0544L41.1023 36.6405L40.9317 36.5716ZM39.062 36.7821L39.0983 37.127L38.964 37.0217L38.993 37.2613L38.7534 37.5409L37.9947 38.5066L38.4085 38.1617L38.7534 37.5735L38.8224 37.5409L39.2363 37.196L39.062 36.7821ZM42.0716 36.8475L42.1406 37.2613L41.7957 37.3666V37.6098H41.5851L41.2765 37.991L41.3455 37.7442L41.1023 37.6461L40.5505 38.1617L40.4125 38.6082L40.5505 38.6808L40.7574 38.1943L41.1713 38.2996L41.2765 38.06L41.5851 38.1943L41.5161 38.7135L41.9663 38.8151L42.1043 38.6808L42.1732 38.9204L42.3112 38.6808L42.1406 38.3686L42.2749 38.06L42.5508 38.4702L42.5181 38.1617L42.7251 37.9184L42.5871 37.3666H42.4165L42.4492 37.0217L42.0716 36.8475ZM41.4109 36.8838L41.3455 36.9527L41.2765 37.0907L41.3818 37.1597L41.6541 37.0217L41.6214 36.8838H41.4109ZM25.183 36.9164L25.0451 37.0544L25.1467 37.196L25.183 36.9164ZM18.3797 37.5409L18.445 37.5735L18.6193 37.7115L18.445 37.6461L18.416 37.8168L18.3107 38.4013L18.2417 38.2633L18.3434 38.8841L18.4813 39.3706L19.0331 39.4033L19.3091 39.0584L19.0695 38.2996L18.5503 37.5409H18.445H18.3797ZM40.4815 38.7825L40.4452 38.9204L40.6521 38.7825H40.4815ZM37.7877 39.1637L37.3739 39.9587L37.0943 40.0604L37.2359 40.1293L37.1306 40.3036L37.0145 40.3399L36.9963 40.3036L36.9709 40.3544L36.9164 40.3726L36.931 40.3363L36.5824 40.4851L36.4046 40.5432L35.9217 41.2693L35.0577 41.6178L34.9197 42.235L34.2663 42.1333L34.1283 41.9954L33.7108 42.4419V42.8231L33.9177 42.9247L33.8524 43.1716L34.092 43.2369H33.9177L34.1283 43.3749L33.9867 43.5165L34.3026 43.4112L34.4369 44.17L35.1956 44.032L35.3009 44.3406L35.9217 43.9993L36.2339 44.032V44.17L36.6805 44.0647L36.7168 44.4096L36.9237 44.3079L37.6135 43.8251L37.5082 43.7198L37.6135 43.7561L37.7877 43.4112L37.5445 43.2696L37.8531 42.8921L37.9584 42.961L38.3032 42.6851L38.2379 42.3076L38.5465 41.9591L38.4448 41.8211L38.7171 41.9264L39.0293 41.7521L38.4448 41.4762L38.3722 41.3383L38.5465 41.2693L37.9947 40.7538L38.3722 40.6812L38.1689 40.4742L38.7897 40.2673L38.5465 40.0604L39.1346 39.7155L38.6518 39.6138L38.4448 39.7155L38.4775 39.5085L38.2379 39.6429L38.3032 39.3706L37.9947 39.1637L37.8531 39.4033L37.7877 39.1637ZM25.5243 39.7481L25.5969 39.9587L25.6659 39.8534L25.5243 39.7481ZM43.7634 39.8171L43.6254 40.162L43.7634 40.0604V39.8171ZM43.4838 40.093L43.2079 40.7175L43.3495 41.233L43.7271 41.4435L43.5201 41.233L43.4511 40.8881L43.934 40.8518L43.5891 40.7175L43.8287 40.5069V40.2673L43.3132 40.7175L43.5201 40.5069L43.4838 40.093ZM3.77099 40.5069L3.90895 40.6812L3.83634 40.5432L3.77099 40.5069ZM26.323 40.5432L26.4936 40.9934L27.2197 41.4762L27.7025 42.1333L28.258 42.4092L28.4286 43.0663L28.9114 43.4112L29.0821 43.5492L29.7755 44.5511L31.0534 45.4152L31.3983 45.6548L31.3656 45.4842L31.7105 45.5894L31.7794 45.4479L31.9827 45.6185L32.1933 44.4785L31.9501 44.1337L31.5362 44.101L31.4636 44.2389L31.5362 44.032L31.3293 43.9993L31.293 43.5855L30.6722 43.4439L30.9481 43.03L30.7085 42.8921L30.5959 42.9501L30.5197 42.8449L30.5705 42.8558L30.3963 42.7214L30.2583 42.6525L30.2256 42.7868L29.4669 42.1333L29.4306 42.3729L28.9114 41.8574L28.7735 41.7521L27.9131 41.3019L27.9784 41.1313L27.5646 40.7538L26.323 40.5432ZM42.1406 40.7175L41.5161 41.2693L39.9986 41.4072L39.8571 41.6831L39.6864 41.6178L39.5485 41.7884V41.8574L39.4432 42.166L39.3415 42.1333L39.4795 42.4782L39.4069 42.4092L39.2036 42.6851V42.9973L38.8914 43.4439L38.964 43.7561L39.2726 43.6871L39.2363 44.3079L39.2036 44.5511L39.4795 44.5148L39.7227 44.4785L39.6175 43.3749L39.926 43.1716H40.1003L39.9623 43.5492L40.3435 43.6871L40.2709 43.9993H40.5178L40.5831 43.8251L40.9607 43.6871L40.6194 43.4112L40.7901 43.2006L40.2056 42.7505L40.3762 42.7868L41.2765 42.028L40.3762 42.2713L40.1003 42.6161L39.8934 42.6525L39.5811 42.3729L39.6864 41.8901L41.7267 41.4072L42.1406 40.7175ZM33.3332 41.0623L33.1917 41.1676L33.2969 41.3383L33.4385 41.1676H33.4022L33.3332 41.0623ZM43.2805 41.3019L43.1752 41.4072L43.2442 41.5452L43.4511 41.4435L43.2805 41.3019ZM44.6238 41.4762L44.3152 41.6468L44.5911 41.6178L44.6238 41.4762ZM43.3132 41.7158L43.2079 41.8901L43.5528 41.8211L43.4838 41.7521L43.3132 41.7158ZM26.5626 41.8574L27.0127 42.0607L26.7368 41.8901V41.8574H26.5626ZM44.5911 42.028L43.9703 42.166L43.4838 42.4419L43.4148 42.6525L43.5528 42.4092L43.6944 42.5109L44.3842 42.2713L44.798 42.3402L44.5911 42.028ZM42.2095 42.235L41.8247 42.2713L41.7267 42.4782L42.2095 42.235ZM41.3455 42.2713L40.997 42.3076L41.0333 42.4419H41.066L41.3455 42.2713ZM27.4629 42.4782L27.3213 42.5109L27.4956 42.7214L27.7388 42.8921L27.7715 42.6851L27.4629 42.4782ZM30.1204 42.5109L30.1567 42.7214L30.2583 42.6161L30.1204 42.5109ZM31.3983 42.5798L31.1913 42.6525L31.3293 42.6851L31.3983 42.7505V42.5798ZM42.8993 42.6161L42.5181 42.8231L42.8303 42.961L43.1063 42.7505L42.8993 42.6161ZM31.3656 43.1353L31.3293 43.2369H31.6052L31.3656 43.1353ZM3.52776 43.2696L3.59673 43.4112L3.66571 43.4802L3.52776 43.2696ZM28.3269 43.6145L28.1527 43.7198L28.4976 43.963L28.3269 43.6145ZM41.066 43.6508L40.8953 43.9267L40.8264 44.2389L41.1023 43.9993H40.9607L41.066 43.6508ZM32.1933 43.7888L31.8121 43.8251L31.6742 44.032H32.019L32.1243 44.3079L32.5382 44.3769L32.6072 44.17L32.3276 44.1337L32.1933 43.7888ZM40.8953 43.7888L40.6884 43.894L40.6521 44.17L40.7901 44.1337L40.8627 43.963L40.8953 43.7888ZM33.0537 44.1337L33.021 44.4096H33.228L33.3659 44.2063L33.0537 44.1337ZM29.0167 44.4096L29.1547 44.6201V44.4785L29.0167 44.4096ZM42.8303 44.5511L42.4165 44.6201L42.3112 44.7908L42.8303 44.5511ZM43.001 44.7545L41.9663 45.1393L41.8066 45.2554H41.8029L41.5488 45.4406L41.5125 45.4007L41.4 45.5314L41.4181 45.535L41.2076 45.6875L41.135 45.8617L41.066 45.9997L41.3455 45.9307L41.5851 45.7601L41.8792 45.5495L41.8864 45.5713L41.8828 45.5459L43.001 44.7545ZM41.9663 44.9287L41.6904 44.9977L41.5851 45.1393L41.8973 45.034L41.9663 44.9287ZM41.5851 45.0703L41.4109 45.1393L41.4798 45.2046L41.5851 45.0703ZM40.8627 45.1683L40.6521 45.4152L40.1693 45.5531L39.6538 45.5168L39.4069 45.7238L39.3089 45.7927H39.4069L40.2419 45.6548L40.9317 45.2736L40.8627 45.1683ZM44.8343 45.3099L44.5911 45.3426L44.5185 45.4479L44.3152 45.3789L44.5548 45.5894L44.8343 45.3099ZM44.3152 45.4479L44.1409 45.6548L44.4168 45.5531L44.3152 45.4479ZM32.157 45.5894L32.019 45.8617L31.7105 45.967L32.4002 46.0323L32.3639 46.2066L33.1227 46.2792L33.6418 46.1739L34.6438 46.3083L36.3356 46.2429L36.6478 46.2792L36.5788 45.898L35.9217 45.967L35.6095 45.6548L34.8181 45.5894L34.4732 45.829L33.7108 45.8617L33.3659 45.6548L32.157 45.5894ZM36.4409 45.5894L35.7148 45.7238L36.1286 45.7601L36.4409 45.5894ZM38.3722 45.7238L38.2706 45.7927L38.5465 45.9307L37.9584 45.898L37.7551 46.0686L37.8894 46.2066L39.0293 45.7927L38.3722 45.7238ZM37.5082 45.9307L37.3739 46.1739H37.6825L37.7551 45.9307H37.5082ZM36.891 45.9997L36.6115 46.0323L36.9237 46.2792L37.2359 46.0323L36.891 45.9997ZM39.3778 45.9997L38.8587 46.1739L39.3415 46.2792H39.3778L39.5811 46.3446L39.7917 46.2066V46.1739L39.4069 45.9997H39.3778ZM8.50139 46.3083L8.74462 46.5188L8.63934 46.3446L8.50139 46.3083ZM9.19116 46.4135L9.22747 46.5515H9.33275L9.19116 46.4135ZM43.4148 47.3829L43.2079 47.4881V47.6588L43.4148 47.3829ZM44.4894 51.6304L43.934 51.8373H44.0393L44.4894 51.6304ZM18.3107 54.5674L18.4813 54.6146L18.445 54.6001L18.3107 54.5674ZM18.4813 54.6146L18.5503 54.6509V54.6364L18.4813 54.6146ZM18.5503 54.6509V54.669H18.5866L18.5503 54.6509ZM18.5866 54.669L18.6883 54.7017L18.7246 54.7126L18.8952 54.7707H18.9315L18.5866 54.669Z" fill="url(#paint0_radial_1_308)"/>
</g>
<defs>
<radialGradient id="paint0_radial_1_308" cx="0" cy="0" r="1" gradientUnits="userSpaceOnUse" gradientTransform="translate(25 21.5) rotate(65.6955) scale(17.0074 17.8061)">
<stop offset="0.0989583" stop-color="#13BA9A"/>
<stop offset="1" stop-color="#329484"/>
</radialGradient>
<clipPath id="clip0_1_308">
<rect width="48" height="48" fill="white"/>
</clipPath>
</defs>
</svg>
