<svg xmlns="http://www.w3.org/2000/svg" xmlns:xlink="http://www.w3.org/1999/xlink" version="1.1" id="Layer_1" x="0px" y="0px" viewBox="0 0 48 48" style="enable-background:new 0 0 48 48;" xml:space="preserve">
<style type="text/css">
	.st0{clip-path:url(#SVGID_00000114767083196917250110000000157099780501499539_);}
	.st1{fill:url(#cy_00000163030836966234505040000011936633779082630034_);}
	.st2{clip-path:url(#SVGID_00000145048432016154450200000018276499377729958577_);}
	.st3{fill:url(#path8458_00000077305210234597664810000009653393762872829353_);}
</style>
<g>
	<defs>
		<rect id="SVGID_1_" x="-0.8" y="16.4" width="49.3" height="48"/>
	</defs>
	<clipPath id="SVGID_00000072247107013908431540000009763095050915368639_">
		<use xlink:href="#SVGID_1_" style="overflow:visible;"/>
	</clipPath>
	<g id="location__x28_2_x29__2" style="clip-path:url(#SVGID_00000072247107013908431540000009763095050915368639_);">
		<g id="layer1">
			
				<radialGradient id="cy_00000014609145916473702190000009754077800518338976_" cx="13.5731" cy="28.3483" r="17.3715" gradientTransform="matrix(1.0265 0 0 1 -1.283 0)" gradientUnits="userSpaceOnUse">
				<stop offset="0" style="stop-color:#1AB496"/>
				<stop offset="0.8958" style="stop-color:#1D7566"/>
			</radialGradient>
			<path id="cy" style="fill:url(#cy_00000014609145916473702190000009754077800518338976_);" d="M15,17.5L15,17.5     c-0.1,0-0.1,0.1-0.2,0.2c-0.1,0,0-0.1-0.1,0c0,0,0,0,0,0.1c0,0-0.1,0.1-0.1,0.1c0,0,0,0.2,0,0.2c0,0,0,0,0,0c0,0,0,0.1,0,0.1     c0,0,0,0.1,0.1,0.1c0,0.2,0,0.1-0.1,0.1c-0.1,0.1,0,0.1,0,0.2c0,0,0,0,0,0c0,0-0.1-0.1-0.1-0.1c0,0-0.2-0.1-0.2-0.1     c0,0,0,0.1,0,0.1c-0.1,0.1-0.1,0-0.2,0.1c0,0,0,0-0.1,0l0,0c0,0,0,0,0-0.1c0-0.1-0.1-0.2-0.2-0.2c-0.1-0.1-0.1,0-0.1,0.1l0,0.1h0     l0,0c0,0,0,0,0,0c0,0,0,0-0.1,0h0c0,0-0.1,0-0.1,0c0,0,0,0,0.1,0.1c0,0,0,0.1,0,0.1c0,0.1-0.1,0.1-0.1,0.2c0,0,0.2,0,0,0.1     c0,0-0.4-0.1-0.4,0c0,0,0.1,0.3,0,0.3l-0.2-0.1c0,0-0.1,0.2-0.1,0.2c0,0.1,0,0.1,0,0.2c0,0-0.1,0-0.1,0.1c0,0.1,0.1,0.1,0.1,0.2     c0,0.1-0.2,0.3-0.2,0.4c0,0,0.1,0.1,0,0.1l-0.1,0.1c0,0-0.1,0-0.1,0l0,0.2c0,0,0,0.1,0,0.1l0,0.2c0,0,0,0,0,0     c0,0.1-0.1,0.3-0.2,0.4c0,0.1,0.2,0,0.1,0.3c0,0.2-0.2,0-0.4,0.1c-0.1,0-0.2,0.2-0.2,0.3c0,0,0,0,0,0.1c0,0.1-0.1,0.1-0.1,0.1     c0,0.6,0.1-0.4,0.1,0.2c0,0,0,0,0,0.1c0,0,0,0.1,0,0.1c0,0,0,0.1,0,0.1c0,0.1,0.1,0.1,0.1,0.2c0,0.1-0.1,0.2,0,0.3     c0,0.1,0.2,0.1,0.2,0.2L12,23.6c0,0-0.1,0-0.1,0.1c0,0.2,0.2,0.2,0.1,0.4l0,0.1c0,0.1-0.2,0.1-0.2,0.2c0,0,0,0,0,0c0,0,0,0,0,0.1     c0,0-0.1,0-0.1,0.1c0,0.1,0.1,0.3,0,0.4c0,0.1-0.1,0-0.1,0c0,0-0.1,0-0.1,0c0,0,0.1,0.2,0.1,0.3c0,0,0,0.1,0,0.1     c0.2,0.2,0.1-0.1,0.2,0c0.1,0.1-0.1,0.2-0.1,0.3c0,0,0,0.1,0,0.1c0,0,0,0,0.1,0c0,0.1,0,0.2,0,0.2c0,0,0,0.1,0.1,0.1c0,0,0,0,0,0     c0,0,0,0,0,0c0,0,0.1,0.1,0.1,0.1c0,0,0,0,0,0.1c0,0,0.1,0,0.1,0c0,0,0,0.1,0.1,0.1c0,0,0,0,0.1,0c0,0,0,0.1,0,0.1     c0,0-0.1,0-0.1,0c0,0,0.1,0.1,0.1,0.1c0,0-0.1-0.1-0.1,0c0,0,0,0.1,0.1,0.1c-0.1,0-0.2,0-0.2,0v0c0,0,0,0,0,0c0,0,0,0,0,0v0     c0,0,0,0,0,0c0,0,0.1,0,0.1,0c0,0.1,0,0.2,0,0.2c0,0,0,0,0-0.1c0-0.1-0.1-0.1-0.2-0.1c0,0,0,0-0.1,0c0,0,0,0-0.1,0c0,0,0,0,0,0     c0,0,0.1,0,0.1,0c0,0.1-0.2,0.1-0.2,0.1c0,0,0,0,0,0c0.1,0.1,0.1,0,0.1,0.2c0,0,0,0,0,0c0,0,0.1,0,0.1,0.1c0,0,0,0,0,0     c0,0,0,0,0.1,0c0,0,0,0,0.1,0c0,0,0,0,0,0c0,0,0.1,0.1,0,0.1c0,0,0,0,0,0c0,0,0.1,0,0.1,0c0.1,0,0-0.1,0-0.1c0,0,0.1,0,0.1-0.1     c0,0,0,0,0,0c0,0,0,0,0-0.1c0,0,0,0,0,0c0,0,0,0,0,0c0,0,0,0,0-0.1c0,0,0.1,0,0.1-0.1c0,0,0,0,0,0c0.1-0.1,0-0.1,0-0.2     c0,0,0,0,0-0.1c0.1,0.1,0.2,0.2,0.2,0.2c0,0,0,0,0,0.1c0,0,0,0.1,0,0.1c0,0-0.1,0-0.1,0c0,0,0,0,0.1,0c0,0,0.1,0,0.1,0     c0.1,0,0.1-0.1,0.2-0.1c0,0,0.1,0,0.1,0c0,0,0.1-0.1,0.1-0.1c0-0.1-0.2-0.1,0-0.2c0,0,0-0.1,0-0.1c0,0,0.1,0,0.1,0     c0,0,0-0.1,0-0.1c0,0,0,0,0.1,0c0,0,0,0,0.1,0c0,0,0.1,0,0.1,0c0,0,0,0.1,0,0c0,0,0,0,0.1-0.1c0,0,0,0,0,0c0,0,0.1,0,0.1,0     c0,0,0,0,0,0c0,0,0,0,0,0c0.1-0.1,0.1-0.2,0.1-0.3c0-0.2,0,0.1,0.1,0c0,0,0,0,0,0c0,0,0,0,0,0c0-0.1-0.1-0.1,0-0.2c0,0,0,0,0,0     c0,0-0.1-0.1-0.1-0.1c0,0,0-0.1,0-0.1c0,0,0,0,0,0c0,0-0.1,0-0.1-0.1c0,0,0.1-0.1,0.1-0.1c0,0-0.1-0.1-0.1-0.1c0,0,0,0,0,0     c0,0,0.1,0,0.1,0c0,0-0.1-0.2-0.1-0.2c0,0,0.1,0,0.1,0c0,0,0-0.1,0-0.1c0,0-0.1,0-0.1,0c0,0,0.1,0,0.1,0c0.1,0,0,0,0,0     c0,0,0,0,0,0c0-0.1-0.1-0.1-0.2-0.1c0,0,0,0,0,0c0,0,0,0,0,0c0,0,0,0,0,0c0,0,0,0,0,0c0,0,0.2,0,0.2,0c0,0,0,0,0,0c0,0,0,0,0,0     c0,0,0,0,0,0c0,0,0.1,0,0.1,0c0,0-0.1,0,0,0c0,0,0.1,0,0.1,0c0.1-0.1,0.1-0.3,0.1-0.3c0.1,0,0,0.2,0.1,0.2c0,0,0,0,0-0.1     c0,0,0,0.1,0,0.1c0,0,0-0.1,0-0.1c0,0,0.1-0.1,0.1-0.1c0,0,0,0,0,0c0,0,0-0.1,0-0.1c0,0,0,0,0,0c0,0,0.1,0,0.1,0     c0,0,0-0.1-0.1-0.1c0,0,0,0.1-0.1,0.1c0,0-0.1,0-0.1,0c0,0,0,0.1,0,0.1c0,0-0.1,0-0.1,0c0,0,0,0-0.1,0c0,0,0,0,0,0     c0,0-0.1,0-0.1,0c0,0,0-0.1,0-0.1c0,0-0.1,0-0.1,0c0,0,0-0.1-0.1-0.1c0,0,0,0.1,0,0.1c0,0-0.1,0-0.1,0c0,0-0.1,0-0.1,0     c0,0,0,0,0,0c0,0,0.1,0,0.1,0c0,0,0,0,0,0c0,0,0-0.1,0-0.1c0,0,0,0.1,0.1,0.1c0,0,0.1-0.1,0.1-0.1c0,0,0.2,0.2,0.2,0     c0,0-0.1,0-0.1,0c0,0,0-0.1,0-0.1c0,0,0,0,0,0c0,0,0,0,0.1,0c0,0,0,0.1,0.1,0.1c0,0,0,0,0,0c0,0,0,0,0,0c0,0,0,0.1,0,0.1     s0.1,0,0.1,0c0,0,0,0,0.1,0c0,0,0,0,0-0.1c0.1-0.1,0.1-0.1,0.1-0.2c0,0,0,0,0,0c0,0,0,0.1,0.1,0c0-0.1,0-0.1-0.1-0.2     c0,0,0-0.1,0-0.1c0,0,0,0,0,0c0,0,0-0.1-0.1-0.1c0,0-0.1,0,0,0c0,0,0.1,0.1,0.1,0c0.1-0.1-0.1,0-0.1,0c0,0,0,0,0,0c0,0,0,0,0,0     c0,0-0.1,0-0.1-0.1c0,0,0-0.1,0-0.1c0,0-0.2,0-0.2,0c0,0,0,0,0,0c0,0,0,0,0,0c0,0,0-0.1,0-0.1c0,0,0,0,0-0.1c0,0,0,0,0,0     c0,0,0,0,0,0c0,0,0,0,0,0c0,0,0,0,0-0.1c0,0,0,0,0-0.1c0,0,0,0,0,0c0,0,0,0,0,0c0,0,0,0,0,0c0-0.1-0.2-0.2-0.1-0.2     c0,0,0.1,0.1,0.1,0c0,0,0-0.1,0-0.1c0,0,0,0,0,0c0,0,0-0.1,0-0.1c0,0,0,0,0-0.1c0,0,0-0.1,0-0.1c0,0,0,0,0,0c0,0,0,0,0,0     c-0.1-0.1-0.2-0.1-0.1-0.1c0,0,0.1,0,0.1,0c0,0,0,0,0,0c0,0,0-0.1,0-0.1c0,0,0,0,0,0c0,0,0-0.1,0-0.1c0,0,0,0,0,0     c0,0,0.1,0,0.1,0c0,0,0,0,0,0c0,0,0,0,0,0c0,0,0,0,0,0c0,0,0.1-0.1,0.1-0.1c0,0-0.1,0-0.1,0c0,0,0.1,0,0.1,0c0,0,0,0,0-0.1     c0,0,0,0,0,0c0,0,0,0,0,0c0,0,0,0,0.1,0c0,0,0,0,0,0c0,0,0,0,0,0c0,0,0,0,0,0c0,0,0.1,0,0.1,0c0,0,0-0.1,0-0.1c0,0,0-0.1,0-0.1     c0,0,0.1,0.1,0.1,0c0,0-0.1-0.1,0-0.1c0,0,0.1,0,0.1,0c0,0,0,0,0-0.1c0,0,0.1,0,0.1,0c0,0,0,0,0-0.1h0c0,0,0,0,0,0c0,0,0,0.1,0,0     c0,0,0-0.1,0-0.1c0,0,0,0,0,0c0.1,0,0.1-0.2,0.1-0.3c0,0,0.1-0.2,0.1-0.2c0-0.1-0.2-0.1-0.2-0.2c0-0.1,0.2-0.1,0.1-0.2     c0,0,0-0.1-0.1-0.1c0,0,0,0,0,0c0-0.1,0.1,0,0.2-0.1c0,0,0,0,0,0c0,0,0,0,0,0c0,0,0-0.1,0-0.1c0,0,0,0,0,0c0,0,0.1,0,0.1,0     c0-0.1-0.1,0-0.1-0.1c0,0,0,0,0,0c0,0,0.1,0,0.1,0c0,0,0,0,0,0c0,0,0-0.1,0-0.1c0,0,0,0,0,0c0,0,0,0,0,0c0.1,0,0.1,0.1,0.2,0.1     c0,0,0-0.1,0-0.1c0,0,0.1,0,0.1,0c0,0,0,0,0,0c0,0,0,0,0.1,0c0,0,0,0,0-0.1c0,0,0-0.1,0.1,0c0,0,0,0.1,0,0.1c0,0,0.1,0,0.1,0     c0,0,0,0,0,0c0,0,0,0,0.1,0c0.1,0.1,0,0.2,0,0.3c0,0,0.1-0.1,0.1,0.1c0,0-0.1,0-0.1,0c0,0-0.1,0-0.1,0.1c0,0,0,0,0,0c0,0,0,0,0,0     c0,0,0,0.1,0,0.1c0,0,0,0,0,0.1c0,0-0.1,0.1-0.1,0.1c0,0,0,0.1,0,0.1c0,0.1-0.1,0-0.1,0.1c0,0,0,0,0,0c0,0.1-0.1,0.1-0.1,0.2     c0,0,0,0.1,0,0.1c0,0,0,0-0.1,0c0,0,0,0.1,0,0.2c0,0,0-0.1,0,0c0,0,0,0,0,0.1c0,0.2,0,0.1-0.1,0.1c0,0,0,0.1,0,0.1     c0,0,0-0.1,0-0.1c0,0-0.1,0-0.1,0c-0.1,0.1,0.1,0,0.1,0.1c0,0-0.1,0.1-0.1,0.2c0,0.3,0,0,0.1,0.1c0,0,0,0.1,0,0.1c0,0,0,0,0,0     c0,0,0,0,0,0.1c0,0,0,0,0,0c0,0,0,0,0,0c0,0.1,0,0.2,0,0.2c0,0,0,0,0.1,0c0,0,0,0.1,0,0.1c0,0,0,0,0,0c0,0,0,0,0,0c0,0,0,0,0,0     c0,0,0,0,0,0c0,0,0.1,0,0.1,0.1c0,0-0.1,0-0.1,0c0,0,0,0.1,0.1,0.1c0,0,0,0,0,0c0,0,0,0,0,0c0,0.1-0.1,0,0,0c0,0,0,0,0,0     c0,0-0.1,0-0.1,0c0,0.1,0,0.1,0.1,0.2c0,0,0,0,0,0c0,0,0,0,0,0.1c0.1,0.1,0,0,0.1,0c0,0,0,0.1,0,0.1c0,0,0.1,0,0.1,0     c0,0,0,0.1,0.1,0.1c0,0,0,0,0.1,0c0,0,0,0,0,0c0,0,0,0,0,0c0,0,0,0,0,0c0,0.1,0,0.1,0,0.1c0,0,0.1-0.1,0.1-0.1c0,0,0,0,0,0     c0,0.1-0.1,0.2,0,0.2c0,0,0.1,0,0.1,0c0,0-0.1,0.1,0,0.1c0,0,0-0.1,0.1-0.1c0,0,0,0,0,0.1c0,0,0,0-0.1,0.1c0,0,0,0,0,0     c0.2-0.1,0.1-0.2,0.2-0.2c0,0,0,0.1,0,0.1c0,0,0.1,0,0.1,0c0,0,0,0,0.1-0.1c0,0,0.2,0,0.2-0.1c0,0,0,0,0-0.1c0,0,0.1,0,0.1,0     c0,0,0,0,0,0c0,0,0,0,0,0c0,0,0,0,0,0c0,0,0,0,0,0c0,0,0.1-0.1,0.1-0.1c0,0,0-0.1,0-0.1c0,0,0.2,0.2,0.1,0c0,0-0.1,0-0.1-0.1     c0,0,0.1,0,0.1,0c0,0,0,0.1,0,0c0,0,0-0.2,0-0.2c0,0-0.1,0.2,0.1,0.1c0.2-0.1,0,0,0.1-0.1c0,0,0,0,0,0c0,0,0,0,0,0c0,0,0,0,0,0     c0,0,0.1,0.1,0.1,0.1c0,0,0.1,0,0.1-0.1c0,0,0,0,0,0l0,0c0-0.1,0.1-0.2,0.2-0.3c0.2-0.3,0.2-0.6,0.3-0.8c0.1-0.2,0.1-0.3,0.1-0.5     c0,0,0-0.1,0-0.1c0-0.1-0.5-0.3-0.6-0.3c0,0,0.2-0.3,0-0.4c0,0-0.1,0-0.2,0c-0.1-0.2,0-0.1,0-0.2c-0.1-0.1-0.1,0-0.2-0.1     c-0.1-0.1,0-0.1,0-0.1c0,0-0.1,0-0.1-0.1c0,0,0-0.2,0-0.2c-0.1-0.1,0,0,0-0.1c0,0-0.1-0.2-0.1-0.2c-0.1-0.1-0.2-0.2-0.3-0.3     c0,0-0.1-0.1-0.1-0.1c-0.1-0.1,0.2-0.5,0.1-0.6c0,0-0.1,0-0.1,0c-0.1,0-0.1-0.1-0.1-0.1c0,0-0.2,0-0.2,0c0,0,0-0.1-0.1-0.1     c-0.1-0.2,0-0.2,0-0.3c0-0.1-0.1,0-0.1,0c0,0,0.1-0.1,0.1-0.1c-0.2-0.1,0-0.2,0-0.3C15.3,17.6,15.2,17.7,15,17.5L15,17.5     C15.1,17.5,15.1,17.5,15,17.5C15,17.5,15,17.5,15,17.5z M14.4,19.4C14.5,19.4,14.5,19.4,14.4,19.4C14.5,19.4,14.5,19.4,14.4,19.4     z M14.4,20.6C14.4,20.6,14.4,20.6,14.4,20.6C14.4,20.6,14.4,20.6,14.4,20.6z M14.1,21.8C14.1,21.8,14.1,21.8,14.1,21.8     C14.1,21.8,14.1,21.8,14.1,21.8z M13.7,22.2C13.7,22.2,13.7,22.2,13.7,22.2C13.7,22.2,13.7,22.2,13.7,22.2     C13.7,22.2,13.7,22.2,13.7,22.2z M6.1,22.3C6.1,22.3,6.1,22.3,6.1,22.3C6.1,22.3,6.2,22.3,6.1,22.3C6.2,22.3,6.1,22.3,6.1,22.3z      M6.2,22.3C6.2,22.3,6.2,22.3,6.2,22.3C6.2,22.3,6.2,22.4,6.2,22.3c0,0.1,0,0.2,0,0.2C6.2,22.5,6.2,22.4,6.2,22.3     C6.2,22.3,6.2,22.4,6.2,22.3C6.2,22.3,6.2,22.3,6.2,22.3C6.2,22.3,6.2,22.3,6.2,22.3z M7.7,23.7C7.7,23.7,7.6,23.7,7.7,23.7     C7.6,23.8,7.7,23.8,7.7,23.7C7.6,23.8,7.6,23.8,7.7,23.7C7.6,23.8,7.6,23.8,7.7,23.7c-0.1,0.1-0.1,0.1-0.2,0.1c0,0,0,0,0,0     c0,0,0,0.1,0.1,0.1c0,0,0-0.1,0.1,0c0,0,0,0.1-0.1,0.2c0,0,0,0,0,0c0.1-0.1,0.1-0.1,0.1-0.2C7.6,23.9,7.7,23.9,7.7,23.7     C7.7,23.8,7.6,23.8,7.7,23.7C7.7,23.8,7.7,23.8,7.7,23.7C7.7,23.8,7.7,23.8,7.7,23.7C7.7,23.8,7.7,23.7,7.7,23.7     C7.7,23.7,7.7,23.8,7.7,23.7C7.7,23.7,7.7,23.7,7.7,23.7z M7.6,23.8C7.6,23.8,7.6,23.8,7.6,23.8C7.6,23.8,7.6,23.8,7.6,23.8     C7.6,23.8,7.6,23.8,7.6,23.8z M16.9,23.9C16.9,23.9,16.9,23.9,16.9,23.9C16.9,24,16.4,24,16.3,24c0,0,0,0,0,0     c-0.1,0,0.1,0.1,0,0.1c0,0,0-0.1-0.1-0.1c0,0,0,0,0,0.1c0,0,0,0.1-0.1,0.1c0,0-0.1,0-0.2,0c0,0,0,0,0,0c0,0,0,0.1,0,0.1     c0,0-0.2,0-0.2,0.1c0,0,0,0,0,0.1c0,0-0.2,0-0.2,0.1c-0.1,0.2,0.1,0.1,0.1,0.1c0,0-0.1,0.1,0,0.1c0,0.1,0.1,0.1,0.1,0.1     c0,0,0,0.1,0,0.1c0,0,0.1,0,0.1,0c0,0,0,0.1,0.1,0c0,0,0-0.2,0.1-0.1c0,0,0,0,0,0c0,0,0,0.1,0,0.1c0,0.1,0,0,0,0.1c0,0,0,0,0,0     c0,0.1,0.1,0.2,0.1,0.3c0,0.1-0.1,0.2-0.2,0.2c0,0,0,0-0.1,0c0,0-0.1,0-0.1,0c0,0,0-0.1-0.1-0.2c0,0-0.1-0.1-0.2-0.1     c0,0,0-0.1,0-0.1c0,0-0.1,0-0.1,0.1c0,0-0.1,0-0.2,0.1c-0.1,0.1,0,0.3-0.1,0.4c0,0-0.1,0.1-0.1,0.1c0,0,0,0.1,0,0.1     c0,0,0,0.1,0,0.1c0,0,0,0,0,0c0,0.1,0,0.2,0.1,0.3c0,0,0,0,0,0c0,0.1,0,0,0,0.2c0,0,0,0,0,0c0,0,0,0,0,0c0,0,0,0.1,0,0.1     c0,0,0,0.1,0,0.2h0c0,0,0-0.1,0-0.1c0,0,0-0.1,0-0.1c0,0,0,0.1,0,0.1c0,0,0,0.1,0,0.1c0,0,0,0,0,0c0,0,0,0,0,0v0c0,0,0,0,0,0     c0,0,0,0,0,0c0.1,0,0.2,0,0.2,0c0,0,0,0,0,0c0.1,0,0.1-0.1,0.2,0c0,0,0,0,0,0.1c0,0,0,0,0,0c0,0,0,0,0.1,0c0,0-0.1,0.2,0,0.3     c0,0,0,0,0,0c-0.2,0.1-0.9,0.2-1.2,0.1c-0.1,0.1-0.2,0.1-0.3,0.1c-0.1,0-0.1-0.1-0.1-0.2c0,0,0-0.1,0,0c0,0,0,0,0,0     c0,0-0.1,0-0.1,0c-0.2,0-0.4,0.1-0.5,0.2c0,0-0.1,0-0.1,0c-0.1,0.1-0.1,0.2-0.1,0.2c-0.2,0-0.4,0.1-0.5,0.2c0,0-0.1,0.1-0.1,0.1     c0,0,0,0-0.1,0c0,0,0.1,0.1,0,0.1c0,0,0,0-0.1,0c0,0,0,0,0,0l0,0c0,0-0.1,0-0.1-0.1c0,0,0-0.1,0-0.1c0,0,0,0,0,0c0,0-0.1,0-0.1,0     c0,0-0.1-0.1-0.1-0.1c0,0,0,0-0.1,0c0,0,0-0.1,0-0.1c0,0,0,0-0.1,0c-0.1,0-0.1,0-0.1,0c0,0,0,0.1-0.1,0.1c0,0-0.1,0-0.1,0.1     c0,0,0,0,0,0c0-0.1-0.1-0.1-0.2,0c0,0-0.1,0.1-0.1,0.2c-0.1,0.1-0.1-0.1-0.1-0.1c0,0-0.1,0-0.1,0c-0.2,0,0.2-0.1,0.1-0.3     c0-0.1-0.1,0.1-0.1,0.1c0,0-0.1-0.1-0.2-0.1c0,0,0,0.1-0.1,0.1c0,0,0-0.1,0-0.1c0,0-0.1,0-0.1,0c0,0,0,0,0.1-0.1c0,0,0-0.1,0-0.1     c0,0,0,0,0,0c0,0,0,0,0,0c0,0,0,0,0,0c0,0,0,0,0,0c0,0-0.1,0-0.1,0c0,0,0,0,0,0c0,0,0,0,0,0c0,0,0,0,0,0c0,0,0,0,0,0     c0,0,0-0.1,0.1-0.1c0,0,0.1,0.1,0.1,0c0,0,0-0.1-0.1-0.1c0,0-0.1,0-0.1,0c0-0.1,0.1-0.1,0.1-0.1c0,0,0,0,0,0c0,0,0-0.1,0-0.1     c0,0,0,0,0,0c0,0-0.1,0-0.1,0c0,0,0.1,0,0.1,0c0,0,0,0,0,0c0,0,0.1,0.1,0.1,0.1c0,0,0,0.1,0,0.1c0,0-0.1-0.1,0,0     c0.1,0-0.1,0,0,0.1c0,0,0,0,0.1,0c0,0,0.1,0,0.1,0c0.2,0,0.1-0.2,0.1-0.3c0-0.1,0.1,0.1,0-0.1c0,0,0,0,0,0c0,0,0,0-0.1-0.1     c-0.1,0-0.1,0.1-0.1,0.1c0,0,0,0,0,0h0v0c0,0-0.1,0-0.1-0.1c0,0,0.1,0,0.1,0c0.1,0,0.1,0,0.1-0.1c0,0,0-0.3,0.1-0.3     c0,0,0,0.1,0.1,0.1c0,0,0.2-0.2,0.1-0.2c0-0.1-0.1,0-0.2,0c0,0,0,0,0-0.1c0,0,0,0,0,0c0,0-0.1,0-0.1-0.1c0,0,0.1,0,0.1,0     c0,0,0,0,0-0.1c0,0,0-0.1,0-0.1c0,0-0.1,0-0.1,0c0,0,0,0-0.1,0c0,0,0,0.1,0,0.1c0,0,0,0,0,0c0,0-0.1,0-0.1,0c-0.1,0.1,0,0,0,0.1     c0,0,0,0,0,0.1c0,0,0,0,0,0c0,0,0,0,0,0.1c0,0,0,0,0,0c0,0-0.1,0-0.1,0c0,0,0.1-0.2,0-0.2c0,0-0.2,0.2-0.3,0.1c0,0,0-0.1,0-0.1     c0,0,0,0.2,0,0.2c0,0,0,0,0,0c0,0,0,0.1,0,0.1c0,0,0,0.1,0,0.1c0,0,0,0.1,0,0c0,0,0,0,0-0.1c0,0,0,0,0,0c0,0,0.1,0.2,0,0.1l0,0     c0,0.1,0,0.1,0,0.2c0,0.1,0.1,0,0.2,0.1c0,0,0,0.1,0,0.1c0,0,0,0.1,0,0.1c0,0,0,0,0,0.1c0,0,0,0.1,0,0.1c0,0,0,0.1,0,0.1     c0,0,0.1,0.1,0.1,0.1c0,0.1-0.1,0-0.1,0.1c0,0,0,0,0,0c0,0,0,0,0,0c0,0.1,0.1,0,0.1,0c0,0.1,0,0.2,0,0.2c0,0.1,0.1,0,0.1,0     c0.1,0,0.1,0.1,0.1,0.2c0,0,0.1,0,0.1,0.1c0,0.2-0.1-0.1-0.2-0.1c0,0,0-0.1-0.1-0.1c0,0-0.1,0-0.1,0c0,0,0,0-0.1,0c0,0,0,0,0,0     c-0.1,0,0,0.3-0.1,0.3c-0.1,0-0.1-0.2-0.2-0.2c0,0,0,0,0,0c-0.1,0-0.2,0-0.2,0c0,0,0.3,0,0,0c0,0-0.1,0-0.1,0     c0,0-0.1,0.2-0.1,0.2c0,0,0,0,0,0c0,0,0,0,0,0c0,0,0.1,0,0.1,0c0,0,0,0,0,0c-0.1,0-0.1-0.1-0.2-0.1c-0.1,0-0.5,0.1-0.5,0.1     c0,0,0,0.1-0.1,0.1l0,0l0,0c0,0-0.1,0-0.1,0c0,0,0,0,0,0c-0.1,0.1,0,0.2-0.1,0.3C9,29,9,29.1,8.9,29.2c0,0,0,0.1-0.1,0.1     c0,0,0,0-0.1,0c0,0,0,0.1,0,0.1c0,0.1-0.2,0-0.2,0.1c0,0,0.1,0.1,0.1,0.1c0,0,0,0,0.1,0c0,0,0.1,0,0,0c0,0-0.1,0-0.1,0     c0,0,0.1,0,0.1,0.1c-0.1,0.1-0.1-0.1-0.2-0.1c-0.1,0-0.2,0-0.2,0c0,0,0.2,0.1,0.2,0.1c0,0,0,0,0,0c0,0,0,0,0.1,0c0,0,0,0,0.1,0     c0,0,0,0,0,0c0,0,0,0,0,0c0,0,0,0-0.1,0c0,0-0.1,0-0.1,0c0,0,0,0-0.1,0c-0.1,0,0,0-0.1-0.1c0,0,0,0-0.1,0c-0.1,0-0.2,0.1-0.3,0.2     l0,0c-0.1,0-0.1,0-0.2,0c0,0-0.2,0-0.2,0.1c0,0,0,0.3,0,0.3c0,0,0,0,0,0c0,0,0,0,0,0c0,0,0,0,0,0c0,0,0.1,0,0,0.1     c0,0-0.1,0-0.1,0c0,0-0.1,0-0.1,0.1c-0.1,0-0.4,0.1-0.5,0.1c-0.1,0.1,0,0.1,0,0.2c0,0,0,0-0.1,0c-0.1,0-0.1,0.1-0.2,0.1     c0,0,0,0-0.1-0.1c-0.1,0-0.2,0-0.2-0.1c-0.2-0.1,0.1,0.1-0.1,0c0,0-0.1-0.2,0-0.2c0,0,0,0,0,0c0,0,0,0,0-0.1c0,0-0.1,0-0.1,0     c0,0,0,0,0,0c0,0-0.1,0-0.1,0c0,0,0,0,0,0c0,0,0,0.1,0,0.1c0,0,0,0,0,0c0,0,0,0.1,0,0.1c0,0,0,0,0,0c0,0,0,0.1,0,0.1c0,0,0,0,0,0     c0,0,0,0.1,0,0.1c0,0,0,0,0,0c0,0,0,0.1,0,0.1C6.3,31,6.4,31,6.4,31c0,0-0.1,0-0.1,0c0,0-0.1,0-0.1,0c0,0,0-0.1-0.1-0.1     c0,0,0,0.1,0,0.1C6,31.1,6,31,6,30.9c0,0,0,0-0.1,0c0,0-0.1,0-0.1,0c0,0,0,0,0,0c0,0-0.1-0.2-0.1-0.2c0,0,0,0,0,0     c0,0,0-0.1,0-0.1c0,0-0.1,0-0.1,0c0,0,0,0,0,0c0,0,0,0.1,0,0.1c0,0-0.1-0.1-0.1-0.1c0,0,0,0.1,0,0.1c0,0,0-0.1,0-0.1     c0,0-0.1,0-0.1,0c-0.1,0,0,0,0,0c0,0-0.2,0.1-0.2,0.1c-0.1,0.3,0.2,0,0.2,0.1c0,0-0.1,0-0.1,0c0,0,0.1,0,0.1,0c0,0,0,0,0,0     c0,0-0.1,0-0.1,0l0,0c0,0,0.1,0.1,0.1,0.1c0,0,0,0,0,0c0,0-0.1,0-0.1,0c0,0,0,0,0,0c0,0,0.1,0,0.1,0.1c0,0,0,0.1,0,0.1     c0,0,0.1,0,0.1,0c0,0,0,0,0,0c0.1,0,0,0,0.1,0.1c0,0,0,0,0.1,0c0,0,0.1,0.1,0.1,0.1c0,0,0,0,0.1,0c0.1,0,0.1,0.1,0,0.1v0     c0,0,0,0,0,0c0,0,0.1,0,0.1,0c0,0,0,0,0,0c0,0,0,0,0,0c0,0,0,0,0,0c0,0-0.1,0-0.1,0.1c0,0,0.2,0,0.2,0c0,0.1-0.2,0.2,0,0.2h0     c0,0,0,0,0,0.1c0,0,0.1,0,0.1,0.1c0,0-0.1,0.1-0.1,0.1c0,0,0,0.1,0.1,0.1c0,0,0,0,0,0c0,0,0,0.1,0,0.1c0.1,0.2,0,0,0.1,0.1     c0,0,0,0,0,0.1c0,0,0,0,0,0c0,0,0,0.1,0,0.1c0,0,0,0,0,0c0,0,0,0,0,0c0,0,0,0.1,0,0.1c0,0,0,0.1,0,0.1c0,0,0,0.1-0.1,0.1     c0,0,0.1,0.1,0.1,0.1c0,0-0.1,0-0.1,0c0,0,0.1,0,0.1,0.1c0,0,0.1,0.1,0.1,0.1c0,0.1,0,0.2,0,0.2c0,0,0.1,0,0.1,0.1     c0,0,0,0.1,0,0.1c0,0,0,0,0-0.1c0,0,0-0.1,0-0.1c0-0.2,0,0,0-0.2c0,0-0.1-0.2-0.1-0.1c-0.1,0-0.1,0.3-0.1,0.4c0,0-0.1,0.1,0,0.1     c0,0,0-0.1,0.1-0.1c0,0,0.1,0,0,0.1c0,0-0.1,0-0.1,0c0,0,0,0,0,0.1c-0.1,0.1-0.1,0.6-0.3,0.7c0,0,0,0-0.1,0c-0.1,0-0.2,0-0.3,0     c0,0,0,0-0.1-0.1c0,0-0.1,0-0.1,0c-0.1-0.1,0-0.1-0.1-0.1c0,0,0,0,0,0c0,0,0,0,0,0c0,0-0.1-0.1-0.2-0.1c0,0,0,0,0,0     c0-0.1-0.1,0-0.2-0.1c0,0,0,0-0.1,0c0,0,0,0,0,0c-0.2,0-0.5-0.1-0.6-0.2c0,0,0,0-0.1,0c0,0,0,0,0,0c0,0-0.1,0-0.1,0     c0,0,0-0.1-0.1-0.1c0,0-0.1,0-0.1,0c0,0,0,0-0.1,0c0,0-0.1,0-0.1,0c-0.1,0-0.1,0-0.2-0.1c0,0,0,0-0.1,0c-0.1,0-0.1-0.3-0.2-0.3     c0,0-0.1,0.1-0.1,0.1c0,0,0-0.1,0-0.1c0,0-0.1,0-0.1,0.1c-0.1,0-0.3,0.2-0.4,0.2c0,0-0.1,0-0.1,0c0,0,0,0,0,0c0,0,0.1,0,0.1,0     c0,0-0.1,0-0.1,0.1c0,0.2,0.2,0,0.2,0.2c0,0,0,0-0.1,0.1c0,0,0,0,0,0.1c0,0-0.1-0.1,0,0c0,0,0,0,0,0.1c0,0,0.1,0,0.1,0     c0,0-0.1,0-0.1,0c0,0,0,0.1,0,0.1c0,0,0.1,0,0.1,0c0,0,0,0,0,0c0,0-0.1,0-0.1,0.1c0,0,0,0,0,0c0,0,0,0,0,0c0,0,0.1,0.1,0,0.1     c0,0-0.1,0.1-0.1,0.1c0,0,0.1,0,0.1,0c0,0-0.1,0-0.1,0c0,0,0,0.2,0,0.3c0,0,0,0,0,0c0,0.1,0,0.1-0.1,0.2c0,0-0.1,0.1,0,0.1     c0,0,0-0.1,0.1-0.1c0,0,0,0,0,0.1c0,0-0.1,0-0.1,0.1C2,35.3,2,35.4,2,35.4c0,0,0,0,0,0.1c0,0,0,0,0.1,0.1c0,0,0,0,0,0     c0,0,0,0.1-0.1,0.1c0,0.1-0.1,0.2-0.2,0.2c0,0,0,0-0.1,0c0,0,0,0,0,0c0,0-0.1,0-0.1,0c0,0,0,0.1,0,0.1c0,0-0.2,0.2-0.1,0.3     c0,0,0,0.1,0.1,0.1c0,0.1,0,0.1,0,0.1c0,0,0.1,0,0.1,0c0,0,0,0,0,0c0,0,0,0,0.1,0c0,0,0-0.1,0,0c0,0,0,0.1,0,0.1c0,0,0.1,0,0.1,0     c-0.1,0.1-0.1-0.1-0.2-0.1c0,0,0,0,0,0.1c0,0,0,0.1,0,0.1c0,0.1-0.1,0.1-0.1,0.2c0,0,0,0,0,0.1c0,0,0,0.1,0,0.1c0,0,0,0,0,0     c0,0,0,0,0,0c0,0,0,0.1,0,0.2c0,0-0.1,0.2-0.1,0.2c0,0,0,0,0.1,0c0,0,0.1,0,0.1,0c0,0,0,0,0,0c0.1,0,0.3,0.2,0.4,0.2     c0,0,0.2-0.1,0.2-0.1h0.1c0.1,0,0.2,0,0.2,0c0,0,0,0.1,0.1,0c0,0,0,0,0,0v0l0.1,0.1c0,0,0,0,0.1,0.1c0,0,0,0.1,0,0.1     c0,0,0.1-0.1,0.1-0.1c0,0-0.1,0.1-0.1,0.1c0,0.1,0.1,0,0.1,0.1c0,0,0,0,0,0c0,0,0,0,0,0c0,0-0.1,0-0.1,0c0,0,0.1,0.2,0.1,0.2     c0,0,0,0,0.1,0c0,0,0,0.1,0,0.1c0,0,0,0,0.1,0c0,0,0,0,0,0c0,0,0.1-0.1,0.1-0.1c0,0,0,0,0.1,0c0-0.1,0-0.1,0.1-0.1     c0.1-0.1,0.2,0,0.3,0c0.1,0,0.1-0.1,0.1-0.1c0.1,0,0.3,0,0.4,0.1c0,0,0.1,0,0.1,0c0.1,0,0.1,0,0.2,0c0,0,0.1,0.1,0.2,0.1     c0,0,0,0,0.1-0.1c0.1,0,0.2,0.1,0.2,0.1C5,38.2,5,38,5.2,37.9c0.1-0.1,0.2-0.1,0.3-0.1c0,0,0,0,0.1,0c0,0,0.1,0,0.1,0     c0,0-0.1,0-0.1-0.1c0-0.2,0.1,0,0.1-0.1c0,0,0-0.1,0-0.1c0,0,0.1,0,0.1,0c0,0,0-0.1,0-0.1c0,0,0,0,0,0c0,0,0,0,0-0.1     c0,0,0.1,0,0.1,0c0,0,0,0,0,0c0,0,0,0,0,0c0,0,0.1,0,0.2-0.1c0,0-0.1-0.1-0.2-0.1C6,37,6,36.8,6,36.7c0.1-0.2,0.3-0.3,0.4-0.4     c0,0,0.1-0.1,0.1-0.2c0,0,0.2,0,0.2-0.1c0,0-0.1,0-0.1-0.1c0,0,0.1-0.1,0.1-0.1c0.1-0.1,0.4-0.1,0.6-0.1c0,0,0.1-0.1,0.1-0.1     c0,0,0.1-0.1,0.2-0.1c0.1,0,0.3-0.1,0.3-0.2c0-0.1,0-0.2,0-0.2c0,0,0.1,0,0.1-0.1c0,0,0-0.1,0-0.1c0,0-0.1,0-0.1-0.1     c0-0.1,0-0.1,0-0.2c0,0,0,0,0,0c0-0.1,0.1-0.1,0.1-0.1c0,0,0,0,0,0c0.1-0.1,0.2-0.1,0.2-0.1c0.1,0,0.1-0.1,0.2-0.2     c0,0,0.1,0,0.1,0.1c0,0,0.2,0,0.2,0c0,0-0.1,0.1,0.1,0.1c0,0,0,0,0,0c0,0,0,0,0,0c0,0,0.1,0,0.1,0c0,0,0-0.1,0-0.1     c0,0,0.1,0,0.1,0.1c0,0-0.1,0-0.1,0.1c0,0,0.1,0,0.1,0c0,0,0,0,0,0c0,0,0,0.1,0,0.1c0,0,0.1,0,0.1,0c0,0,0,0,0,0     c0.1,0,0,0.1,0,0.1c0,0,0,0,0,0c0,0,0,0,0,0c0,0-0.1,0,0,0c0.1,0,0.1,0.1,0.1,0.1c0,0,0.1-0.1,0.1-0.1c0,0,0.1,0,0.1,0     c0,0,0,0,0-0.1c0,0,0,0,0.1,0c0,0,0,0,0,0c0,0,0,0,0.1,0c0,0,0-0.1,0-0.1c0,0,0.1,0,0.1,0c0,0,0,0,0-0.1c0,0,0.1,0,0.1,0     c0,0,0,0,0,0c0,0,0,0,0,0c0,0,0.1,0,0.1,0c0.1,0,0.2,0,0.2-0.1c0,0,0.1-0.1,0.1-0.1c0,0,0.1,0,0.1,0c0,0,0,0,0-0.1     c0,0,0.1-0.1,0.2-0.1c0,0,0.1,0,0.2,0.1c0,0,0,0,0,0s0,0,0,0c0,0,0.2,0.1,0.2,0.1c0,0,0.1,0.1,0.1,0.1c0,0,0,0,0,0c0,0,0,0,0.1,0     c0,0,0,0,0,0c0,0,0,0,0,0c0.1,0.1,0,0.2,0.2,0.4c0.1,0.1,0.1,0.1,0.1,0.2c0,0,0,0.1,0,0.1c0,0,0.1,0,0.1,0c0,0,0,0.1,0,0.1     c0,0,0.1,0,0.1,0c0,0,0,0,0,0.1c0,0,0,0,0,0c0,0,0.1,0.1,0,0.1c0,0,0,0,0,0c0.1,0,0.2,0,0.2,0.1c0.1,0,0.1,0.1,0.1,0.2     c0,0,0,0,0,0c0,0,0.1,0,0.1,0.1c0.1,0.1,0,0,0.1,0.1c0,0,0.1,0,0.1,0.1l0.1,0.1c0,0,0.1,0,0.2,0c0,0,0,0.1,0.1,0.1     c0,0,0.1,0,0.1-0.1c0,0,0.1,0,0.1,0.1c0,0-0.1-0.1,0.1,0c0,0,0.2,0.2,0.2,0.2c0,0,0,0,0,0c0.2,0,0-0.1,0.2,0c0,0-0.1,0.1,0,0.1     c0.1,0,0.2-0.2,0.3,0c0,0,0,0.1,0.1,0.1c0,0-0.1,0.1,0,0.1c0,0,0.1,0,0.1,0c0,0,0.1,0,0.1,0.1c0,0,0,0,0,0c0.1,0,0.2-0.1,0.3,0.1     c0.1,0.1,0,0.1,0.1,0.2c0,0,0,0,0,0c0,0,0,0.1,0.1,0.1c0,0.1,0,0.1,0,0.2c0,0.1,0.1,0.1,0.1,0.2c0,0-0.2,0-0.2,0.1c0,0,0,0,0,0.1     c0,0,0,0,0,0.1c0,0,0,0.1,0,0.1c0,0-0.1,0-0.1,0c0,0.1,0,0.2,0.1,0.2c0.2,0.1,0.2-0.2,0.3-0.3c0,0,0.1,0,0.1-0.1     c0-0.1-0.1-0.2,0-0.2c0.1-0.1,0.3-0.1,0.3-0.2c0-0.2-0.1,0-0.1-0.2c0,0,0,0,0-0.1c0,0,0,0-0.1,0c-0.1,0-0.1-0.1-0.2-0.1     c-0.1,0-0.1,0-0.1,0c-0.1-0.1,0-0.1,0-0.2c0,0,0,0,0,0c0,0,0.1-0.2,0.1-0.3c0.1-0.1,0.1,0,0.2,0c0.1,0,0.2,0,0.3,0     c0.1,0.1,0,0.2,0.2,0.2c0,0,0.1,0,0.1,0c0,0,0-0.1,0-0.1c0,0,0.1,0,0-0.1c0-0.2-0.2-0.2-0.3-0.2c0,0,0,0,0-0.1     c0,0-0.2-0.1-0.3-0.1c-0.1,0-0.1-0.1-0.2-0.1c-0.2-0.1-0.4-0.1-0.6-0.2c-0.2-0.1,0.2-0.2,0.1-0.3c0,0-0.1,0-0.2,0     c-0.2,0-0.4,0.1-0.5-0.1c0,0,0,0,0,0c0,0-0.1,0-0.1,0c-0.1-0.1-0.2-0.2-0.3-0.3c-0.1-0.1-0.1-0.5-0.2-0.5c-0.1-0.1-0.1,0-0.1-0.1     c-0.1,0-0.4-0.3-0.4-0.3c0,0-0.1-0.3-0.1-0.3c0-0.1,0.2,0,0.1-0.2c0,0-0.1,0-0.1-0.1c0,0,0,0,0,0c0,0,0,0,0,0c0,0,0-0.1,0-0.1     c0,0,0,0,0,0c0,0,0-0.1,0-0.1c0,0,0,0,0,0c0,0,0,0,0,0c0,0,0,0,0-0.1c0,0,0,0,0.1,0c0.1,0,0.1-0.1,0.2-0.1c0,0,0.1,0,0.1,0     c0,0,0-0.1,0-0.1c0,0,0.1,0,0.1,0c0-0.1,0-0.1,0.1,0c0,0,0,0,0,0.1c0,0,0,0-0.1,0.1c0,0,0,0,0,0c0,0,0,0,0,0c0,0,0,0.1,0.1,0.1     c0,0,0,0,0,0c0,0,0,0.1,0,0.1c0,0,0,0,0,0c0,0,0.1,0.1,0.1,0.1c0,0,0,0.2,0.1,0.1c0,0,0-0.1,0.1-0.1c0,0,0,0,0,0c0,0,0,0,0,0     c0,0,0,0,0,0c0,0,0,0.1,0.1,0c0,0,0,0,0-0.1c0,0,0,0,0,0c0,0,0,0,0,0c0,0,0-0.1,0-0.1c0.1,0,0.1,0,0.2,0.1c0,0,0,0,0.1,0     c0.1,0.1,0,0.2,0.1,0.3c0,0,0.1,0.1,0.1,0.1c0,0,0.2,0,0.1,0.1c-0.1,0-0.2-0.1-0.2,0.1c0,0.1,0.2,0.2,0.3,0.2c0,0,0,0,0,0     c0,0,0.2,0.1,0.2,0.1c0,0,0,0.1,0,0.1c0,0,0.2,0,0.2,0c0.1,0,0,0,0.2,0.1c0,0,0.1,0,0.1,0c0.1,0,0.1,0.1,0.1,0.1     c0.1,0,0.1,0,0.1,0.1c0,0,0,0,0,0c0,0,0,0,0,0c0,0,0,0,0,0.1c0,0,0,0,0.1,0c0-0.1-0.2-0.1-0.2-0.2c0,0,0-0.1,0-0.1c0,0,0,0-0.1,0     c-0.1-0.1-0.2-0.2-0.3-0.2c0,0-0.1-0.1-0.2-0.1c0,0,0,0,0,0c0,0,0-0.1,0-0.1c0,0,0,0,0,0c0-0.1-0.1-0.1-0.1-0.2c0,0-0.1,0-0.1,0     c0,0-0.1-0.3,0.1-0.3c0,0,0.1,0.1,0.2,0.1c0.1,0,0-0.1,0.1-0.1c0.1-0.1,0.1,0,0.1,0c0,0,0,0,0-0.1c0,0,0,0,0.1,0.1c0,0,0,0,0,0     c0,0,0,0,0,0c0.1,0,0.2,0.1,0.3,0.1c0,0,0,0,0,0c0,0,0,0,0,0c0,0,0,0,0.1,0c0.1,0,0,0,0,0c0,0,0.1,0,0.1,0c0,0,0,0,0.1,0     c0,0,0,0,0,0c0.1,0,0.1,0.1,0.1,0.1c0,0,0.1,0,0.1,0c0,0,0,0,0-0.1c0,0,0,0,0,0c-0.1-0.1,0-0.1,0-0.1c0,0,0.1,0.1,0.1,0     c-0.1,0-0.1,0-0.2-0.1c0,0,0,0,0,0c0,0,0,0,0-0.1c0,0,0,0,0,0c0-0.1-0.1,0-0.1,0c0-0.1,0-0.1-0.1-0.2l0,0c0,0,0,0,0.1-0.1     c0,0,0,0,0.1,0c0,0,0.1-0.1,0.1-0.1c0.1-0.1,0,0,0.1,0c0,0,0.1,0,0.1,0c0,0,0,0,0.1,0c0,0,0,0.1,0.1,0.1c0,0,0.1,0,0.1,0     c0,0,0,0.1,0.1,0.1c0,0,0,0,0,0v0c0,0,0,0.1,0,0.2c0.1,0.1,0.2,0.1,0.3,0.1c0.1,0,0,0.1,0,0.1c0,0,0.1,0,0.1,0c0,0,0,0-0.1,0.1     c-0.1,0.1,0.1,0,0.1,0.1c0,0,0,0,0,0.1c0,0,0.1,0,0.1,0c0,0,0.1,0,0.1,0c0,0,0.1,0.1,0.1,0.1c0.2-0.1-0.3-0.3,0.3-0.1     c0,0-0.1,0-0.1,0.1c0,0.1,0.1,0.1,0.1,0.1c0,0,0,0.1,0,0.1c0,0-0.1,0-0.1,0.1c0,0.1,0.1,0.3,0.1,0.3c0,0,0.2,0.1,0.2,0.1     c0,0-0.1,0.2-0.1,0.2c-0.2,0.1,0-0.2-0.1,0.1c0,0,0,0.1,0,0.1c0,0,0,0,0,0.1c0,0,0,0,0,0c0,0,0,0,0,0c0,0.1,0,0.1-0.1,0.1     c0,0,0.1,0.1,0.1,0.1c0,0,0.1,0,0.1,0c0,0,0.1,0.1,0.1,0.2c0,0,0,0.2,0,0.3h0c0,0,0,0,0,0c0,0,0,0,0,0h0c-0.2,0,0,0.1-0.1,0.1     c0,0,0,0,0,0c0,0,0,0,0,0c0,0-0.2,0-0.3,0c-0.1,0-0.1,0.1-0.1,0.2c0,0-0.3,0.1-0.4,0.1c0,0.1,0.1,0.1,0.1,0.1     c0,0.2-0.1,0-0.1,0.2c0,0,0,0.2,0,0.2c0,0-0.2,0.1-0.2,0.1l0.1,0.1c0,0-0.1,0-0.1,0c0,0.1,0,0.1-0.1,0.1c0,0,0,0,0,0l0,0     c0,0.1,0.1,0.1,0.1,0.1c0,0,0,0.1,0,0.1c0.1,0,0.2,0.1,0.2,0.2c0,0,0,0,0,0.1c0,0,0,0,0,0c-0.1,0.2,0,0,0.1,0.1c0,0,0,0.1,0,0.1     c0,0,0,0,0,0c0,0,0.1,0,0.1,0.1c0,0.1,0,0.1,0,0.1c0,0,0,0,0,0c0,0,0.1,0,0.1-0.1c0,0,0,0,0,0c0,0,0,0.1,0.1,0.1     c0.1,0,0.1-0.1,0.2-0.1c0,0,0.2,0,0.2,0c0,0,0-0.1,0-0.1c0.1-0.1,0,0.1,0.1,0.1c0,0,0-0.1,0-0.1c0,0,0,0.1,0.1,0.1     c0.1,0,0.1,0,0.1,0c0,0,0,0,0,0c0,0,0,0,0,0c0,0,0.1,0,0.1,0c-0.1,0.2-0.2,0-0.2,0.1c0,0,0.1,0,0.1,0c0,0,0,0-0.1,0     c0,0-0.1-0.1-0.1-0.1c-0.1,0-0.2,0-0.3,0c-0.1,0-0.1-0.1-0.2,0c-0.1,0.1,0,0.1-0.1,0.1c0,0-0.1,0-0.1,0c0,0,0,0,0,0c0,0,0,0,0,0     c0,0.1,0,0.1-0.1,0.2c0,0,0,0,0,0c-0.1,0.1,0.1,0.1,0.1,0.1c0,0,0,0.1,0,0.1c0,0,0,0,0,0c0.1,0,0.2,0.1,0.2,0.2     c0,0.1-0.1,0-0.1,0.1c0,0.1,0,0.1,0.1,0.1c0,0,0,0,0,0c0,0,0,0.2,0.1,0.1c0.1,0-0.1-0.3,0.1-0.2c0,0,0,0,0.1,0.1     c0,0,0,0.1,0.1,0.1c0,0,0,0,0,0c0,0.1,0,0.2,0.1,0.2c0,0,0,0,0,0c0-0.1,0-0.2,0-0.2c0.1-0.2,0.2,0,0.2,0.1c0,0,0,0,0,0     c0,0,0,0,0,0c0,0,0.1,0,0.1,0c0,0-0.1-0.1-0.1-0.1c0,0,0,0,0,0c0,0,0,0,0,0c0,0,0.1,0,0,0c0,0-0.1-0.1-0.1-0.2c0,0,0,0,0,0     c0,0,0,0,0-0.1c0,0-0.2-0.2-0.1-0.2c0,0,0.1,0,0.1,0c0,0,0,0,0,0c0,0,0,0,0,0c0,0,0.1,0,0.1,0c0,0,0.1,0,0.1,0     c0-0.1-0.1,0-0.2-0.1c0,0,0,0,0-0.1c0,0,0,0,0,0c0,0,0,0,0,0c0,0-0.1,0-0.1,0c0,0,0.2-0.1,0.2-0.1c0,0,0-0.1,0.1-0.1     c0,0,0.1,0.1,0.1,0.1c0,0,0,0,0,0c0,0,0.1,0,0.1,0c0,0,0,0,0,0c0,0,0,0,0,0c0.1-0.1,0-0.1,0-0.1c0,0,0,0,0-0.1c0,0,0,0,0-0.1     c0,0,0.1,0,0-0.1c-0.1-0.1-0.1,0-0.2,0c-0.1,0-0.1-0.1-0.1-0.1c0,0-0.1,0-0.1,0c0,0,0-0.1,0-0.1c0,0-0.1,0-0.1,0     c0,0,0-0.1-0.1-0.1c0,0-0.1,0-0.1,0c0,0,0,0,0,0c0,0,0,0,0,0c0,0,0,0,0,0c0,0-0.1,0,0,0c0.1,0,0.2,0,0.2-0.1     c0.1-0.1,0-0.1-0.1-0.1c0,0,0,0,0,0c0,0,0,0,0,0c0,0,0-0.1,0-0.1c0,0,0,0,0,0c0,0,0.2,0.1,0.2,0.1c0-0.1-0.2-0.2-0.2-0.2     l-0.1-0.1c-0.1-0.1-0.2-0.1-0.2-0.2l0-0.1c0,0-0.1,0,0-0.1c0,0,0-0.1,0.1-0.1c0,0,0.1-0.1,0.1-0.1c0,0.1-0.1,0.1,0,0.2     c0.1,0,0.2,0,0.2,0.1c0,0,0,0.2,0,0.2c0,0,0.2,0,0.2,0c0,0-0.3-0.1-0.2-0.2c0,0,0,0,0.1,0c0,0,0,0,0.1,0c0.1,0,0.1,0.1,0.2,0.2     c0,0,0-0.1,0-0.1c0,0-0.2,0-0.2-0.1c0-0.1,0.2-0.1,0.2,0c0,0,0.2,0.2,0.1,0.1c0-0.1-0.1-0.1-0.2-0.1c0,0,0,0,0,0c0,0,0,0,0,0     c0,0,0,0,0,0c0,0,0,0,0,0c0,0,0-0.1-0.1-0.1c0,0-0.1,0,0,0c0.1-0.1,0.1,0,0.2,0c0.1,0,0.1-0.1,0.1-0.2c0.1-0.1,0.1,0.1,0.2,0     c0,0,0.1,0,0.1-0.1c0.1-0.1,0.1,0,0.3,0c0,0,0.2-0.1,0.2,0c0.1,0.1-0.1,0.1,0,0.1l0-0.1c0,0,0.1-0.1,0.1-0.2l0-0.1     c0-0.1,0.1-0.1,0.1-0.1c0.1-0.1-0.1-0.2-0.2-0.2h0c0,0,0,0,0,0c0,0,0,0,0,0c0-0.1,0.1-0.1,0.1-0.1c0,0,0-0.1,0-0.1     c0,0,0.1,0,0.1,0l0.1-0.1c0.1-0.1,0.1,0,0.3,0.1c0,0,0,0,0,0c0,0,0.1-0.1,0.1-0.1c0,0,0.1,0,0.1,0h0c0,0,0,0,0,0     c0,0-0.1-0.1-0.1-0.1c0,0,0,0,0,0c-0.1-0.1-0.3,0-0.2-0.1c0,0,0.1,0,0.1-0.1c0,0,0,0,0,0c0,0,0,0,0,0c0,0,0,0,0,0     c0,0,0.1,0,0.1,0s0-0.1,0-0.1c0-0.1,0-0.1,0-0.2c0,0,0,0,0,0c0,0,0,0,0,0c0.1-0.1-0.1-0.1,0.1-0.1c0,0,0,0,0.1,0c0,0,0-0.1,0-0.2     c0-0.2-0.1-0.3-0.1-0.4c0,0,0.1-0.2,0.1-0.2c0,0,0,0,0,0c0,0,0,0,0,0c0,0,0,0,0,0c0,0,0-0.1,0.1-0.1c0,0,0.2,0,0.2-0.1     c0,0,0-0.2,0-0.2c0,0,0,0,0,0c0,0,0,0,0,0c0,0,0,0,0,0c0-0.1-0.1-0.1-0.2-0.1c-0.1,0-0.1,0.1-0.1,0.1c0,0-0.1,0-0.1,0     c0,0,0,0,0,0c0,0-0.2,0-0.2,0c0,0,0,0,0-0.1c0,0,0,0,0,0c0,0,0,0,0,0c0,0,0,0,0,0c0,0,0,0,0,0c0-0.1-0.1-0.2-0.1-0.2     c0-0.1,0-0.3,0-0.4c0-0.2-0.4-0.4-0.6-0.5c-0.1-0.1-0.1-0.2-0.2-0.3c-0.1,0-0.1-0.1-0.2,0c0,0,0,0,0,0l0,0l0,0c0,0-0.1,0-0.1,0.1     c-0.1,0.1,0.1,0,0,0.1c-0.1,0.1-0.3,0.1-0.4,0.1c0,0,0,0.2-0.1,0.1c-0.1,0-0.1-0.1-0.2-0.1c0,0-0.1,0-0.1,0.1c-0.1,0-0.2,0-0.3,0     c0,0,0,0,0,0c0,0-0.1-0.1-0.2-0.1c0,0,0,0,0,0c0,0.1-0.1,0.1-0.1,0.1c-0.1,0,0,0,0-0.1c0,0,0,0,0,0c0,0,0,0-0.1,0     c0,0,0-0.1-0.1-0.1c0,0,0,0,0,0c-0.1,0,0-0.1-0.1-0.1c0,0,0-0.1,0-0.1c0,0,0,0,0.1-0.1c0,0,0-0.1,0-0.1c0,0,0-0.1,0-0.2     c0,0,0,0,0,0c0,0,0,0,0.1,0c0,0,0,0,0,0c-0.1-0.2,0,0-0.1-0.1c0,0,0-0.1,0-0.1c0,0-0.1-0.1-0.1-0.1c0,0,0.3-0.6,0.3-0.6     c0.1-0.1,0.1,0,0.2-0.1c0,0-0.1-0.1-0.1-0.1c0,0,0.1,0,0.1-0.1c-0.1-0.1-0.2-0.1-0.3-0.2c0,0,0-0.1,0-0.1c0,0-0.1-0.1-0.1-0.1     c0-0.1,0.1-0.2,0-0.3c0,0-0.1,0-0.1,0c0,0,0,0,0,0c-0.1-0.1,0.2-0.3,0.2-0.3c0,0,0,0,0,0c0-0.3-0.2-0.5-0.3-0.7     c0.1,0,0.2,0,0.2-0.1c0,0,0.1,0.1,0.1,0c0,0,0-0.1,0.1-0.1c0,0,0.1,0,0.1,0c0,0,0-0.1,0-0.1c0,0,0.1,0,0.1,0c0.1,0,0,0,0-0.1     c0,0,0.1-0.1,0.1,0c0,0,0,0,0,0c0,0,0.1,0,0.1,0c0-0.1-0.1-0.1-0.1-0.1c0,0,0-0.2,0-0.2l0-0.1c0,0,0,0,0,0c0.1-0.2,0,0,0.1-0.1     c0,0,0-0.1,0-0.1c0,0,0.1,0,0.1,0c0,0,0,0,0-0.1c0,0,0,0,0,0c0-0.1-0.1,0-0.1,0c0-0.1,0-0.1,0-0.2v0c0.1,0,0.1-0.2,0.2-0.2     c0,0,0,0,0.1,0c0,0,0,0,0,0c0,0,0.1,0,0.1,0c0,0,0-0.1,0-0.2c0,0,0.1-0.1,0.1-0.1c0-0.1-0.1-0.3-0.2-0.3c0,0,0-0.1,0-0.1     c0,0,0,0-0.1,0c0,0,0,0,0,0c0,0,0,0,0,0c0,0,0-0.1,0-0.1c0,0,0,0,0,0c0-0.1,0.1-0.1,0-0.2c0,0,0,0-0.1,0c0,0,0-0.1,0-0.1     c0,0,0,0-0.1,0c0,0,0-0.1,0-0.1c0,0,0,0,0,0c0,0,0,0,0,0c0,0,0,0,0,0c0.1,0,0.1,0,0.1-0.1c0,0,0,0-0.1,0c0,0,0-0.1,0-0.1     c0,0-0.1-0.1-0.1-0.1c0-0.1,0,0,0-0.1c0-0.1-0.1-0.2-0.1-0.3c0-0.1,0.1-0.1,0.1-0.1l0-0.1c0,0,0-0.1,0-0.1     C17,23.9,17.1,24,16.9,23.9L16.9,23.9z M6.9,24.4c-0.2,0,0.1,0.3,0.2,0.2c0,0,0,0-0.1,0C6.9,24.5,6.9,24.5,6.9,24.4     C6.9,24.5,6.9,24.5,6.9,24.4C6.9,24.5,6.9,24.4,6.9,24.4z M15.3,24.5C15.3,24.5,15.3,24.5,15.3,24.5     C15.3,24.6,15.3,24.6,15.3,24.5c-0.1,0.1-0.2,0.1-0.2,0.1c0,0,0.1,0,0.1,0c0,0,0,0.1,0.1,0.1c0.2-0.1,0,0,0.1-0.1     C15.4,24.6,15.6,24.7,15.3,24.5C15.4,24.6,15.3,24.6,15.3,24.5C15.3,24.6,15.3,24.5,15.3,24.5C15.3,24.5,15.3,24.5,15.3,24.5z      M5.8,24.6C5.7,24.6,5.7,24.6,5.8,24.6C5.7,24.7,5.7,24.7,5.8,24.6c-0.1,0.1-0.1,0-0.2,0.1c0,0,0,0.1,0,0.1c-0.1,0-0.1-0.1-0.1,0     c0,0,0,0,0,0.1c0,0,0,0,0,0c0,0,0,0,0,0c0,0,0.1,0,0.1,0.1c0,0-0.1,0-0.1,0c0,0,0,0.1,0,0.1c0,0,0-0.1,0.1-0.1c0,0,0,0,0,0     c0,0,0-0.1,0-0.1c0,0,0,0.1,0.1,0.1c0.1,0,0.1-0.1,0.1-0.2C5.7,24.8,5.8,24.7,5.8,24.6C5.8,24.7,5.8,24.6,5.8,24.6     C5.8,24.6,5.8,24.6,5.8,24.6z M6.2,24.6C6.2,24.7,6.2,24.7,6.2,24.6c-0.1,0.1,0,0.1,0,0.1c0,0,0,0,0,0c0,0,0,0,0,0     c0,0-0.1-0.1,0,0c0,0,0.1,0.1,0.1,0.1c0,0-0.1,0-0.1,0c0,0,0,0,0,0c0,0,0,0.1,0,0.1c0,0-0.1,0-0.1,0C6,25,6,25,6,25.1     c0,0,0,0-0.1,0c-0.1,0,0,0.1,0,0.1c0,0,0-0.1-0.1-0.1c-0.1,0,0.1,0.2,0.1,0.2c0,0,0,0,0,0.1c0,0,0,0.1,0,0.1c0,0-0.1,0-0.1,0     c0,0,0.2,0.1,0,0.1c0,0-0.1,0-0.1,0c-0.1,0,0,0.1,0,0.1c0,0-0.1,0-0.2,0c0,0.1,0.3,0.1,0.2,0.1c0,0-0.1,0-0.1,0c0,0-0.1,0,0,0     c0,0,0,0,0,0.1c0,0,0,0,0,0c0,0,0,0,0-0.1c-0.2,0.1,0.1,0,0,0.1c-0.1,0.2,0,0-0.1,0.1c0,0,0,0,0,0c0,0.1,0.2,0,0.3,0c0,0,0,0,0,0     c0,0,0,0,0,0c0,0,0.1,0,0.2-0.1c0,0,0,0,0.1,0c0,0,0.1,0,0,0c0,0-0.1,0-0.1,0.1c0,0,0.1,0,0.1,0c0,0-0.2,0-0.2,0.1     c0,0,0.1,0,0.1,0c0,0,0,0-0.1,0c0,0,0,0-0.1,0.1c0,0,0,0.1,0,0.2c0,0-0.1,0.1-0.1,0.1c0,0,0-0.1,0.1,0c0.1,0-0.1,0.1-0.1,0.1     c0,0,0.1,0,0.1,0l-0.1,0.1c0,0,0,0.1,0,0.1c0,0-0.1,0.1-0.1,0.1c0,0,0.1,0,0.1,0c0,0,0,0,0,0c0,0,0.1-0.1,0.1-0.1c0,0,0,0,0,0     c0,0,0,0,0,0c0,0,0.1,0,0.1,0c0-0.1-0.1-0.1,0-0.2c0,0,0.2-0.1,0.2-0.1c0,0,0,0,0,0.1c0,0,0,0.1,0,0.1c0,0,0.2,0.1,0.1,0.1     c0,0-0.1-0.1-0.1,0c0,0,0,0.1,0,0.1c0,0,0,0,0,0c0,0,0.1,0.1,0.1,0.2c0,0,0,0-0.1,0c-0.2,0.1,0.1,0-0.1,0.1     c-0.1,0.1-0.1,0.1-0.1,0.2c0,0-0.1,0-0.1,0c0.2,0.1,0-0.1,0.2,0.1c0,0,0,0.1,0.1,0.1c0-0.1,0-0.2,0-0.1C6,26.9,6,27,6,27     c0,0,0,0,0,0c0,0,0,0,0,0c0,0,0,0,0,0c0,0,0,0,0,0c0,0,0,0,0.1,0c0,0,0.1,0,0.1,0c0,0,0,0,0.1-0.1c0,0,0,0,0.1,0c0,0,0.1,0,0.1,0     c0,0-0.1,0-0.1,0.1c0,0,0,0,0,0c0,0-0.2,0.2-0.2,0.2l0.1,0.1c0,0,0,0.1,0,0.1c0,0,0-0.1,0.1,0c0,0,0,0.1,0,0.1     c0.1,0,0.1-0.1,0.1-0.1c0,0,0,0.1-0.1,0.1c0,0,0,0,0,0c0,0.1-0.2,0-0.1,0.1c0,0,0.1,0,0.1,0.1c0,0,0,0-0.1,0c0,0-0.1,0-0.1,0.1     c0,0,0,0.1,0,0.1c0,0,0,0-0.1,0c0,0,0,0.1,0,0.1c0,0,0-0.1-0.1-0.1c0,0-0.1,0-0.1,0c0,0-0.1,0-0.1,0c0,0,0,0,0,0     c-0.1,0-0.1,0-0.1,0c0,0,0,0-0.1,0c0,0,0,0,0,0c0,0,0,0,0,0.1c-0.1,0-0.2,0.1-0.2,0.1c0,0.2,0.1-0.1,0.2,0c0,0,0,0.2,0,0.2     c0,0.1-0.2,0.2-0.3,0.2c0,0,0,0-0.1,0c0,0,0,0.1-0.1,0.1c0,0-0.2,0-0.2,0.1c0,0,0,0.1,0,0.1c0,0,0.1,0,0.1,0c0,0,0,0,0,0     c0,0-0.1,0-0.1,0c0,0,0,0,0.1,0.1c0,0,0.1,0,0.1,0c0,0,0,0,0,0c0.1,0,0.1,0,0.1,0c0,0,0,0,0,0c0,0,0,0.2,0,0.2c0,0,0.1-0.1,0.2,0     c0,0,0,0.1,0.1,0.2c0.1,0.1,0.1,0,0.2-0.1c0,0,0,0,0,0c0,0,0,0,0.1,0c0,0,0.2-0.1,0.1-0.1c0,0-0.3,0.2-0.3,0.2c0,0,0,0.1,0,0.1     c-0.1,0.1-0.2-0.1-0.3-0.1c-0.3,0-0.1,0.1-0.3,0.1c0,0,0,0-0.1,0c0,0,0,0.1,0,0.1c0,0-0.1,0-0.1,0.1c0,0,0,0,0,0c0,0,0,0-0.1,0     c0,0,0,0.1-0.1,0.1c0,0,0,0,0,0c0,0,0,0,0,0c0,0,0,0-0.1,0c0,0-0.2,0-0.2,0c0,0.1,0.1,0,0.1,0.1c0,0,0,0.1,0,0.1     c0,0,0.1-0.1,0.1-0.1c0,0,0,0,0,0c0,0,0.1,0,0.1,0c0,0,0-0.1,0-0.1c0.1,0,0.2,0,0.2,0.1c0.1,0,0,0,0,0c0,0,0.1,0.2,0.2,0.1     c0.1,0,0.1-0.3,0.1-0.3c0.1,0,0.3,0,0.3,0.1c0,0,0,0,0.1,0.1c0,0,0,0.1,0,0c0,0,0-0.1,0-0.1c0,0,0.1,0,0.1,0.1h0c0,0,0,0,0,0     c0,0,0-0.1,0-0.1c0,0,0.3,0,0.3,0c0,0-0.1-0.1,0-0.1c0,0,0.1,0.1,0.1,0.1c0,0,0-0.1,0,0c0,0,0,0,0,0c0,0,0,0,0,0c0,0,0,0,0,0     c0,0,0,0,0,0c0,0,0-0.1,0,0c0,0,0,0,0,0c0,0.1,0.3,0,0.3,0c0,0,0.1,0.1,0.2,0.1c0,0,0,0,0.1,0c0.1,0,0.1,0,0.2,0c0.1,0,0,0,0.1,0     c0,0,0-0.1,0-0.1c0,0,0.1,0,0.2-0.1c0,0,0-0.1,0-0.1c0,0,0.1,0,0,0c-0.1,0-0.1,0-0.2,0c-0.1,0,0.1,0,0-0.1c0,0,0,0-0.1,0     c0,0,0,0,0,0c0,0,0,0,0,0c0-0.1-0.1,0-0.1,0c0,0,0,0,0,0c0.1,0,0.2,0,0.2,0c0,0,0-0.1,0-0.1c0,0-0.1,0-0.1,0c0,0,0.1,0,0.1,0     c0,0,0,0,0,0c0,0,0,0,0,0c0.2-0.1,0,0,0-0.1c0,0,0.1,0,0.1,0c0.1,0,0.2-0.2,0.2-0.3c0-0.3-0.2-0.3-0.4-0.4c-0.1,0,0,0-0.1,0.1     c0,0,0,0-0.1,0c0,0,0,0,0-0.1c0,0,0,0,0,0c0-0.1,0.1,0,0.1-0.1c0.1-0.1-0.1-0.3-0.1-0.3c0-0.1,0.1,0,0.1-0.1     c0-0.1-0.1-0.2-0.1-0.3c0,0,0.1,0,0.1-0.1c0-0.1-0.1,0-0.1-0.1c0,0,0-0.1,0-0.1c-0.1-0.1-0.1-0.1-0.1-0.1c0,0,0,0-0.1,0     c0,0,0,0,0,0C7,27.3,7,26.9,7,26.8c0,0,0-0.1,0-0.1c0,0,0,0,0,0c0,0,0,0-0.1,0c0,0,0-0.2-0.1-0.2c0,0-0.2-0.2-0.2-0.1     c0,0,0,0,0,0.1c0,0-0.1,0-0.2,0c0,0,0,0,0,0c0,0,0-0.1,0-0.1c0.3,0,0,0,0.2-0.1c0,0,0.1,0.1,0.1,0c0,0-0.1,0-0.1-0.1     c0,0,0,0,0-0.1c0,0,0,0,0,0c0.1,0,0.3-0.3,0.3-0.4c0,0,0,0,0,0c0,0,0,0,0-0.1l0.1-0.1c0,0,0-0.1,0-0.1c0-0.1-0.3-0.1-0.4-0.1     c0,0-0.1,0-0.1,0c-0.1,0-0.1,0-0.2,0c0,0-0.1,0-0.1,0c0,0,0,0,0,0c0,0-0.1,0-0.1-0.1c0,0,0,0,0.1,0c0,0,0,0,0,0c0,0,0,0,0,0     c0,0,0,0,0,0c0,0,0.1,0,0,0c0,0-0.2,0-0.1,0c0.1,0,0.4-0.2,0.4-0.2c0,0,0-0.1,0-0.1c0,0,0.1-0.1,0.1-0.1c0,0-0.1,0-0.1,0     c-0.1,0-0.3,0-0.3,0c0,0,0,0.1,0,0c0,0,0-0.1,0-0.1C6.3,24.7,6.3,24.7,6.2,24.6C6.3,24.7,6.2,24.6,6.2,24.6z M5.7,28l0-0.2     C5.6,27.9,5.7,27.9,5.7,28C5.7,28,5.7,28,5.7,28C5.7,28,5.7,28,5.7,28z M5.7,27.8L5.8,28C5.9,28,5.8,27.9,5.7,27.8z M15.5,24.8     c-0.1,0-0.2,0-0.2,0.1c0,0,0,0,0,0c0,0,0,0.1,0,0.1c0,0-0.1-0.1-0.1,0c0,0,0.1,0,0.1,0.1c0,0,0,0,0,0c0,0,0.1,0,0.1,0.1     c0,0,0,0,0,0c0,0.1-0.1,0.1,0,0.2c0,0,0.1,0,0.1-0.1c0,0,0-0.1,0-0.1c0,0,0,0,0,0c0,0,0.1,0,0.1,0c0,0,0,0,0,0c0,0,0.1,0,0.1,0     c0,0,0,0,0-0.1c0,0,0,0,0,0C15.5,24.9,15.5,24.9,15.5,24.8C15.5,24.9,15.5,24.9,15.5,24.8C15.5,24.9,15.6,24.9,15.5,24.8     C15.5,24.8,15.5,24.8,15.5,24.8z M15.6,24.9C15.6,24.9,15.6,24.9,15.6,24.9C15.6,24.9,15.6,24.9,15.6,24.9z M14.1,25.4     C14.1,25.4,14.1,25.4,14.1,25.4c0,0-0.2,0.2-0.2,0.3c0,0,0,0.1,0,0.1c0,0,0,0.1,0,0.1c0,0,0,0.1,0.1,0.1c0,0,0,0,0,0c0,0,0,0,0,0     c0,0,0,0.1,0,0.1c0,0,0,0,0.1-0.1c0-0.1,0-0.1,0.1-0.1c0.1-0.1,0,0,0-0.1c0,0,0.1,0,0.1-0.1c0,0-0.1,0-0.1-0.1     C14.2,25.5,14.3,25.5,14.1,25.4C14.2,25.4,14.2,25.4,14.1,25.4z M11.3,25.7C11.3,25.7,11.3,25.8,11.3,25.7     c-0.1,0.1-0.2,0.1-0.2,0.1c-0.1,0.1-0.1,0.2-0.2,0.3c-0.1,0-0.2,0-0.3,0c-0.1,0-0.2,0.3,0,0.3c0,0,0-0.1,0-0.1     c0.1-0.3,0-0.1,0.1-0.1c0,0,0,0,0,0c0,0,0.1,0,0.1,0c0,0,0,0,0,0c0,0,0.1,0,0.1,0c0,0,0.2,0,0.2,0c0,0,0.1,0,0.1,0     c0.1,0,0.1-0.2,0.1-0.3C11.3,25.9,11.3,25.9,11.3,25.7C11.3,25.8,11.4,25.7,11.3,25.7z M13.6,25.8C13.6,25.8,13.6,25.8,13.6,25.8     c-0.1,0.1-0.1,0.1-0.1,0.2c0,0.1-0.1,0.2-0.1,0.3c0,0,0,0.2,0,0.2c0.1,0,0-0.2,0-0.2C13.5,26.2,13.6,25.9,13.6,25.8z M6.6,26.1     C6.6,26.1,6.6,26.1,6.6,26.1C6.6,26.1,6.6,26.1,6.6,26.1C6.5,26.1,6.5,26.1,6.6,26.1C6.5,26.1,6.5,26.1,6.6,26.1z M4.6,26.5     C4.6,26.5,4.5,26.5,4.6,26.5c-0.3,0.1-0.1,0-0.1,0.1c0,0,0,0,0,0c0,0,0.1,0,0,0.1c0,0-0.1,0-0.1,0c0,0,0.1,0,0,0.1     c0,0-0.1-0.1-0.2,0c0,0.1,0.1,0.1,0.1,0.1c0,0,0,0,0,0c0,0,0,0,0,0c0.1,0,0-0.1,0.1,0c0,0,0.1,0,0.1,0c0,0-0.1,0.1-0.1,0.1     c0,0-0.1,0-0.2,0c0,0,0,0.1,0,0.1c0,0-0.1-0.1-0.2-0.1c0,0,0,0.1-0.1,0.1c0,0,0-0.1,0-0.1c0-0.1-0.3-0.1-0.3-0.1c0,0,0,0,0,0     c0,0-0.1,0,0,0.1c0,0,0.1-0.1,0.1,0c0,0,0,0.1,0,0.1c0,0,0.1,0.1,0,0.1c0,0-0.1,0-0.1,0c0,0,0.2-0.1,0.1,0.1c0,0,0,0,0,0     c0,0-0.1,0-0.1,0c0,0-0.1,0-0.1,0.1c0,0,0,0,0,0c0,0-0.2-0.1-0.1,0.1c0,0.1,0.2,0,0.2,0.1c0,0.1-0.1,0.1,0,0.1c0.1,0,0.2,0,0.2,0     c0,0,0,0,0,0s0,0,0,0c0,0-0.1,0-0.1,0c0,0,0,0,0,0c0,0,0,0,0,0c0,0-0.1,0-0.1,0.1c0,0,0.1,0,0,0c0,0,0,0,0,0c0,0,0,0.1,0,0.1     c0,0,0,0,0,0c0,0-0.1,0-0.1,0.1c0,0,0,0,0,0c0,0,0.2,0,0.2,0c0,0,0,0,0,0c0,0,0,0,0,0c0,0,0,0,0.1,0c0,0,0,0,0,0     c-0.1,0-0.1,0-0.1,0c0,0,0,0,0,0c0,0-0.1,0-0.1,0c0,0,0.1,0.1,0.1,0.1c0,0-0.1-0.1-0.1-0.1c0,0-0.1,0-0.1,0c0,0,0,0,0,0     c0,0,0,0,0,0c0,0,0.2,0.1,0.2,0.1c0,0,0,0,0,0c0,0,0.1,0,0.1,0c0,0-0.1,0-0.1,0c0,0-0.1,0-0.1,0c0,0,0,0,0,0c0,0-0.1,0-0.1,0     c0,0,0,0.1,0.1,0.1c0,0,0.2,0,0.2,0c0,0-0.1,0-0.1,0c-0.1,0,0,0-0.1,0c0,0,0,0,0,0c0,0,0,0,0,0c-0.1,0-0.1,0-0.1,0     c0.1,0,0.3,0,0.3,0c0,0,0,0,0,0c0,0-0.2,0.1-0.2,0.1c0,0,0.1,0,0.2,0c0.1,0-0.1,0.1,0,0.1c0,0,0.1,0,0.1,0c0,0,0.1,0.1,0.2,0     c0,0,0,0,0,0c0,0,0,0,0,0c0,0,0,0,0,0c0,0,0,0,0,0c0,0,0.1,0,0.1,0c0,0,0-0.1,0-0.1c0.1,0,0,0.1,0.1,0.1c0,0,0-0.1,0.1-0.1     c0,0,0,0,0,0c0,0,0.1,0,0.1,0c0,0,0,0,0,0c0.1,0,0.1,0,0.2,0c0,0,0.1,0,0,0c0,0,0,0,0,0c0,0,0.1,0,0.2,0c0,0,0,0,0,0     c0,0,0.1,0,0.1,0c0,0,0,0,0,0c0,0,0-0.1,0-0.1c0,0,0,0,0,0c0,0,0.2-0.3,0.2-0.3c0-0.1,0-0.1,0-0.2c0,0,0,0,0,0c0,0,0,0,0-0.1     c0,0,0,0,0.1,0c0,0,0,0,0-0.1c0,0,0,0,0-0.1c0,0,0-0.1,0-0.1c0,0,0-0.1,0-0.1c0,0-0.1,0,0,0c0,0,0.1,0,0.1,0c0,0,0,0,0,0     c0,0,0,0,0,0c0.1,0,0.1-0.1,0.1-0.1c0,0,0.2,0.1,0.2-0.1C5.5,27,5.4,27,5.3,27c0,0,0.1-0.1,0.1-0.1c-0.1-0.2,0,0.1-0.1-0.1     c0,0,0,0,0,0c0,0,0-0.1,0-0.1c0,0,0,0,0,0c0,0,0,0-0.1,0c0,0-0.1,0-0.1,0c0,0-0.1,0-0.1,0c0,0,0,0.1-0.1,0.1c0,0,0,0,0,0     c0,0,0,0,0,0c0,0,0-0.1-0.1-0.1c0,0,0,0,0,0.1c0,0-0.1,0.1-0.1,0c0,0,0.1-0.1,0.1-0.1C4.7,26.5,4.7,26.5,4.6,26.5     C4.6,26.5,4.6,26.5,4.6,26.5z M10.5,26.8C10.5,26.8,10.5,26.8,10.5,26.8L10.5,26.8C10.5,26.8,10.5,26.8,10.5,26.8z M4.9,27.1     C4.9,27.1,4.9,27.1,4.9,27.1C4.9,27.1,4.9,27.1,4.9,27.1c-0.2,0,0.1,0.1-0.2,0.1c0,0,0,0,0,0c0,0,0,0,0,0     C4.9,27.2,4.6,27.1,4.9,27.1z M4.9,27.2C4.9,27.2,4.9,27.2,4.9,27.2C4.9,27.2,4.9,27.2,4.9,27.2z M5.9,27.2     C5.8,27.3,5.8,27.3,5.9,27.2c-0.1,0-0.1,0.1-0.1,0.1C5.5,27.5,5.9,27.5,5.9,27.2z M5.1,27.3C5.1,27.3,5.1,27.3,5.1,27.3     C5,27.3,5.1,27.4,5.1,27.3c-0.1,0-0.1,0-0.1,0C5.1,27.4,5,27.3,5.1,27.3z M15.9,27.4C15.9,27.4,15.9,27.4,15.9,27.4     C15.9,27.4,15.9,27.4,15.9,27.4z M14.4,27.4C14.4,27.4,14.4,27.5,14.4,27.4C14.4,27.5,14.4,27.5,14.4,27.4     C14.4,27.5,14.4,27.4,14.4,27.4z M11.8,27.4C11.8,27.4,11.8,27.4,11.8,27.4c-0.1,0.1,0,0.1,0,0.1c-0.1,0-0.2-0.1-0.2-0.1     c0,0.1-0.1,0.1-0.1,0.1c0,0,0.1,0,0.1,0c0,0,0.1,0.1,0.1,0.1c0,0,0,0,0.1,0c0,0,0,0,0.1,0v0l0,0c0,0,0,0,0,0c0,0,0,0,0,0     C11.9,27.5,11.9,27.5,11.8,27.4L11.8,27.4l0.1,0.1c0,0,0,0,0,0C12,27.5,11.9,27.5,11.8,27.4z M11.8,27.5     C11.8,27.6,11.8,27.6,11.8,27.5L11.8,27.5C11.8,27.6,11.8,27.6,11.8,27.5L11.8,27.5z M12.4,27.6C12.4,27.6,12.4,27.6,12.4,27.6     C12.4,27.6,12.3,27.7,12.4,27.6C12.4,27.7,12.4,27.7,12.4,27.6C12.3,27.7,12.3,27.7,12.4,27.6c-0.1,0.1-0.1,0.2-0.1,0.2     c0,0,0.1,0.1,0.1,0.1c0.1,0,0.1-0.1,0.1-0.1c0,0-0.1,0-0.1-0.1C12.5,27.7,12.5,27.7,12.4,27.6C12.5,27.7,12.5,27.7,12.4,27.6     C12.4,27.7,12.4,27.6,12.4,27.6z M12.4,27.7C12.4,27.7,12.4,27.7,12.4,27.7C12.5,27.8,12.4,27.7,12.4,27.7z M3.9,27.9     C3.9,27.9,3.9,27.9,3.9,27.9C3.9,28,4,27.9,3.9,27.9C3.9,28,3.9,28,3.8,28C3.8,27.9,3.9,27.9,3.9,27.9z M7.4,29.4     C7.4,29.4,7.5,29.4,7.4,29.4C7.5,29.4,7.5,29.4,7.4,29.4C7.4,29.4,7.4,29.4,7.4,29.4C7.4,29.4,7.4,29.4,7.4,29.4z M13.1,29.6     C13.1,29.6,13.1,29.6,13.1,29.6C13.1,29.6,13.1,29.6,13.1,29.6z M13.1,29.6c0,0.1,0,0.2,0,0.2c0,0,0,0,0,0.1c0,0,0,0,0-0.1     C13.2,29.8,13.2,29.7,13.1,29.6z M13.1,30C13.1,30,13.1,30,13.1,30C13.1,30,13.1,30,13.1,30C13.1,30,13.1,30,13.1,30z M13.1,30     C13.1,30,13.1,30,13.1,30C13.1,30,13.1,30,13.1,30z M9.7,30.3C9.7,30.3,9.7,30.3,9.7,30.3C9.7,30.3,9.7,30.3,9.7,30.3z      M14.1,31.2C14.1,31.2,14.1,31.2,14.1,31.2c0,0,0,0.1,0,0.1c0,0,0,0,0,0c0,0,0,0,0,0C14.1,31.2,14.1,31.2,14.1,31.2z M14.1,31.3     C14.1,31.4,14.1,31.4,14.1,31.3C14.1,31.4,14.1,31.4,14.1,31.3z M10.5,31.9C10.6,31.9,10.6,31.9,10.5,31.9     C10.6,32,10.6,32,10.5,31.9C10.6,32,10.6,32,10.5,31.9C10.6,32,10.6,32,10.5,31.9c0.1,0.1,0.1,0.1,0.1,0.1c0,0,0.2,0,0.2,0     c0,0,0.1,0.1,0.1,0.1v0c0,0,0.1,0,0,0.1c0,0,0,0,0,0c0,0,0,0.1,0,0.1l0,0.1v0.1c0,0,0.1,0,0.1,0c0,0,0,0,0,0c0,0,0.1,0,0.1,0.1     c0.1,0,0.1-0.1,0.1-0.1c0.1,0,0,0.1,0,0.1c0,0,0,0,0,0.1c0,0,0,0,0,0.1c0,0,0.1,0.1,0,0.1c-0.1,0-0.1-0.1-0.2-0.1     c-0.1,0,0,0.1,0,0.1c0,0,0,0,0,0.1c0,0,0,0,0,0c0,0,0,0-0.1,0c0,0,0-0.1-0.1-0.1c-0.1,0-0.1,0.1-0.1,0c-0.1,0,0-0.1-0.1-0.1     c-0.1,0,0,0.1,0,0.1c0,0.1-0.1,0.1-0.1,0.2c0,0,0.1,0,0,0.1c0,0,0-0.1-0.1-0.1c0,0,0,0-0.1,0c0,0,0,0,0-0.1c0,0,0,0,0,0     c-0.1,0-0.1,0-0.2-0.1c0,0,0,0,0-0.1c0,0,0-0.1,0-0.1c0,0,0,0,0,0c0,0,0,0-0.1,0.1c0,0-0.1,0-0.1,0.1c0,0,0,0,0,0.1     c0,0-0.1,0.2-0.1,0.2c0,0-0.1-0.1-0.1,0c-0.1,0-0.2,0.1-0.2,0c0,0,0-0.1,0-0.1c0,0,0,0,0,0c0,0,0,0,0-0.1c0,0,0,0,0,0     c0,0,0,0,0-0.1c0,0,0,0,0-0.1c0,0,0,0,0,0c-0.1,0-0.2,0-0.2,0c0,0,0,0,0,0c0,0,0,0,0,0c0,0.1-0.1,0.1-0.2,0.1c0,0,0,0,0,0     c0-0.1,0,0,0.1-0.1c0-0.1,0-0.1,0-0.2c0,0,0.1,0,0.1-0.1c0,0,0-0.1,0-0.1c0,0,0.1,0,0.1-0.1c0,0,0.1-0.1,0.1-0.2c0,0,0,0,0.1,0     c0,0-0.1,0-0.1,0c0,0,0,0,0-0.1c0,0,0,0,0,0c0,0,0,0,0,0c0.1,0,0.1,0.1,0.2,0c0,0,0,0,0-0.1c0,0.2,0,0,0.1,0.1c0,0,0,0,0,0     c0,0,0.2,0,0.3,0c0.1,0,0,0.1,0.1,0c0,0,0,0,0,0C10.5,32,10.6,32,10.5,31.9C10.5,32,10.5,32,10.5,31.9     C10.5,32,10.5,31.9,10.5,31.9z M13.8,32.4C13.8,32.4,13.8,32.4,13.8,32.4C13.8,32.4,13.8,32.5,13.8,32.4     C13.8,32.5,13.8,32.4,13.8,32.4C13.8,32.4,13.8,32.4,13.8,32.4z M19.7,32.6C19.7,32.6,19.7,32.6,19.7,32.6c0.1,0,0,0.2,0,0.2     c0,0-0.1,0.1-0.1,0c0,0,0.1-0.1,0.1-0.1C19.7,32.7,19.6,32.7,19.7,32.6C19.6,32.6,19.7,32.6,19.7,32.6z M9.8,34.4     C9.8,34.4,9.8,34.4,9.8,34.4c0.1,0.1,0,0.1,0,0.1C9.7,34.5,9.7,34.5,9.8,34.4C9.7,34.4,9.7,34.4,9.8,34.4z M8.7,34.5     c0,0,0,0.1,0,0.1C8.7,34.6,8.6,34.5,8.7,34.5C8.7,34.5,8.7,34.5,8.7,34.5z M14.4,34.7C14.4,34.7,14.4,34.8,14.4,34.7     C14.5,34.8,14.5,34.8,14.4,34.7c0.1,0,0.2,0,0.2,0.1c0,0,0,0,0,0c0.2,0.1,0.1-0.1,0.4,0.1c0,0,0.1,0,0.1,0.1l0,0     c-0.1-0.1-0.2-0.1-0.3-0.1c0,0,0-0.1-0.1-0.1c0,0,0,0-0.1,0c0,0,0,0,0,0c0,0,0,0,0,0c-0.1,0-0.1-0.1-0.2-0.1     C14.5,34.7,14.5,34.8,14.4,34.7C14.5,34.8,14.5,34.7,14.4,34.7z M7.2,34.9c0.1,0,0.1,0.1,0,0.1C7.1,35.1,7.1,35,7.2,34.9     C7.1,34.9,7.1,34.9,7.2,34.9C7.2,34.9,7.2,34.9,7.2,34.9z M10.9,34.9c0,0-0.1,0.1-0.1,0.1c0,0,0,0.1,0,0.1c0,0-0.1,0-0.1,0     c0,0,0,0,0,0.1c0,0,0,0-0.1,0c0,0,0,0-0.1,0c0,0,0,0,0,0c0,0,0,0.1,0,0.1c0,0-0.1,0-0.1,0c0,0,0.1,0,0.1,0.1c0,0-0.1,0-0.1,0.1     c0,0,0.1,0,0.1,0.1c0,0-0.1,0.1-0.1,0.1c0,0,0.1,0,0.1,0c0,0-0.1,0.1-0.1,0.1c0,0,0.1,0,0.1,0.1c0,0,0,0,0,0.1c0,0.1,0.1,0,0.1,0     c0,0,0,0.1,0.1,0.1c0,0,0-0.1,0-0.1c0,0,0,0,0,0c0,0,0,0,0,0c0,0,0,0,0,0c0.1-0.1,0-0.1,0-0.2c0-0.1,0.1-0.1,0.1-0.2     c0,0,0-0.1,0-0.2c0,0,0,0,0,0c0,0,0,0,0,0C10.9,35.1,10.9,35,10.9,34.9z M10.9,35.2C10.9,35.2,10.9,35.2,10.9,35.2     C10.9,35.2,10.9,35.1,10.9,35.2C10.9,35.2,10.9,35.2,10.9,35.2z M10.8,36c0,0.1-0.3,0.3-0.4,0.3c-0.1,0-0.1-0.1-0.1-0.1     c0,0,0,0,0,0.1c0,0,0,0.1,0,0.1c0,0.2,0,0,0.1,0.1c0,0,0.1,0.3,0.1,0.3c0,0,0,0,0,0c0,0,0,0,0,0c0,0,0,0.1,0,0.1c0,0,0.1,0,0.1,0     c0,0,0,0,0,0.1c0,0,0,0.1,0,0.1c0,0.1-0.1,0.1-0.1,0.2c0,0,0.1,0,0.1,0.1c0,0,0,0,0,0c0.1,0,0,0.2,0.2,0.1c0.1-0.1,0.1,0,0.1-0.2     c0,0,0,0,0-0.1c0,0,0,0,0,0c0.1,0,0.2,0.1,0.2,0.1c0,0,0,0,0,0C11,37.2,11,37,11,36.8c0,0,0,0,0-0.1c0-0.1-0.1-0.1-0.1-0.1     c0-0.1,0.1-0.1,0.1-0.2c0-0.2-0.1,0-0.1-0.2c0,0,0,0,0,0c0,0-0.1,0-0.1-0.1c0,0,0.1,0,0.1-0.1C11,36.1,10.8,36.1,10.8,36z      M10.4,37.3C10.4,37.3,10.4,37.4,10.4,37.3C10.4,37.4,10.4,37.3,10.4,37.3z M8.1,36.6C8.1,36.6,8,36.6,8.1,36.6     C8.1,36.7,8.2,36.7,8.1,36.6c0.1,0.1,0.3,0.3,0.2,0C8.2,36.6,8.2,36.6,8.1,36.6z M7.8,36.6c-0.2,0-0.3,0.1-0.4,0.2c0,0,0,0,0,0     c0,0,0.1,0,0.1,0c0,0,0,0,0.1,0c0,0,0,0.1,0,0.1c0,0.1,0,0,0.1,0c0,0,0,0.1,0,0.1c0,0,0.3-0.2,0.2-0.3     C7.8,36.7,7.7,36.9,7.8,36.6z M17.8,36.8C17.8,36.8,17.8,36.8,17.8,36.8c-0.1,0.1-0.1,0.1-0.1,0.1c0,0,0,0,0,0c0,0,0,0,0,0     c0,0,0,0,0.1-0.1c0.1,0,0.3,0.1,0.4,0.2c0,0,0,0,0,0c0.1,0.1,0.1,0,0.2,0c0,0,0.1,0,0.1,0.1c0,0,0,0,0,0c0,0,0,0,0,0c0,0,0,0,0,0     c0,0,0,0,0,0c0,0,0.2,0.1,0.2,0.1c0.1-0.1-0.1-0.1-0.2-0.1c0,0,0-0.2,0-0.2c0,0,0,0-0.1,0c0,0,0,0,0,0c0,0,0,0,0,0     c0,0-0.1,0-0.2,0c0,0,0,0-0.1,0c0,0,0,0,0,0c0,0,0,0-0.1,0C17.9,36.8,17.9,36.8,17.8,36.8z M16.6,36.9     C16.6,36.9,16.6,37,16.6,36.9c0.1,0.1,0.2,0,0.2,0.1c0,0-0.1,0-0.2,0C16.6,37,16.5,36.9,16.6,36.9C16.6,36.9,16.6,36.9,16.6,36.9     z M7.3,36.9L7.3,36.9c-0.1,0-0.1,0-0.1,0.1c0,0,0,0.1,0,0.1C7.3,37.1,7.3,37.1,7.3,36.9C7.4,37,7.4,37,7.3,36.9     C7.4,37,7.3,36.9,7.3,36.9z M7.4,37.1C7.4,37.1,7.3,37.1,7.4,37.1c-0.1,0.1-0.1,0.1,0,0.1C7.4,37.2,7.4,37.2,7.4,37.1     C7.5,37.1,7.5,37.1,7.4,37.1L7.4,37.1L7.4,37.1z M16.5,37.3c-0.1,0.1-0.1,0.3,0,0.2c0,0,0-0.1,0-0.1c0,0,0,0.1,0,0.1     c0,0,0,0,0.1,0c0,0,0,0.1,0.1,0c0.1,0-0.1-0.1-0.1-0.1C16.5,37.5,16.6,37.4,16.5,37.3C16.5,37.4,16.5,37.4,16.5,37.3z M23.9,37.4     c0,0-0.4,0.3-0.4,0.4c-0.1,0-0.2,0.1-0.3,0.1c0,0-0.1,0-0.1,0c0,0,0,0.1,0,0.1c0,0,0,0.1,0,0.1c0,0-0.1,0-0.2,0     c0,0,0,0.1-0.1,0.1c0,0,0,0-0.1,0c0,0,0.1,0.1,0.1,0.1c0,0,0,0,0,0c0,0,0.2,0,0.2,0c0,0,0,0,0.1,0c0,0,0.1,0.1,0.1,0     c0,0,0-0.1,0-0.1c0-0.1,0.2-0.1,0.2-0.2c0,0,0-0.1,0-0.1c0,0,0.1,0,0.1,0c0,0,0,0,0,0c0,0,0.1,0,0.1,0c0,0-0.2-0.1-0.2-0.2     C23.6,37.6,23.9,37.5,23.9,37.4z M14,37.7c0,0-0.1,0-0.1,0.1c0,0,0-0.1,0,0c0,0,0,0.1-0.1,0.1c-0.1,0,0-0.1-0.2,0     c-0.1,0-0.1,0.1-0.2,0.1c-0.1,0-0.1,0-0.2,0c0,0-0.1,0.1-0.1,0.1c0,0-0.1,0-0.1,0c0,0,0,0,0,0c0,0-0.1,0-0.1,0c0,0,0-0.1,0-0.1     c-0.2,0,0,0.1-0.2,0.1c0,0-0.1-0.1-0.1-0.1c0,0,0,0-0.1,0.1c0,0,0,0-0.1,0c0,0,0,0,0,0.1c0,0,0,0,0,0c0,0,0,0,0,0     c0,0,0.1,0.1,0.1,0.1c0,0,0.1,0,0.1,0c0.1,0,0.2,0.1,0.3,0.2c0,0,0,0,0.1,0c0,0,0,0,0.1,0.1c0,0,0,0,0,0c0.1,0,0.2,0,0.3,0     c0.1,0,0.1,0.1,0.1,0.2c0.1,0.1,0.1,0,0.2,0c0.1,0,0.1,0.1,0.1,0c0,0,0-0.1,0-0.1c0,0,0-0.1,0-0.1c0,0,0,0,0.1-0.1c0,0,0,0,0,0     c0,0-0.1-0.1-0.1-0.1c0,0,0,0,0,0c0,0,0,0,0,0c0,0-0.1,0-0.1,0C13.7,38.3,13.9,37.8,14,37.7C14,37.7,14,37.7,14,37.7z M3.1,38.5     c-0.1,0-0.1,0-0.1,0l0,0.1h0.1c0,0,0,0,0,0C3.1,38.6,3.1,38.6,3.1,38.5C3.1,38.5,3.2,38.5,3.1,38.5C3.2,38.5,3.1,38.5,3.1,38.5z      M19.7,38.7c-0.1,0.2-0.1,0-0.2,0.1c0,0,0,0.1,0,0.1c-0.1,0,0-0.1,0-0.1c0,0-0.1,0.1-0.2,0.1c0,0,0,0,0,0c-0.1,0-0.1,0-0.2,0     c0,0,0,0,0,0c-0.1,0-0.1,0-0.2,0c0,0-0.1,0.1-0.1,0.1c0,0,0,0-0.1,0c0,0,0,0-0.1,0c0,0-0.1,0-0.1,0c0,0,0.1,0,0-0.1     c0,0,0,0-0.1,0.1c0,0-0.1,0-0.1,0c0,0-0.1-0.2-0.1,0c0,0,0,0.1,0,0.1c0,0,0,0.1,0,0.1c0,0,0.1,0,0.1,0c0,0,0.1,0,0.1,0     c0,0,0,0,0,0c0.2,0-0.1-0.1,0.2,0c0.3,0,0.1,0,0.2,0.1c0,0,0.3-0.1,0.3-0.1c0,0,0.4-0.1,0.4-0.1C19.8,38.8,19.7,38.8,19.7,38.7z      M4.3,39C4.3,39,4.3,39.1,4.3,39v0.1C4.3,39.1,4.3,39.1,4.3,39C4.3,39,4.3,39,4.3,39z M4.3,39.1C4.3,39.1,4.3,39.1,4.3,39.1     L4.3,39.1L4.3,39.1C4.3,39.1,4.3,39.1,4.3,39.1z"/>
		</g>
	</g>
</g>
<g>
	<defs>
		
			<rect id="SVGID_00000124157105967154264190000001929657899354598818_" x="16.5" y="7.9" transform="matrix(1 -3.018995e-03 3.018995e-03 1 -6.960248e-02 9.722992e-02)" width="31.3" height="30.5"/>
	</defs>
	<clipPath id="SVGID_00000091008158713455542620000008158297847348512174_">
		<use xlink:href="#SVGID_00000124157105967154264190000001929657899354598818_" style="overflow:visible;"/>
	</clipPath>
	<g id="location_1" style="clip-path:url(#SVGID_00000091008158713455542620000008158297847348512174_);">
		
			<radialGradient id="path8458_00000176009029416219809250000004746802558018427572_" cx="29.0259" cy="26.6305" r="10.3197" gradientTransform="matrix(1.0265 -3.098850e-03 3.180819e-03 1 -1.682 0.2371)" gradientUnits="userSpaceOnUse">
			<stop offset="9.895830e-02" style="stop-color:#13BA9A"/>
			<stop offset="1" style="stop-color:#329484"/>
		</radialGradient>
		<path id="path8458" style="fill:url(#path8458_00000176009029416219809250000004746802558018427572_);" d="M44.4,8.6L44.4,8.6    l0.2,0.1L44.4,8.6L44.4,8.6L44.4,8.6z M44.6,8.7L44.6,8.7L44.6,8.7L44.6,8.7z M44.6,8.7l0.2,0.2L44.6,8.7L44.6,8.7z M44.9,8.9    l-0.1,0l0,0.2l0,0l0-0.1L44.9,8.9z M44.7,9.1l-0.2,0L44.7,9.1L44.7,9.1z M43.5,9.1l-0.3,0.1l-0.1,0.1l0,0.1l0.3,0.1L43,9.4    l-0.5,0.2l-0.4,0.1l0,0.2L41.9,10l-0.1,0l0,0l0.1,0.1l0.2,0l0,0.1L42,10.3l-0.2,0l0,0.1l-0.3,0.2l0.1,0.2l-0.3-0.1l0,0l0,0    L41,10.6l-0.2,0.1l-0.2,0.2l-0.5,0l0-0.1l-0.2,0l-0.1,0l0.1,0.2L39.7,11l0.1,0.1l0-0.1L39.6,11l0.2-0.2L39.2,11l0.1,0.1l-0.1,0.1    l0,0.1l0.1,0l0,0l0,0l0,0l0,0l0,0l0.1,0.1l0,0l-0.2,0l0.1,0.1l-0.3-0.1l-0.2,0.1l-0.2-0.1l0,0.4l-0.5-0.3l0.1-0.1l-0.2,0l0.1-0.1    l-0.2-0.1l-0.2,0l-0.2-0.1l0,0.3l-0.3,0l-0.2,0l0-0.1l-0.3,0l-0.2,0.2l-0.1-0.2l0,0.1l-0.1-0.1l-0.2,0l0,0.1l0.1,0L36,11.7    l-0.1,0.1l0.1-0.2l0.5-0.5L36.4,11l0.1,0.1l0-0.1l-0.3-0.2l-0.4,0.1l0.1-0.1l-0.3,0l0.2-0.1l-0.2-0.1l-0.2,0.2l0,0.2l-0.1,0    l-0.1,0l0.1,0.1l-0.1-0.1L35,11l0-0.1l-0.2,0l0,0.1l0.1,0l-0.7,0.1l0,0.2l-0.1-0.1l0,0.3l-0.7,0l-0.1,0.3l0.2,0.3l-0.2,0.5l0,0.1    l-0.1-0.1l0-0.1l0.1-0.2l-0.1,0.1l0.3-0.3l-0.2,0l-0.1-0.1l-0.1-0.1l-0.1,0l0,0.1l-0.2-0.1l0.1,0.3L32.7,12l0.1-0.5l-0.1,0.2    l-0.3,0.2l0,0.2l-0.1,0.2l-0.2,0.2l0.3,0l0.2,0.1l0,0.2L32.4,13l0.1,0.1L32.3,13l0.1-0.4l-0.2,0l-0.2,0.3l-0.5,0.3L31.2,13l0.4,0    l0.4-0.3l0-0.2l0.2-0.3l0.1-0.2l0-0.2l0.3-0.3l-0.1-0.1l-0.1-0.1l0,0L32,11.7l-0.2,0.1L31.5,12l-0.1,0.1l0.1,0.1l0,0.2l-0.3,0.2    l-0.1-0.3l0,0l-0.1-0.1l0,0.1l-0.1,0.3l0,0l-0.4,0.2l-0.6,0.1L29.7,13l-0.5,0.7l0,0l-0.1,0l0,0.1L28.9,14l-0.3,0.3l-0.4,0.4    l-0.2,0l-0.2,0.1l0,0.1l0.1,0.1l0,0.1l-0.1,0.1l-0.2,0l-0.3-0.1l-0.1,0l0,0.1l0,0.4l0,0l0,0.1l0.1,0l0.2,0l0.1,0l0,0.1l0,0.1    l-0.3,0.2l0,0.1l0,0l0,0l0,0.1l0.2,0.2l-0.1,0l0.1,0.2l0.1,0.1l0,0.1L27.4,17L27.4,17l-0.2-0.1L27,17l-0.1-0.3l-0.1,0l0,0    l-0.2-0.2l0-0.1l-0.1-0.1l-0.1-0.1l-0.2,0l-0.3-0.1l-0.3,0l-0.1,0l-0.2,0.2l-0.1,0.4l-0.2,0.2L25.1,17l0,0.1l0,0.1l0.2,0.2l0,0.1    l-0.3,0.3l0,0.1l-0.3-0.2l-0.2,0.1l0,0.2l-0.2-0.2l-0.1,0.1l0.1,0.1l-0.1,0.3l0.2,0.3l-0.2,0.2l-0.1,0.4l0.2-0.3l0.2,0l0,0.4    l-0.3,0l-0.1-0.2L24,19.4l0,0.2l0-0.1l0.1,0.1l0,0.2L24,19.6l-0.1,0.1l0.1,0l0,0.2l-0.3,0.6l-0.4-0.2l-0.3-0.6l0.2-0.4l0.2-0.1    l0.2-0.2l0.2,0L23.5,19l-0.1-0.2l-0.1-0.1l0-0.1l0-0.1l0,0l0-0.1l0-0.1l0-0.1l0-0.1L23.1,18l-0.1-0.1l0,0l0-0.1l0-0.1l-0.1-0.1    l-0.1,0l0-0.1l-0.1-0.1L22.7,17l0-0.1l-0.1-0.5l0,0.6l0,0.4l-0.1,0.3l-0.1,0.1l-0.3,0l0,0l-0.2-0.2l-0.2-0.4l0-0.4l-0.2-0.2    l-0.4,0L21,16.1l-0.1,0.1l0,0.1l-0.1-0.1l-0.1,0.1L20.6,16l-0.2,0l-0.1,0.1l0.1,0.1l-0.2,0.2l0,0.1l-0.1,0l0-0.1l-0.1,0.1l0,0.2    l-0.1,0l0,0.2l-0.1,0l0.1,0.1l-0.2,0l0.1,0.1l0,0.4l0.1,0.1l0.2-0.2l0,0.1l0,0.5l0.2,0.1l0.2-0.1l0,0.2l0.2,0l-0.3,0.3l-0.2,0.3    l-0.8,0.7l-0.2,0.6l-0.3,0.3l0.1,0.1l-0.1,1.2L19,22.1l0.1,0.4L19,22.9l-0.1,0.4l0,0.3L19,24l0.1,1.2l-0.2,0.4l0,0.9l0.3,0.2    l0.2-0.1l0.7,0.2l0.2-0.1l0.7,0.1l0.1-0.2l0.7,0.2l0.2-0.2l0.2,0.1l0.2-0.2l0.3,0.1l0.1-0.4l0.1-0.1l0.1,0.1l0.5-0.4l-0.1-0.5    L22.8,25l-0.1-0.2l0-0.4l0.1-0.2l-0.8,0.4l-0.3-0.2l-0.1,0l-0.1-0.2l0.2-0.5l-0.1-0.1l-0.2,0.4l0-0.5l0.1-0.2l-0.1-0.5l0.1-0.6    l-0.1-0.1l0.1,0l0-0.2l0,0l0.2,0.2l0.1-0.1l0.1,0.2l0.1,0l0,0.1l0,0.8l0.2,0.2l0.2,0.5l0.2,0.2l0.5,0l0,0.5l0.6,0.5l0.4,0.3    l1.3,0.3l0,0.3l0.2,0.1l0,0.3l0,0l0-0.1l0,0.1l0.1,0l0,0.1l0.2-0.1l-0.1,0.1l0.2,0.3l0.4,0.1l-0.1,0.1l-0.4,0l0.5,0.7l0.4,0    l0.1-0.4l0.2,0.1l-0.1,0.1l0,0.1l0.1,0l-0.1,0.1l0.1,0.2l-0.1,0.3l0,1.3l0.6,1.8l0.1,0.4l0.1,0.4l0.3,0.3l0.2-0.1l0.1-0.2l0.3,0    l-0.1-0.1l0.1-0.2l0-0.1l0.2,0l0-0.4l0.1-0.2l0.1-0.3l0-0.6l0.1-0.2l0.2,0l0.1-0.2l0.3,0l0-0.2l0.6-0.3l0.3-0.3l0.4-0.1l0.2-0.2    l0-0.2l0.3-0.1l0.1-0.2l0,0.2l0.2-0.2l0.1,0.2l0-0.2l0.1,0.1l0.1-0.1l0.1,0.1l0-0.2l0.1,0.2l0.1-0.2l0,0.2l0.1,0l0-0.2l0.2,0    l0.4,0.9l0.1-0.1l0,0.1l0.2,0.1l0.1,0.2l-0.2,0l0.2,0.2l0.1-0.2l0.1,0.6l-0.1,0.5l0.1-0.1l-0.1,0.1l0.1-0.1l0.1,0.1l0.1-0.1    l0.1,0.1l0.1-0.2l0.2,0l-0.1-0.1l0.1,0.1l0.1-0.1l0-0.2l0.2,0.3l0.1,0l0,0.5l0.1,0.4l0-0.1l0.2,0.4l0,0.3l0.1,0.1l-0.2,0.3l0,0.2    l0.1-0.1l0,0.1l-0.2,0.6l0.1-0.1l0.5,0.5l0,0l0.2,0.7l0.2,0.4l0.8,0.4l0.2-0.1l0.1,0.1l-0.3-0.4l0-0.5l-0.1-0.2l-0.6-0.4l-0.4-0.1    l-0.2-0.5l0-0.2l-0.2,0l0-0.2l0-0.1l0.3-0.5l0-0.1l0-0.2l0,0l0.3-0.1l0,0.3l0.3,0l0.3,0.2l0.2,0.4l0.2-0.1l0,0.2l0.1-0.1l0.4,0.2    l-0.1,0.4l0.2,0l0.3-0.2l-0.1-0.2l0.2,0.1l-0.1-0.1l0,0l0.1,0l0.1,0.1l0-0.1l0-0.1l0.2,0l-0.1-0.1l0.1,0l0-0.1l0.2,0l0.6-0.4    l0-0.4l0.1,0l-0.2-0.8l-0.2-0.3L37.8,30l-0.5-0.6l0.1-0.3l0.2-0.2l0-0.2l0.1,0l-0.1-0.1l0.2,0l0.1-0.2l0.2,0l0-0.1l0.2,0.2    l0.2-0.1l0.1,0.1l-0.1,0.2l0.1,0.2l0.1,0l0-0.4l0,0.1l0.4-0.2l0-0.1l0.2,0l0-0.1l0.2,0l0-0.2l0.1,0.2l0-0.1l0.1,0l-0.1-0.3L40,28    l0-0.1l0.2-0.1l0,0.1l0.1-0.1l0.1,0.1l0.3-0.2l0.1-0.1l-0.1,0l0.2-0.1l0-0.1l0.1,0.1l0.1-0.2L41,27l0.3,0l0-0.1l0.1,0l-0.1-0.1    l0.1,0l0-0.1l0.1,0.1l-0.1-0.2l0.1-0.1l-0.1,0l0.1,0l-0.1-0.1l0.1,0l0,0l0.1-0.5l-0.1-0.1l0.3-0.1l-0.1-0.1l0.1-0.1l-0.1-0.1    l0.2,0l0-0.1l-0.2,0.1L42,25l-0.1,0l-0.2-0.1L41.4,25l0.4-0.4l-0.4-0.2l-0.2,0l0.5,0l-0.4-0.2l-0.3-0.5l-0.1,0l-0.2-0.1l0-0.1    l0.2-0.3l0.1-0.1L41,23l0.2,0l0-0.2l0.3-0.2l0.2,0l0-0.2l-0.5,0l-0.2,0.2l-0.2,0.2l-0.2-0.3l-0.3,0l0-0.2l0.3-0.1l0.2-0.3l0.2-0.3    l0.2-0.1l0.2,0.2L41,21.8l0.2,0L41.1,22l0.5-0.6l0.5,0l0,0.3l0.1,0L42,21.9l0,0.2l0.2,0l0,0.1l0.1,0l0-0.1l0.2,0l0.2,0.3l-0.1-0.1    l-0.1,0.1l0.1,0.1l0-0.1l0,0.2l0.1,0l-0.1,0.4l0.1,0.1l-0.1,0l0.1,0.1L43,23l0.1,0.1l0-0.2l0.1,0.1l-0.1-0.1l0.2,0l0-0.2l0.1,0    l0-0.4L43.3,22l-0.4-0.4l-0.3-0.1l0-0.2l0.4-0.5l-0.1-0.3l0.2-0.2l0-0.1l0.1,0l0-0.3l0.4,0.1l0.3-0.4l0.2-1.1l0-0.9l0-0.2    l-0.2-0.3l-0.1-0.2l-0.1-0.5l-0.3-0.2l0.1,0l0-0.1L43,15.9l-0.1,0L42.7,16l0,0.1l-0.1,0.2L42.6,16l0,0.2L42.4,16l-0.2,0.1L42.1,16    l0.2-0.6l0-0.4l0-0.6l0.4-0.3l0.1,0l0-0.1l0.3-0.1l-0.1-0.2l0.4-0.1l-0.1,0.1l0.1,0l0.3-0.4l-0.1-0.1l-0.1,0.1l-0.1-0.1l-0.2-0.6    l0.2-0.3l0,0l0.1,0.1l0,0.1l0.1,0.1l0,0l0-0.1l0.1,0.1l-0.1-0.4l0.1-0.1l-0.2-0.2l0-0.1l0.1,0l0,0.1l0.4,0.3l0,0.3l0.2,0.5    l0.1,0.4l-0.1,0.2l0.2,0.4l0.3,0.4l1.2,1l-0.1-0.5l-0.2-0.2l0.2-0.2l0,0l0,0l-0.1-0.1l0,0l-0.1-0.1l-0.1,0l0.1-0.4l-0.3-0.3    l0.1-0.2l-0.4-0.2L45,13L44.8,13l-0.4-0.6l0-0.1l0.1,0l-0.1-0.3l0.2,0.1L44.5,12l0.1-0.2l0.3,0l-0.1-0.1l-0.2-0.5l-0.1-0.5    l0.2-0.1l-0.1-0.1l-0.6-0.2l0.1,0l-0.2,0l0,0.2l-0.1,0l-0.1,0.1l0.1-0.4l-0.1-0.1L43.6,10l-0.2-0.1l0-0.1l0.3,0.1l0-0.2l0.3,0    l0.2-0.1L44,9.6l0.1,0l0-0.1l-0.1,0l-0.1-0.1l-0.1-0.1l-0.1,0l0.1-0.1l-0.1,0l0.1,0L43.5,9.1z M32.4,11.4l0.1,0l0.1-0.1l-0.1,0    L32.4,11.4z M44.8,12.5l-0.1,0.1l0.1,0.1L44.8,12.5z M46,15.4l0.1,0.3l0-0.2L46,15.4z M43.3,15.6L43.3,15.6l0.2,0.2L43.3,15.6z     M43.5,15.8L43.4,16l0.2,0.3l0.3,0.3l0.2,0.3l0.7,1.2l0-0.3l0.2,0L45,18l0-0.1l-0.4-0.3l-0.2-0.4l0.1-0.1l0.2,0.1l-0.4-0.3    L44,16.4L43.5,15.8z M42.4,15.8l0,0.2l0.1-0.1L42.4,15.8z M46,17.6l-0.1,0.1l0,0.4L46,17.6z M45.9,18.2L45.9,18.2l-0.1,0.2l0,0.1    L45.9,18.2z M44.8,18.3l0.3,0.7l-0.2,0.1l0.1,0.1l-0.1,0.2l0,0l0.2,0.2l0,0l0,0.1l0.2-0.2l-0.2,0l0-0.1l0.2,0l0.1-0.2l0.4,0l0-0.4    l0.2-0.3l-0.1,0.1l-0.2-0.3l0,0.2l-0.2,0.1L44.8,18.3z M45.4,19.6l-0.1,0.1l0.2,0.2l-0.2,0l0,0.2l0,0.1l0.1,0.2l0,0l0,0l0,0.1    l0,0.1l0,0.5l-0.3,0.7l-0.1-0.1l0-0.2L45,21.3l0.1,0.6l-0.7,0.3l-0.4,0.6L44,23l0.3-0.1l0-0.2l0.1,0.1l0.3-0.4l0.3-0.1l0,0.3    l0.2,0.1l0-0.1l0.2-0.3l-0.2-0.1l0-0.2l0.1,0.1l0-0.1l0.1,0l-0.1,0.1l0.3-0.1l0.1-0.2l0.1,0.2l0-0.2l0.1,0l0-0.2l0,0l0,0l0,0.1    l0,0l0,0.1l0,0l0.1-0.3L46,21.3l0-0.3l-0.2-0.4l0.1-0.1l-0.1-0.5L45.4,19.6z M44.9,22.5l-0.2,0l-0.1,0.2l-0.1,0L44.3,23l0.1-0.1    l0.1,0.2l0.1-0.1l0.1-0.2l0.2,0l0.1-0.2L44.9,22.5z M44,23l-0.3,0.3l0.2,0.1l-0.1-0.1l0.1,0.2l0.2-0.1l-0.1-0.1l0.1-0.1l0.1,0.2    l0,0.5l0.2,0l0-0.2l0,0.2l0.1-0.2l0-0.6L44,23z M42.1,26.5l-0.3,0.7l0,0.2l0.3,0.3l0.2-1.1L42.1,26.5z M49.3,27.9L49.3,27.9l0,0.1    L49.3,27.9z M42.7,28.8l-0.5,0.1l0,0.8l-0.2,0l0,0l0,0.1l0.1,0.3l0,0.1l0.1,0.1l0-0.1l0.1,0l-0.1,0.3l0.2,0l0.1-0.2l0.3,0.2l0-0.2    l0.3,0.2l0.2,0l0,0.1l0-0.2l-0.1,0l-0.1-0.2l0.1-0.1l-0.1,0l-0.1,0l0,0.1L43,30l-0.2,0.1l0,0.1l-0.2-0.1l-0.1-0.3l0.3-0.6L42.7,29    L42.7,28.8z M39,28.8l-0.5,0.1l-0.2,0.2l0.2,0.3l0.2,0l0.3-0.2L39,29L39,28.8z M43.8,30.4l-0.3,0.1l0.3,0.2l0,0.1l-0.2,0l0,0.2    l0.2,0.3l0-0.1l0.1,0l-0.1-0.3l0.2,0l-0.1-0.3L43.8,30.4z M42.2,30.5l0.2,0.1l0,0l0.1,0.2l0.1,0l0-0.3L42.2,30.5z M43.2,30.5    l0,0.2l0.1-0.1l0.2,0.1L43.2,30.5z M42.8,30.9l0.1,0.4l0.3-0.3l0-0.1l-0.1,0.1L42.8,30.9z M43.5,30.9l-0.1,0.4l-0.1,0.2l0.1-0.2    l0.1-0.2L43.5,30.9z M43.2,31l-0.1,0.3l0,0L43,31.5l0.2,0.2l0.1-0.1l0-0.2l0.1-0.3L43.2,31z M42,31.2l0,0.2l-0.1-0.1l0,0.2    l-0.2,0.2l-0.5,0.6l0.3-0.2l0.2-0.4l0,0l0.3-0.2L42,31.2z M44,31.2l0,0.3l-0.2,0.1l0,0.2l-0.1,0L43.5,32l0-0.2l-0.2-0.1L43,32.1    l-0.1,0.3l0.1,0l0.1-0.3l0.3,0.1l0.1-0.2l0.2,0.1l0,0.3l0.3,0.1l0.1-0.1l0,0.2l0.1-0.2L44,32.2l0.1-0.2l0.2,0.3l0-0.2l0.1-0.2    l-0.1-0.3l-0.1,0l0-0.2L44,31.2z M43.5,31.2L43.5,31.2l-0.1,0.1l0.1,0l0.2-0.1l0-0.1L43.5,31.2z M33,31.3L33,31.3l0,0.2L33,31.3z     M28.5,31.7L28.5,31.7l0.2,0.1L28.5,31.7l0,0.2l-0.1,0.4l0-0.1l0.1,0.4l0.1,0.3l0.4,0l0.2-0.2L29,32.2l-0.3-0.5L28.5,31.7    L28.5,31.7z M42.9,32.5L42.9,32.5l0.1,0L42.9,32.5z M41.2,32.7l-0.3,0.5l-0.2,0.1l0.1,0l-0.1,0.1l-0.1,0l0,0l0,0l0,0l0,0l-0.2,0.1    l-0.1,0L40,34l-0.6,0.2l-0.1,0.4l-0.4-0.1l-0.1-0.1l-0.3,0.3l0,0.2l0.1,0.1l0,0.2l0.2,0l-0.1,0l0.1,0.1l-0.1,0.1l0.2-0.1l0.1,0.5    l0.5-0.1l0.1,0.2l0.4-0.2l0.2,0l0,0.1l0.3-0.1l0,0.2l0.1-0.1l0.4-0.3L41,35.6l0.1,0l0.1-0.2L41,35.3l0.2-0.2l0.1,0l0.2-0.2l0-0.2    l0.2-0.2l-0.1-0.1l0.2,0.1l0.2-0.1l-0.4-0.2l0-0.1l0.1,0l-0.4-0.3l0.2,0l-0.1-0.1l0.4-0.1l-0.2-0.1l0.4-0.2L41.7,33l-0.1,0.1    l0-0.1L41.5,33l0-0.2l-0.2-0.1l-0.1,0.2L41.2,32.7z M33.2,33.1l0,0.1L33.2,33.1L33.2,33.1z M45.1,33.1L45,33.3l0.1-0.1L45.1,33.1z     M44.9,33.3l-0.2,0.4l0.1,0.3l0.2,0.1L44.9,34l0-0.2l0.3,0L45,33.7l0.2-0.1l0-0.2l-0.3,0.3l0.1-0.1L44.9,33.3z M19,33.6l0.1,0.1    L19,33.6L19,33.6z M33.7,33.6l0.1,0.3l0.5,0.3l0.3,0.4l0.4,0.2l0.1,0.4l0.3,0.2l0.1,0.1l0.5,0.6l0.8,0.5l0.2,0.2l0-0.1l0.2,0.1    l0-0.1l0.1,0.1l0.1-0.7l-0.2-0.2l-0.3,0l0,0.1l0-0.1l-0.1,0l0-0.3l-0.4-0.1l0.2-0.3l-0.2-0.1l-0.1,0l0-0.1l0,0L36.4,35l-0.1,0    l0,0.1l-0.5-0.4l0,0.2l-0.3-0.3l-0.1-0.1l-0.6-0.3l0-0.1l-0.3-0.2L33.7,33.6z M44,33.7L43.6,34l-1,0.1l-0.1,0.2l-0.1,0l-0.1,0.1    l0,0l-0.1,0.2l-0.1,0l0.1,0.2l0,0l-0.1,0.2l0,0.2l-0.2,0.3l0,0.2l0.2,0l0,0.4l0,0.2l0.2,0l0.2,0l-0.1-0.7l0.2-0.1l0.1,0l-0.1,0.2    l0.2,0.1l0,0.2l0.2,0l0-0.1l0.2-0.1L43,35.4l0.1-0.1L42.8,35l0.1,0l0.6-0.5l-0.6,0.2l-0.2,0.2l-0.1,0l-0.2-0.2l0.1-0.3l1.3-0.3    L44,33.7z M38.3,33.9L38.3,33.9l0,0.2L38.3,33.9L38.3,33.9L38.3,33.9z M44.8,34L44.8,34l0,0.2l0.1-0.1L44.8,34z M45.6,34.2    l-0.2,0.1L45.6,34.2L45.6,34.2z M44.8,34.3l-0.1,0.1l0.2,0l0,0L44.8,34.3z M33.9,34.4l0.3,0.1L34,34.5l0,0L33.9,34.4z M45.6,34.5    l-0.4,0.1l-0.3,0.2l0,0.1l0.1-0.2l0.1,0.1l0.4-0.2l0.3,0L45.6,34.5z M44.1,34.6l-0.3,0l-0.1,0.1L44.1,34.6z M43.5,34.7l-0.2,0    l0,0.1l0,0L43.5,34.7z M34.5,34.8L34.5,34.8l0,0.2l0.2,0.1l0-0.1L34.5,34.8z M36.2,34.8l0,0.1L36.2,34.8L36.2,34.8z M37,34.9    l-0.1,0L37,34.9l0,0.1L37,34.9z M44.5,34.9L44.3,35l0.2,0.1l0.2-0.1L44.5,34.9z M37,35.2L37,35.2l0.2,0.1L37,35.2z M18.9,35.4    L18.9,35.4l0.1,0.1L18.9,35.4z M35,35.5l-0.1,0.1l0.2,0.2L35,35.5z M43.3,35.5l-0.1,0.2l0,0.2l0.2-0.2l-0.1,0L43.3,35.5z     M37.5,35.6l-0.2,0l-0.1,0.1l0.2,0l0.1,0.2l0.3,0l0-0.1l-0.2,0L37.5,35.6z M43.2,35.6l-0.1,0.1l0,0.2l0.1,0l0-0.1L43.2,35.6z     M38.1,35.9l0,0.2l0.1,0l0.1-0.1L38.1,35.9z M35.5,36l0.1,0.1L35.5,36L35.5,36z M44.5,36.1l-0.3,0l-0.1,0.1L44.5,36.1z M44.6,36.2    l-0.7,0.2l-0.1,0.1l0,0l-0.2,0.1l0,0l-0.1,0.1l0,0l-0.1,0.1l0,0.1l0,0.1l0.2,0l0.2-0.1l0.2-0.1l0,0l0,0L44.6,36.2z M43.9,36.4    l-0.2,0l-0.1,0.1L43.9,36.4L43.9,36.4z M43.7,36.4l-0.1,0L43.7,36.4L43.7,36.4z M43.2,36.5l-0.1,0.2l-0.3,0.1l-0.3,0l-0.2,0.1    l-0.1,0l0.1,0l0.5-0.1L43.2,36.5L43.2,36.5z M45.8,36.6l-0.2,0l0,0.1l-0.1,0l0.2,0.1L45.8,36.6z M45.5,36.7l-0.1,0.1L45.5,36.7    L45.5,36.7z M37.5,36.8L37.4,37L37.2,37l0.4,0l0,0.1l0.5,0l0.3-0.1l0.7,0.1l1.1,0l0.2,0l0-0.2L40,37l-0.2-0.2l-0.5,0L39,36.9    l-0.5,0l-0.2-0.1L37.5,36.8z M40.3,36.8l-0.5,0.1l0.3,0L40.3,36.8z M41.6,36.9L41.6,36.9l0.1,0.1l-0.4,0l-0.1,0.1l0.1,0.1l0.7-0.3    L41.6,36.9z M41,37l-0.1,0.2l0.2,0l0-0.2L41,37z M40.6,37l-0.2,0l0.2,0.2l0.2-0.2L40.6,37z M42.2,37l-0.3,0.1l0.3,0.1l0,0l0.1,0    l0.1-0.1l0,0L42.2,37L42.2,37z M22.1,37.3l0.2,0.1L22.1,37.3L22.1,37.3z M22.6,37.4L22.6,37.4L22.6,37.4L22.6,37.4z M44.9,37.9    L44.7,38l0,0.1L44.9,37.9z M45.6,40.6l-0.4,0.1l0.1,0L45.6,40.6z M28.5,42.5l0.1,0L28.5,42.5L28.5,42.5z M28.6,42.5L28.6,42.5    L28.6,42.5L28.6,42.5z M28.7,42.6L28.7,42.6L28.7,42.6L28.7,42.6z M28.7,42.6L28.7,42.6L28.7,42.6l0.2,0.1l0,0L28.7,42.6z"/>
	</g>
</g>
</svg>