<svg width="42" height="42" viewBox="0 0 42 42" fill="none" xmlns="http://www.w3.org/2000/svg">
<path d="M21 1.3125C17.1062 1.3125 13.2998 2.46715 10.0622 4.63044C6.82463 6.79373 4.30123 9.8685 2.81113 13.4659C1.32103 17.0633 0.931152 21.0218 1.6908 24.8408C2.45045 28.6598 4.3255 32.1678 7.07884 34.9212C9.83219 37.6745 13.3402 39.5496 17.1592 40.3092C20.9782 41.0689 24.9367 40.679 28.5341 39.1889C32.1315 37.6988 35.2063 35.1754 37.3696 31.9378C39.5329 28.7002 40.6875 24.8938 40.6875 21C40.6811 15.7805 38.6048 10.7767 34.9141 7.08593C31.2233 3.3952 26.2195 1.31893 21 1.3125ZM3.30751 16.0388L4.04251 17.115C4.07584 17.1625 4.08965 17.221 4.08111 17.2784C4.07256 17.3358 4.0423 17.3877 3.99657 17.4234L3.24845 17.9944C3.07584 18.1249 2.95683 18.3139 2.91376 18.5259L2.67751 19.6547C2.76189 18.4308 2.97302 17.219 3.30751 16.0388ZM35.5031 13.7747C35.6801 13.783 35.8505 13.8444 35.9922 13.9509C36.1338 14.0575 36.2401 14.2041 36.2972 14.3719L36.33 14.4638C36.3957 14.6643 36.5231 14.8389 36.694 14.9626C36.8649 15.0864 37.0706 15.1529 37.2816 15.1528H38.4169C38.5732 15.5986 38.7068 16.052 38.8172 16.5112L37.7344 17.5941C37.7154 17.6129 37.6929 17.6278 37.6681 17.638C37.6433 17.6481 37.6168 17.6533 37.59 17.6531H35.9756C35.9492 17.6531 35.9231 17.6478 35.8987 17.6375C35.8744 17.6272 35.8524 17.6121 35.834 17.5932C35.8157 17.5742 35.8013 17.5517 35.7918 17.527C35.7823 17.5024 35.7779 17.4761 35.7788 17.4497C35.779 17.2871 35.7328 17.1279 35.6456 16.9907C35.5584 16.8535 35.4339 16.7441 35.2866 16.6753C35.14 16.6037 34.9758 16.5761 34.8139 16.5959C34.652 16.6157 34.4994 16.6821 34.3744 16.7869L31.3688 19.2281C30.8423 19.6533 30.418 20.1913 30.1272 20.8024C29.8364 21.4134 29.6866 22.082 29.6888 22.7588V25.1147C29.6886 25.2268 29.7106 25.3378 29.7534 25.4414C29.7962 25.545 29.8589 25.6391 29.9381 25.7184L32.0184 27.8053C32.182 27.9643 32.4007 28.0536 32.6288 28.0547H33.4163C33.7861 28.0555 34.1481 27.9486 34.4581 27.747C34.7681 27.5453 35.0127 27.2578 35.1619 26.9194L37.2028 29.6691C35.632 32.6007 33.2956 35.0515 30.4424 36.7607C27.5892 38.4698 24.326 39.3733 21 39.375C20.9081 39.375 20.8228 39.375 20.7309 39.3684V39.1978C20.7309 39.076 20.7793 38.9591 20.8655 38.873C20.9516 38.7868 21.0685 38.7384 21.1903 38.7384C21.5536 38.7367 21.9014 38.5917 22.1583 38.3348C22.4151 38.078 22.5602 37.7301 22.5619 37.3669V36.1528C22.5617 36.0371 22.6058 35.9258 22.6851 35.8416C22.7644 35.7574 22.873 35.7067 22.9884 35.7C23.2223 35.684 23.4451 35.5939 23.6244 35.4429C23.8037 35.2919 23.9304 35.0878 23.9859 34.86C24.0482 34.633 24.0352 34.392 23.9488 34.1731C23.8624 33.9542 23.7074 33.7692 23.5069 33.6459L20.0091 31.4147C19.9439 31.3734 19.8904 31.3162 19.8537 31.2484C19.8169 31.1807 19.7981 31.1046 19.7991 31.0275V30.3778C19.7973 30.0831 19.679 29.801 19.47 29.5932C19.261 29.3854 18.9782 29.2687 18.6834 29.2687H18.1191C17.7808 29.267 17.457 29.1314 17.2184 28.8916C16.9799 28.6518 16.8459 28.3273 16.8459 27.9891C16.8459 27.8426 16.8171 27.6975 16.761 27.5621C16.705 27.4268 16.6228 27.3038 16.5192 27.2002C16.4156 27.0966 16.2926 27.0144 16.1573 26.9584C16.0219 26.9023 15.8768 26.8734 15.7303 26.8734H10.6116C10.3168 26.8752 10.0347 26.9935 9.82694 27.2025C9.61914 27.4115 9.5025 27.6943 9.50251 27.9891V28.3303C9.50253 28.441 9.46296 28.5481 9.39095 28.6322L8.22938 29.9906C8.07533 30.1706 7.98322 30.3954 7.96668 30.6317C7.95014 30.868 8.01003 31.1034 8.13751 31.3031L8.89876 32.5303C8.9547 32.6263 9.02816 32.7108 9.11532 32.7797L11.8978 35.2078C11.9465 35.2519 11.9857 35.3055 12.0128 35.3653C12.0399 35.4252 12.0544 35.4899 12.0553 35.5556V37.0453C9.19727 35.4526 6.81632 33.1257 5.15847 30.3049C3.50062 27.4841 2.62601 24.2719 2.62501 21C2.62501 20.9147 2.62501 20.8228 2.63157 20.7375C2.85643 21.9358 3.54504 22.9971 4.54782 23.6906L8.91845 26.9719C8.97603 27.0129 9.04461 27.0358 9.11532 27.0375C9.17317 27.0364 9.22974 27.0203 9.27946 26.9907C9.32917 26.9611 9.3703 26.919 9.39879 26.8687C9.42728 26.8183 9.44215 26.7614 9.44193 26.7035C9.4417 26.6457 9.42639 26.5889 9.39751 26.5387L7.40251 23.2116C7.3697 23.1459 7.3697 23.1197 7.36313 23.1197C7.3895 23.0907 7.42056 23.0662 7.45501 23.0475L7.9997 22.7456C8.05172 22.7148 8.09444 22.6704 8.12332 22.6173C8.15221 22.5642 8.16618 22.5042 8.16376 22.4438C8.16148 22.3845 8.1432 22.327 8.11084 22.2773C8.07849 22.2276 8.03328 22.1876 7.98001 22.1616L6.62157 21.5053C6.58183 21.4854 6.54882 21.4543 6.52664 21.4158C6.50447 21.3773 6.49412 21.3331 6.49688 21.2887L6.5297 20.5012C6.52979 20.4714 6.53628 20.4418 6.54873 20.4147C6.56118 20.3875 6.57931 20.3633 6.60188 20.3438C6.64724 20.3042 6.70579 20.2831 6.76595 20.2847L8.43282 20.3569C8.46284 20.3561 8.49264 20.3622 8.51994 20.3747C8.54724 20.3872 8.57131 20.4058 8.59032 20.4291L10.0406 22.0041C10.1557 22.1346 10.3076 22.227 10.4764 22.2692C10.6451 22.3114 10.8227 22.3013 10.9856 22.2403C11.1519 22.1817 11.2969 22.0749 11.4022 21.9334C11.5074 21.792 11.568 21.6224 11.5763 21.4463L11.6091 20.5669C11.61 20.5371 11.6168 20.5079 11.6292 20.4808C11.6416 20.4538 11.6593 20.4295 11.6813 20.4094L13.8075 18.4538C13.8565 18.4152 13.9159 18.3923 13.9781 18.3881L15.5597 18.4603C15.7916 18.4685 16.0175 18.3862 16.1897 18.2306C16.2756 18.1529 16.3453 18.0589 16.3948 17.9542C16.4444 17.8495 16.4728 17.736 16.4784 17.6203L16.5178 16.6884C16.518 16.6595 16.5246 16.631 16.5371 16.6049C16.5496 16.5788 16.5676 16.5558 16.59 16.5375L18.4144 14.8575C18.579 14.7009 18.6776 14.4872 18.69 14.2603L18.7819 12.7181C18.8016 12.2784 18.4734 11.5959 17.9353 11.5697L16.1109 11.5041C15.9889 11.5013 15.8676 11.5231 15.7542 11.5682C15.6407 11.6132 15.5375 11.6806 15.4506 11.7663C15.3637 11.8519 15.2949 11.9542 15.2482 12.067C15.2016 12.1798 15.1781 12.3008 15.1791 12.4228C15.1762 12.4482 15.1668 12.4723 15.1518 12.493C15.1369 12.5137 15.1169 12.5302 15.0938 12.5409C15.0494 12.5667 14.9996 12.5819 14.9484 12.5853C14.8972 12.5887 14.8459 12.5803 14.7984 12.5606C14.3259 12.3375 14.1422 11.5369 14.0241 11.0119L13.965 10.7888C13.9573 10.7546 13.9574 10.7191 13.9654 10.685C13.9733 10.6509 13.9889 10.6191 14.0109 10.5919C14.0335 10.5634 14.0625 10.5408 14.0957 10.5259C14.1288 10.5111 14.165 10.5044 14.2013 10.5066L16.9772 10.6247C17.2383 10.6372 17.4993 10.5977 17.745 10.5085C17.9907 10.4194 18.2163 10.2823 18.4086 10.1052C18.6009 9.92817 18.7561 9.71468 18.8653 9.47716C18.9744 9.23964 19.0353 8.9828 19.0444 8.72156L19.1231 6.86438C19.132 6.63046 19.048 6.40253 18.8894 6.23038C18.7307 6.05823 18.5104 5.95586 18.2766 5.94563L17.4169 5.91281C17.361 5.91157 17.3076 5.88924 17.2674 5.85029C17.2272 5.81135 17.2033 5.75867 17.2003 5.70281C17.2003 4.11469 16.3866 3.90469 16.0388 3.89156C15.4895 3.89162 14.9603 4.0977 14.5556 4.46906C14.3238 4.70908 14.0095 4.85215 13.6763 4.86937C13.5517 4.8655 13.4307 4.82648 13.3274 4.7568C13.224 4.68713 13.1425 4.58966 13.0922 4.47563C13.0856 4.4625 13.0791 4.44281 13.0725 4.42969C15.5446 3.23669 18.2551 2.61967 21 2.625C21.3675 2.625 21.7284 2.63812 22.0894 2.66437L22.5684 3.92438C22.6418 4.11421 22.7705 4.27763 22.9378 4.39347C23.1051 4.50931 23.3034 4.57223 23.5069 4.57406H25.9875C26.0691 4.57165 26.1486 4.59973 26.2106 4.65281L27.9366 6.06375C27.9814 6.10101 28.0162 6.14882 28.038 6.20288C28.0597 6.25694 28.0677 6.31556 28.0612 6.37347C28.0547 6.43138 28.0339 6.48677 28.0007 6.53465C27.9675 6.58254 27.9229 6.62142 27.8709 6.64781L27.6741 6.75938C27.5509 6.82452 27.4428 6.91486 27.3569 7.02454C27.271 7.13422 27.2091 7.26076 27.1753 7.39594C27.1407 7.53122 27.1345 7.6722 27.1571 7.81C27.1797 7.9478 27.2306 8.07942 27.3066 8.19656L28.5403 10.0603C28.644 10.2174 28.7894 10.3424 28.9603 10.4213L30.2334 10.9987C30.2944 11.0275 30.3459 11.073 30.3819 11.13C30.4179 11.1869 30.437 11.2529 30.4369 11.3203V13.6041C30.4374 13.7532 30.4705 13.9004 30.534 14.0353C30.5975 14.1702 30.6898 14.2896 30.8044 14.385C30.8429 14.4128 30.875 14.4484 30.8985 14.4897C30.9221 14.5309 30.9365 14.5767 30.9409 14.6239C30.9452 14.6712 30.9394 14.7188 30.9238 14.7637C30.9082 14.8085 30.8831 14.8494 30.8503 14.8837L29.6034 16.3078C29.3989 16.5432 29.292 16.8479 29.3047 17.1595C29.3173 17.4711 29.4486 17.7661 29.6716 17.9841C29.8947 18.2021 30.1926 18.3266 30.5044 18.3322C30.8162 18.3378 31.1184 18.224 31.3491 18.0141L34.1119 15.5006C34.2506 15.3738 34.3517 15.211 34.4038 15.0304C34.4559 14.8497 34.4571 14.6582 34.4072 14.4769C34.3926 14.4277 34.3838 14.3771 34.3809 14.3259C34.3816 14.2497 34.3976 14.1744 34.4281 14.1044C34.4585 14.0345 34.5028 13.9715 34.5581 13.9191C34.6725 13.8134 34.8225 13.7549 34.9781 13.755L35.5031 13.7747Z" fill="url(#paint0_radial_1_298)"/>
<path d="M23.6972 5.96532H22.2009C22.1629 5.96574 22.125 5.95907 22.0894 5.94563L20.7309 5.52563C20.6819 5.51258 20.6306 5.51052 20.5807 5.5196C20.5308 5.52867 20.4835 5.54866 20.4422 5.57813C20.3998 5.60754 20.3651 5.64676 20.3411 5.69247C20.3171 5.73818 20.3045 5.78901 20.3044 5.84063V6.72C20.3063 6.7972 20.3151 6.87406 20.3306 6.94969L21.2363 10.9791C21.2794 11.1733 21.377 11.3511 21.5176 11.4918C21.6583 11.6324 21.8361 11.73 22.0303 11.7731C22.104 11.7859 22.1787 11.7925 22.2534 11.7928C22.4146 11.7929 22.5735 11.7549 22.7172 11.6819C22.8609 11.6089 22.9853 11.503 23.0803 11.3728L24.5306 9.43032C24.6647 9.24991 24.7383 9.03166 24.7406 8.80688V7.00219C24.7396 6.72638 24.6291 6.46226 24.4335 6.26784C24.2378 6.07343 23.973 5.96462 23.6972 5.96532Z" fill="#409D8B"/>
<defs>
<radialGradient id="paint0_radial_1_298" cx="0" cy="0" r="1" gradientUnits="userSpaceOnUse" gradientTransform="translate(21 21) rotate(147.529) scale(26.0768 26.0768)">
<stop stop-color="#14BB9B"/>
<stop offset="1" stop-color="#578B82"/>
</radialGradient>
</defs>
</svg>
