<svg width="42" height="46" viewBox="0 0 42 46" fill="none" xmlns="http://www.w3.org/2000/svg">
<path d="M24.0839 0.307789L23.9266 0.506621L24.2456 0.668173L24.1668 0.788301L24.0839 0.825583L24.6432 1.26467L23.7692 0.867005L24.0467 1.26467L23.7692 1.06583L23.6076 1.58363L23.4502 1.42208L23.649 1.02442L23.4502 0.746878L23.2513 0.987133L23.0525 0.867005L23.0112 1.50078L22.8123 1.26467L22.9324 0.867005L22.4933 1.3848L22.891 1.62091H22.8537L22.4146 1.66233L22.5348 1.86117L22.8537 1.69961L23.0525 1.78246L22.5762 1.93987H23.0112L22.891 2.06L22.7336 1.98129L22.5348 2.06L22.9655 2.09728L23.1313 2.18013L22.4146 2.2174L22.9324 2.49494H22.5762L22.6549 2.69377L22.336 2.45766L22.1371 2.7352L22.1785 2.77662L22.6134 2.89261L22.2158 2.8139L22.0957 2.89261L22.4146 3.21156H22.2158L22.4146 3.37311L22.2158 3.29027L22.1785 3.72936L22.336 3.84949L22.5762 3.68793L22.7336 4.20572L22.4561 4.36727L22.2945 4.96377L22.9324 5.12118L23.2513 4.88093L23.3715 5.04247L23.0112 5.19988L23.3715 5.12118L22.8123 5.39872H23.3301L23.21 5.59755L23.4502 5.71768L23.7692 5.67625L23.5704 5.56027H23.8478L23.968 5.27859L24.3657 5.19988L24.5645 5.27859L25.5586 5.56027L25.5959 5.83781L25.6746 5.67625L26.2338 6.15676L26.6687 6.27275L26.5115 6.39288L26.6687 6.35559L26.7683 6.55029L26.7888 6.75326L27.1494 6.67041L26.8303 6.27275L27.1494 6.513L27.3482 6.31417L27.3068 6.59171L27.464 6.39288V6.67041L27.5469 6.513V6.63313L27.7459 6.55443L27.6256 6.67041L28.1021 6.79054L27.5843 6.86924L27.3855 7.1095H27.982L28.2593 6.86924L28.3009 6.91067L28.5412 7.34975L28.6984 7.22963L28.7773 7.38704L28.5784 7.34975L28.8974 7.58587L28.9388 7.82613L29.2164 7.7847L28.6199 8.02495L28.9388 7.98353L28.6984 8.10366L28.856 8.3812L28.9761 7.94625V8.06224L29.2537 7.82613L28.8974 8.4599L29.295 8.18236L28.9761 8.58003L29.3737 8.50132L29.2537 8.74158L29.4938 8.65873L29.5353 8.30249L29.6927 8.26107L29.4938 9.01911L29.7714 8.77886L29.6513 9.09782L29.9329 9.17652L29.9702 8.82028L30.169 8.77886L29.9702 9.21795L30.049 9.13924L30.2478 9.41678L30.3306 9.21795L30.2892 9.45406L30.5294 9.65289V9.21795L30.2892 9.0564L30.8857 9.25523L30.5667 9.33807L30.7655 9.29665L30.6081 9.65289L30.8857 9.41678L30.6869 9.69431L30.8443 9.61561V9.85172L31.0431 9.69431L31.0058 9.89315L31.2046 9.77302L31.0431 9.93457L31.2834 9.81444L31.4407 10.092V9.85172L31.5609 10.2121L31.8384 10.1334L31.8798 10.3322L31.9999 10.1707V10.3695L32.0372 10.2121L32.1201 10.3695L32.236 10.3322L32.1574 10.4896L32.3562 10.2908L32.2775 10.4896L32.5178 10.3322L32.7953 10.5311L33.0315 9.93457L33.0728 10.3322L33.1142 10.0506L33.1931 10.3695L33.2302 10.1334L33.3919 10.2908L33.3503 10.0506L33.5119 10.4109L33.4704 10.092L33.6692 10.3695L33.628 10.1334L33.9095 10.0506H33.5119L33.7481 9.81444H33.5119L33.5493 9.57419L33.3503 9.69431L33.5119 9.53691H33.3132L33.3919 9.33807L33.2302 9.41678L33.3132 9.21795L33.1931 9.29665V9.0564L32.7953 9.01911L32.9941 8.94041H32.6751L32.8325 8.65873L32.5964 8.54275L32.7953 8.50132L32.5178 8.4599L32.7166 8.3812H32.555L32.6337 8.18236L32.3976 8.22379L32.6337 8.10366L32.3976 7.98353L32.1987 8.06224L32.3189 7.82613L31.8384 7.66457L32.0372 7.54859L31.8384 7.34975L31.8011 7.30833L31.9999 6.98937L31.6023 6.67041L31.7597 6.59171L31.8798 6.83197L32.0372 6.79054L31.8384 6.67041L31.9999 6.71184L32.0372 6.39288L31.8384 6.35559L31.9999 6.19404L31.4407 5.51884L31.4034 5.24131L31.0058 5.12118H31.362L31.4822 4.88093L31.3248 4.76494H31.4822L31.4407 4.16844L30.9271 3.25299L30.8857 3.17428L30.5294 3.53052L30.6454 3.92819V3.96961L30.6081 4.00689L30.4881 4.0856L30.4093 3.68793L30.3348 3.87019L30.4093 3.4891L30.1318 3.4104L30.3306 3.88262V3.88677L30.2478 4.08561L29.9702 3.68794L30.1318 3.60924L30.049 3.3317L29.6927 3.68794V3.48911L29.4525 3.53053L30.0117 3.21157L30.6081 3.253L30.4093 3.05416L30.6454 3.13287V2.97546H30.2892L30.0904 2.81391L30.049 2.89262L29.9329 2.77663V2.93404L29.8128 2.81391L29.4152 2.93404L29.5353 3.13287L29.4152 3.05416L29.3365 3.1743L29.3737 2.93404H29.1749L29.2537 3.1743L29.0176 3.21157V2.85534L28.856 3.1743V2.97546L28.6572 3.01275L28.8974 2.93404L28.7773 2.69378L28.4583 2.73521L28.7773 2.6565L28.6199 2.5778L28.8187 2.37896L28.6984 2.5778L29.0176 2.49495L28.9761 2.18014L28.74 2.09729L28.5784 2.21742L28.8187 2.33754H28.5412L28.2593 2.18014L28.4997 1.9813L28.5412 1.93988L28.4211 1.81975L28.3423 1.93988L28.2593 2.01859L28.0232 1.89846L27.9031 2.09729L27.9447 1.86118L27.663 2.01859L27.982 1.81975L28.0232 1.78247L27.663 1.66234L27.6256 1.69962L27.464 1.86118L27.3855 1.62092L27.3068 1.81975H26.9877L27.0291 1.54221V1.34338L26.7102 1.26468L26.59 1.42209L26.5527 1.50079L26.5115 1.38481L26.4699 1.30196L26.3539 1.34338L26.2338 1.38481L26.4326 1.54221L26.1551 1.46351L25.7161 1.14455L25.1195 0.825592L25.1982 1.02443V1.06585L24.9994 1.02443L24.9621 0.987144L24.8006 0.62676L24.7219 0.904298V0.987144L24.6805 0.904298L24.6018 0.506632L24.0839 0.307789Z" fill="url(#paint0_radial_1_390)"/>
<path d="M29.4938 8.65872L29.295 8.82028H29.4525V9.0191L29.4938 8.65872Z" fill="url(#paint1_radial_1_390)"/>
<path d="M28.8974 7.58586L28.6199 7.70599L28.5412 7.98352L28.8974 7.58586Z" fill="url(#paint2_radial_1_390)"/>
<path d="M27.8618 1.54224L28.1021 1.69965L28.1435 1.54224H27.8618Z" fill="url(#paint3_radial_1_390)"/>
<path d="M28.5412 2.01858L28.3796 2.09728L28.4583 2.21741L28.5412 2.01858Z" fill="url(#paint4_radial_1_390)"/>
<path d="M21.6193 2.5364L21.3418 2.77666L21.3831 2.61511L20.6252 2.77666L20.4678 2.93407L20.3475 3.09147L20.6252 3.33173L20.1487 3.2116L20.0702 3.37315L20.3063 3.48914L19.9913 3.41043L19.6724 3.68797H19.9085L19.8712 3.84952L20.1073 3.7294L19.9499 4.00693L20.389 3.77082L19.9913 4.04835L20.2274 4.16848L20.6252 3.8081L20.389 4.04835V4.16848L20.5878 3.96965H20.7452L20.6665 4.12706L20.8655 4.00693L20.9027 3.8868L21.0643 3.53056L20.9854 3.84952L21.2217 3.8081L20.944 4.00693L20.7039 4.20576L21.1016 4.52472L20.6665 4.28447H20.3475L20.9027 4.84368L21.1016 4.80226L20.944 4.96381L21.1016 5.07979L20.7452 4.96381L20.5463 5.07979V5.39875L20.7039 5.24134L20.8239 5.36147V5.12122L20.9854 5.63901L21.2217 5.32005L21.0643 5.75914L20.5051 5.56031L20.7866 5.87513L20.4264 6.23551L20.6252 6.31421L20.5878 6.11538L20.7866 6.31421L20.7452 6.1568L20.9027 6.31421L20.8655 6.1568L21.1016 6.27279L21.1844 6.07395L21.3831 6.1568L21.3004 5.99525L21.4992 6.1568L21.3831 5.95797L21.7395 6.23551L21.8596 6.1568L22.0584 5.99525L21.9797 5.71772H21.698L21.4205 5.75914L21.3004 5.47746L21.6193 5.56031H21.818L21.7395 5.24134L22.0168 5.16264L21.818 5.07979L22.0168 4.96381L21.7807 4.92239L21.9797 4.80226L21.4205 4.72356L21.8969 4.60343L21.4205 4.56615L21.8969 4.32589L21.698 4.20576L22.0168 4.16848L21.9797 3.96965H21.7807L21.9797 3.8868L21.818 3.77082L21.9797 3.8081L22.0584 3.17432L21.7395 3.48914L21.8596 3.2116H21.5819L21.8969 3.1329L21.9797 2.85536L21.9383 2.65653L21.6193 2.5364Z" fill="url(#paint5_radial_1_390)"/>
<path d="M29.1749 2.53639V2.77664L29.233 2.70622L29.1749 2.85535H29.4152L29.6927 2.6938L29.2742 2.65651L29.3737 2.53639H29.1749Z" fill="url(#paint6_radial_1_390)"/>
<path d="M29.0962 2.57782L28.8187 2.69381L28.8974 2.89264L29.0962 2.57782Z" fill="url(#paint7_radial_1_390)"/>
<path d="M19.5522 3.84953L19.3949 4.12706L19.5937 4.28447L19.3119 4.36732L19.5522 4.56615L19.3119 4.48331V4.60344L19.5937 4.64486L19.5108 4.9224L20.0702 4.88097L19.6311 5.04252L19.9913 5.24135L19.8298 5.32006L19.9499 5.44019H20.3063L20.1902 5.19993L20.389 5.39876L20.3475 4.96382L20.4678 5.16265L20.7039 4.76499L20.5463 4.60344L20.389 4.68214L20.2274 4.24719L20.1902 4.44603L19.5522 3.84953Z" fill="url(#paint8_radial_1_390)"/>
<path d="M18.3178 4.88093L18.3593 5.16261L18.5581 5.19989L18.4007 5.44014L18.5996 5.36144L18.9557 5.56027L19.0758 5.63898L18.9557 5.27859L18.9143 5.16261L18.3178 4.88093Z" fill="url(#paint9_radial_1_390)"/>
<path d="M17.6426 5.12117L17.3237 5.32001L17.8042 5.27858L17.6426 5.12117Z" fill="url(#paint10_radial_1_390)"/>
<path d="M19.196 5.16261L19.2333 5.56027L19.4735 5.63898L19.5937 5.36144L19.196 5.16261Z" fill="url(#paint11_radial_1_390)"/>
<path d="M32.7437 44.728L32.6152 44.471L32.2775 44.2497L31.6023 44.2124L31.2419 44.2911L31.0431 44.4485L30.4093 44.8876L29.9329 44.8089L30.0117 44.929L29.7341 44.9663L29.295 44.5313L28.6985 43.9721L28.9761 42.3028L28.8187 41.8264L27.8618 41.5861L26.035 42.0625L25.5586 42.0252L25.9563 41.3873V40.592H25.7947L25.9563 40.3145L26.1137 40.6707L26.3125 39.8381L26.1137 39.7967L26.59 38.7652L25.7947 38.7238L24.6018 39.2416L24.4029 40.1943L23.9266 40.7908L23.4875 40.7121L22.2572 41.1512L21.818 40.7908L21.4205 40.8322L20.2274 38.9641L20.1902 38.6451L20.1487 37.5308L20.1902 37.0917L20.4264 36.9757L20.3475 37.2118L20.5463 36.6568L20.389 35.8987L20.1902 35.8614H20.389L20.5051 35.3437L20.944 35.1448L20.7866 34.9874L21.143 35.0247L21.0227 35.1034L21.6193 34.7472L21.6608 34.3495L21.9383 34.4282L21.7807 34.5483L22.2945 34.3081L23.1313 34.3495L23.3715 34.1507L23.9266 34.5483L24.1254 34.3495L24.3242 34.4696L24.2456 34.1921L24.4817 34.2294L24.7219 34.5483L24.9207 34.3495L24.523 34.1921L24.7633 33.9518L24.523 33.9104L24.1254 33.8317L25.3183 33.5956L25.3598 33.3139L25.4758 33.5542L25.3598 33.6743L25.8734 33.3553L25.7947 33.5127L26.3125 33.3553L26.1551 33.434L26.6315 33.3968L26.7103 33.5542L26.8303 33.753L27.2279 33.4755L27.3855 33.3553L27.5843 33.3968L27.663 33.434L28.3009 33.9518V34.5483L28.4997 34.4696L28.4211 34.7886L28.6199 35.0661L28.8187 34.9874L29.0548 35.5839L29.4525 35.6999V35.9816L29.7341 35.8614V35.9816L29.8501 34.8673L28.9761 33.1151L28.6199 32.4399L28.9761 31.7233L28.856 31.5658L29.0176 31.686L29.2537 31.3256L29.7341 30.5717L30.7282 29.5361L30.4093 29.5775L30.6081 29.3373L30.3306 29.3L30.7655 29.2586L30.9271 29.0225L30.807 28.8236L30.7655 29.0597L30.7282 28.8609L30.4093 28.981L30.6081 28.7035L30.807 28.7822L30.6454 28.426L30.9643 28.9023L30.6081 28.3058L30.0904 28.2271L30.3679 28.2644L30.1318 28.0283L30.3306 28.1857L30.3679 27.9454L30.3306 27.9289V27.7466L29.7714 27.6306V27.4318L30.2892 27.6679L29.9329 26.9927L30.2478 26.7152L30.1318 27.1915L30.6081 27.6306L30.5667 28.1857L30.7655 27.2703L30.3679 26.5536L30.7655 26.914L30.9643 26.3175L30.7655 25.9199L30.9643 25.4808L31.8011 25.0044L31.7225 24.6854L31.8798 24.8843L32.3562 24.5653L32.236 24.3665L32.1987 24.6067L31.7597 24.3292L31.8011 23.4137L31.9586 23.335L31.8798 23.1362H32.1574L32.1201 22.6184L32.1987 22.8587L32.3562 22.577L32.5179 22.6971L32.7953 22.2207L32.5964 22.0219H32.9154L33.4704 21.1852L33.3919 21.5828L33.5493 21.5041L33.9469 21.3053L33.7894 21.6242L33.5493 21.5041L33.1931 22.2622L33.3503 22.6971L33.6692 22.7758L33.8268 21.9018L34.1083 21.8645L34.0256 21.703L34.7048 21.0278L34.8209 20.8703L34.6263 20.8206L34.941 20.3526L34.9825 20.2738L34.9036 20.2324L34.7422 20.191V20.6301L34.6221 20.7088L34.7048 20.2324L34.5061 19.8348L34.386 20.5887L34.6097 20.8165L34.3446 20.7502L33.9095 21.1065L33.2303 20.9863L32.9941 20.5887L32.7953 20.7088V20.191L32.555 20.4313L32.4348 20.2738L32.0787 20.3898L32.5964 20.1123L32.7953 19.7561L32.5179 19.3957L31.9586 19.5945L31.4407 20.2324L30.7655 21.7444L31.0058 20.9863L30.8857 20.7088L31.5236 19.7146L31.5609 19.2383L31.6023 19.0394L33.6692 17.9666H33.7107L33.7481 17.2085L34.1872 16.8109L34.3073 16.2144L34.0256 16.1357L34.2245 16.0155L33.9095 16.0984L34.1083 15.9783L33.9095 15.9368L33.8682 15.5806L33.512 15.4605L33.3919 15.8167L33.2716 15.5019L32.9154 15.5392L32.6337 16.2144L32.8325 15.5806L32.5964 15.8995L32.9941 15.2202L32.7166 15.2616V15.1415L32.4763 15.3403L32.3562 15.1829L32.3189 15.3403L32.2775 15.1829L32.2697 15.2699L32.1205 15.3818V15.2202L32.0791 15.3031L31.959 15.5392L31.8015 15.0628V15.2616L31.7229 15.1042L31.3625 15.1829L31.4038 14.9841L31.205 15.1042L31.2838 14.9841H31.0849L31.205 14.864L30.8861 14.9054L31.1636 14.8225L31.0849 14.545L30.6458 14.5077L30.7659 14.3462L30.4885 14.2675L30.447 14.1101L30.2896 14.3462L30.331 13.9899L30.1322 14.226L30.1694 13.9112L30.0121 13.7497L29.7718 13.8698L29.892 13.7124L29.2954 13.4307V13.2733H29.138L29.1753 13.671L29.4156 13.8284L29.2541 13.9899L29.4156 14.0272L29.2954 14.2675L29.4942 14.545L29.2168 14.2675L29.0966 14.9054L28.8564 14.6237L28.8191 15.0214L28.6989 14.545L28.1439 14.7853L28.1812 14.5864L28.3427 14.6651L28.3013 14.3462L28.1439 14.4249L27.9824 14.0686L27.6634 14.1473L27.9824 13.9899L27.7463 13.4307L27.7048 13.6296L27.1498 13.5923L27.0668 13.352L26.8681 13.4307L26.2715 13.0745L26.1555 13.352L25.2774 13.3147L25.1614 13.5508L25.4762 13.9112L25.4389 14.3876L25.6377 14.3089L25.8738 14.7438L25.7578 15.6593L26.3543 15.8995L26.8681 16.7736V16.6949L27.1082 16.8937L26.8681 16.931V16.7736L26.7106 17.5275L26.1141 18.124L26.4703 18.3228L27.0295 19.3957L26.8681 19.7561L27.0668 20.075L26.7892 19.8348L26.7106 20.191H26.6319H26.3916L26.3543 19.9135L25.5176 19.317L25.1614 18.0039L24.1672 18.1654L22.0588 17.1712L21.3835 17.4902L21.4996 17.2085L21.1434 16.4132H20.8243V16.612L20.5882 16.2558L20.5467 15.3818L20.9446 14.6237L20.8243 14.5077L21.3008 14.0686L21.102 13.9485H21.4209L21.5823 13.7124L21.2221 13.4307L21.0647 13.5508L21.102 13.3934L20.6255 13.352V13.1532L21.5411 13.5508L21.6612 13.1159L22.179 13.0331L22.3778 12.4366L21.2635 12.1217L21.5411 12.0389L22.2162 12.3206L22.4937 11.8028L22.2162 11.604L23.0116 11.7241L22.5352 11.3264L22.8541 11.285L23.0529 11.5625L23.3719 10.8459L22.8914 10.3695L23.1317 10.2121L22.9328 10.092L23.0116 9.89316L22.5766 9.81446L22.6926 9.69433L22.0172 9.73576L22.3778 10.2908L22.179 10.3323V11.1649L21.9801 11.3264L21.5823 10.3323L21.3008 10.1707L21.2221 10.8086L20.8243 10.1707L21.0647 10.092L20.5055 10.0133L20.5467 9.85174V9.69433L20.7456 9.73576L20.029 8.77888L19.6728 9.45408L19.8302 9.4955L19.7929 9.89316V9.97187L20.4268 10.2121L20.2278 10.2494L20.1906 10.5684L20.3479 10.411L20.4268 10.6471L20.029 10.966L20.1077 11.4838L19.7929 11.3264L19.9089 10.8459L19.7514 11.0075L19.7929 10.8459L19.5941 10.7299L19.2751 10.8086L19.3953 11.0862L19.5941 11.0447V11.3264L19.2751 10.966L19.2337 11.2063L18.9561 11.2436H18.4384L18.1609 10.9287H17.8047L17.5644 10.4482L16.9265 10.7672L17.2081 10.8873L17.643 10.6471L17.0465 11.0862L17.2454 11.4838L17.2081 11.6412L17.0465 11.5625L17.1667 11.9229L16.8892 11.4838L17.0465 11.3637L16.6116 10.8873L16.1725 11.0447L15.4187 10.8459L15.4559 10.6098L15.7749 10.5684L15.6175 10.2494L15.1784 10.1334L14.6607 9.69433L14.3415 9.4168L13.7451 9.4955L13.8654 9.13926L13.9066 9.05641L13.8281 9.13926L13.509 9.45408L13.4302 8.97771L13.3474 8.62147V8.899H13.19L12.4734 9.05641L12.8338 8.77888L12.9912 8.65875L12.7137 8.7416L12.0757 8.85758L11.8396 8.8203L11.9184 8.54277L11.4793 8.65875L11.442 9.01913L10.9242 8.1451L10.684 7.66459L10.6052 7.54861L9.56968 6.59173L9.49098 6.35561L9.65259 6.27277L9.41227 6.07393L9.45366 5.83783L9.17196 5.87511L9.41227 5.75912L9.45366 5.59757L9.01455 5.63899L8.81576 5.44016L8.53826 5.56029L8.57544 5.47744L8.65822 5.44016L8.29795 5.32003L8.09916 5.36145L7.42381 5.47744L7.14644 5.1999L6.82743 5.27861L6.70733 5.91653L6.47123 6.15678L6.67002 6.51302L6.4297 6.71186L6.54993 6.95211L6.38832 6.71186L6.54993 6.39289L6.27243 6.91068L5.91203 6.51302L6.11082 6.23549L5.2782 5.95795V6.43432L5.11672 6.31419L4.88061 6.67043L5.15797 7.22964L5.2782 7.15094L5.15797 7.30835H5.55569L5.6344 7.50718H5.3569L5.19529 7.82615L4.95918 7.90485L4.83909 7.70602L4.4415 7.74744L4.39998 7.46576L3.32717 7.78472L3.20708 8.02497L3.32717 8.18238H3.16977L3.20708 8.30251L3.28986 8.58005L3.09107 8.45992L2.77218 8.77888L3.20708 9.05641L2.80937 9.61563L2.49455 9.65291L2.97098 9.85174V9.97187L2.89214 10.411L3.28986 10.1707L3.12825 10.4482L3.52597 10.5311L3.12825 10.6471L2.73066 11.0862L1.81513 11.0075H1.69925L1.45893 11.2436L1.26014 10.8873L0.862419 10.9287L0.903939 11.1649L1.18143 11.0447L1.10273 11.2063L1.53777 11.285L1.57902 11.3264L1.50045 11.4838L3.20708 11.285L3.64619 11.4051L4.12248 11.2436L4.00239 11.0075L4.16387 10.8459L5.71323 10.5684L6.03212 10.7299H5.71323L5.7918 11.0862L5.59301 10.7672L5.2782 10.7299L4.76039 11.0862L4.95918 11.2436L4.56159 11.4051L5.15797 11.5252L5.2782 11.3637L5.23681 11.5252L5.39408 11.3264L5.55569 11.5625L5.83319 11.4424V11.1276L6.23091 11.0447L6.03212 11.2436L6.23091 11.1649L6.15221 11.3264H6.47123L6.27243 11.4051L6.38832 11.5252H6.23091L6.38832 11.5625L6.27243 11.7241L6.50854 11.8815L6.47123 12.2004L7.18376 12.5567L7.26653 12.9543L7.38255 12.9171L7.58134 12.8756L7.66412 13.0745L7.46533 13.1532L7.58134 12.9171L7.34523 13.0745L7.70144 14.226H7.90023L7.86292 13.7124L7.97906 13.9899L8.09916 13.8284L7.94175 14.226L8.14054 14.4249L8.45943 13.7124L8.26063 14.3876L8.37665 14.545L8.57544 14.4249L8.33934 14.6651L8.53826 14.864H8.37665L8.49674 15.1042L8.37665 14.9054L8.41817 15.1415L8.21925 15.1829L8.57544 15.9783L8.17786 16.2558L8.41817 16.1771L8.65822 16.0984V16.3345L8.37665 16.8937L8.73706 16.6535L8.97317 16.3345L8.65822 16.8109L8.77437 16.931L8.45943 17.0097L8.37665 17.1712L8.61696 17.3701L8.37665 17.4488L8.49674 17.8879L8.85715 17.6062L8.73706 17.8464L8.93585 17.9666L8.65822 17.805L8.85715 18.4429L8.53826 18.6003L8.73706 18.5216L8.69554 18.7205L9.09326 18.5631L8.61696 18.9607V19.1968L8.81576 19.1181L8.53826 19.2383L8.77437 19.317L8.49674 19.3584L8.89433 19.4785H8.53826L9.01455 19.6774H8.85715L8.93585 19.7933L9.25487 19.7146L8.89433 19.8348L9.05607 20.0336L9.21348 19.8762L9.09326 20.0336L9.28798 20.1123L9.25487 20.1537H9.56968L9.29205 20.3898L9.45366 20.5887L9.61107 20.4727L9.68977 20.3898V20.51L9.73116 20.7088L9.53236 20.7875L9.85138 20.7502L9.73116 21.1479L9.92995 21.384L9.68977 22.2995L9.73116 21.8645L9.41227 22.142L9.73116 21.703L9.01455 21.3467L8.93585 22.2995H9.09326L8.85715 22.6971L9.09326 22.7758L8.89433 22.7385L8.06184 24.6854L8.02045 25.5595L7.70144 26.1187L7.74296 27.1501L7.94175 27.788L8.29795 27.8295V28.2271L8.14054 27.9869L8.09916 28.3431L8.65822 29.8178L8.57544 30.174L8.85715 30.3314L9.53236 30.7291L9.96727 31.3256L10.4851 33.434L10.5638 33.5956L11.3219 34.5483L11.1603 34.8259L11.3219 35.0247L10.7254 34.8673L11.442 35.6212L11.6781 35.5011L12.1545 36.0976L12.1172 36.8556L13.0699 37.7296L13.2314 38.1273L13.5462 38.0072L13.3889 37.4894L12.9125 37.2533L12.5936 35.8987L11.997 35.0661L11.9556 34.6685L11.1603 33.5542L11.1231 32.4026L11.997 32.9577L12.1959 33.753L12.316 34.2294L12.3121 34.2335L12.1962 34.3495L12.3163 34.5069V34.2418L12.3536 34.3909L12.8713 35.1034L13.1903 35.1863L13.1489 35.5011L13.8656 36.2177L13.7081 36.5367L14.4247 36.9757V37.2533L15.535 38.3676L15.9325 39.2416L15.7337 39.5978L15.8954 39.718L15.6177 39.7967L15.7337 40.0369L16.8895 41.0684L17.805 41.3086L18.3185 41.7063L18.9564 41.9051L21.0234 42.543L22.378 42.2241L24.2048 43.2555L25.9156 43.4543L25.7581 43.4171L26.5535 43.2182L26.6322 43.4958L26.3919 43.5372L27.6636 44.2911L27.5062 44.4112L27.6636 44.4485V44.8462H27.8251L27.8624 44.8089H27.9826L28.0612 44.7675L27.9038 44.6888L28.1814 44.7675H28.223L28.9394 45.1279L28.9767 45.4054H29.1382L29.0554 45.2438L29.3743 45.5255L29.4944 45.364L30.0497 45.2853L30.2112 45.5255L30.4473 45.364L30.5674 45.6829L30.845 45.6042L31.0852 45.4054L30.8077 45.0864L31.0438 44.8876L31.5616 44.4899L31.9593 44.7302L32.1994 44.6473L32.0006 44.929L32.3501 45.1937L32.4263 44.9269L32.5058 45.0068L32.7444 44.728L32.7437 44.728Z" fill="url(#paint12_radial_1_390)"/>
<path d="M8.41778 16.1771L8.26024 16.3759L8.33894 16.4547L8.45496 16.3428L8.41778 16.1771Z" fill="url(#paint13_radial_1_390)"/>
<path d="M8.45496 16.3428L8.29755 16.5333H8.49635L8.45496 16.3428Z" fill="url(#paint14_radial_1_390)"/>
<path d="M3.20669 8.30249L2.97058 8.26107L2.92906 8.42262L3.16938 8.4599L3.20669 8.30249Z" fill="url(#paint15_radial_1_390)"/>
<path d="M17.245 5.47743L17.2077 5.67626L17.4852 5.79639L17.6426 5.56027L17.245 5.47743Z" fill="url(#paint16_radial_1_390)"/>
<path d="M16.3709 5.63897L16.2136 5.7591L15.6171 6.19404L15.9319 6.11533L15.9733 6.31417L16.0147 6.35559L16.4497 5.91651V6.19404L16.8888 5.7591L16.6899 5.63897H16.3709Z" fill="url(#paint17_radial_1_390)"/>
<path d="M19.751 5.67628L19.4321 5.79641L19.8298 5.83783L19.751 5.67628Z" fill="url(#paint18_radial_1_390)"/>
<path d="M20.1073 5.75909L20.269 5.9165L20.3063 5.75909H20.1073Z" fill="url(#paint19_radial_1_390)"/>
<path d="M3.92316 5.95793L3.72437 6.07392V6.59171L3.96468 6.67041L3.92316 5.95793Z" fill="url(#paint20_radial_1_390)"/>
<path d="M17.6841 6.11536L17.4438 6.35561L17.564 6.83198L17.2077 6.79056L16.81 6.15678L16.6485 6.27277L16.81 6.35561L16.4497 6.43432L16.7272 6.4716L16.3296 6.59173H16.6485L16.1721 6.75328L16.4497 6.95211L16.7687 6.71186L16.7272 6.95211L17.2077 6.91068L16.6112 7.10952L16.8888 7.30835L17.564 7.06809L18.0031 7.10952L18.119 6.67043L17.9616 6.55445L17.8829 6.79056L17.7213 6.67043L17.6841 6.11536Z" fill="url(#paint21_radial_1_390)"/>
<path d="M19.3949 6.11536L19.6311 6.51302L19.9913 6.39289L20.2274 7.10952L20.6252 7.30835L20.824 7.06809L20.9854 7.30835L21.6608 7.15094L21.6193 6.95211L21.9383 7.10952L22.1785 6.91068L22.2572 6.79056H22.1371H22.0584L22.0957 6.67043V6.51302H22.0168L21.7395 6.43432L21.0643 6.79056L20.6665 6.67043V6.83198L20.4678 6.55445L20.3063 6.67043L20.4264 6.51302L20.1903 6.43432L20.5463 6.39289L20.1903 6.31419L20.269 6.23549L19.9086 6.39289L19.8299 6.11536H19.3949Z" fill="url(#paint22_radial_1_390)"/>
<path d="M16.3709 6.27279L16.0147 6.47162H16.2136L16.3709 6.27279Z" fill="url(#paint23_radial_1_390)"/>
<path d="M19.1546 6.27278L19.0758 6.43433L18.9557 6.39291L18.7984 6.35562L18.9557 6.67044L18.6782 6.39291L18.7984 6.75329L18.5166 6.83199L18.9557 6.79057H18.9972L18.9557 6.86927L18.8357 6.9894L18.9557 7.18823L19.2747 7.15095L19.3949 6.95212L19.1546 6.27278Z" fill="url(#paint24_radial_1_390)"/>
<path d="M19.7925 6.79056L19.5108 7.15094L20.0286 7.30835L19.7925 6.79056Z" fill="url(#paint25_radial_1_390)"/>
<path d="M14.9003 6.91069L14.9376 7.26693L14.105 8.02498L14.3039 8.10368L14.3826 8.65875L14.9376 8.58005L15.0993 8.30251L15.178 8.26109L16.2923 7.70602L16.0147 7.26693L15.7331 7.34978L15.6171 7.18823L15.4555 6.95212L14.9003 6.91069Z" fill="url(#paint26_radial_1_390)"/>
<path d="M27.7832 7.15095L27.5469 7.30836L27.6256 7.38706L27.8244 7.5859L28.0232 7.42849L28.1021 7.62732L28.2593 7.30836L27.9447 7.18823L27.7832 7.15095Z" fill="url(#paint27_radial_1_390)"/>
<path d="M22.3772 7.42848L22.2572 7.46576L22.4933 7.82614H22.5348L22.6922 7.90485L23.2513 7.70601L22.8537 7.42848H22.3772Z" fill="url(#paint28_radial_1_390)"/>
<path d="M22.1371 7.5072L21.6193 7.82616L21.8969 7.94628L21.5819 7.98356L21.8969 8.10369L21.5407 8.06227L21.9797 8.50136L21.7395 8.38123L21.6193 8.54278L21.9797 8.70019L22.0168 9.09785L21.9383 8.97772L21.0643 9.17656L21.2631 9.45409L21.4992 9.57422L21.7807 9.37539L21.9383 9.65292H22.0168L22.8123 9.53694L22.6922 9.49552L22.4561 9.37539L22.7751 9.49552L23.0112 9.61565L22.8537 9.45409L22.7751 9.41681H23.1313L23.4088 9.37539L23.3301 9.33811L23.1313 9.17656L23.21 8.97772L23.5289 9.29668L23.6863 9.41681L23.7277 9.25526L23.7692 9.45409L23.968 9.37539L24.2041 9.53694L24.1254 9.89318L24.2828 9.65292L24.6432 9.85176L24.7219 9.73577L25.3971 10.3323L25.3598 10.6885L25.5959 10.6471L25.3598 10.7299L25.1982 11.1276L25.5959 11.4424L25.1195 11.7241H24.6805L24.7219 12.3206L25.6373 12.0803L25.4758 11.8028L25.8734 12.0389L25.8362 11.8401L26.1924 12.2377H26.6315L26.4326 12.3993L26.6315 12.5194L28.3796 12.5567L27.1078 11.9229L27.5469 12.0016L27.3481 11.8028L28.4211 12.0803L27.9447 11.5253L28.3009 11.7241L28.0605 11.3637L27.7043 11.285L27.8244 11.1649L27.5469 11.0075L27.464 11.2063L27.2652 11.0075L27.3481 11.2063L26.909 10.7672L26.7888 10.966L26.5527 10.6471L26.8677 10.5684L26.4699 10.3323L26.7515 10.2121L27.0664 10.411V10.2121L27.1494 10.4897L27.3068 10.1334L27.2652 10.5311L27.982 10.7672L27.6256 10.2494L27.9447 10.3323L27.663 10.092L27.9447 10.0506L27.6256 9.97189L27.9031 9.85176L27.663 9.77306L27.8244 9.65292L27.5469 9.53694V9.81448L27.4268 9.65292L27.2652 9.85176L27.2279 9.49552V9.77306L27.1867 9.57422L27.0291 9.81448L27.1078 9.61565L26.909 9.65292L27.0664 9.57422L26.7888 9.41681L26.7102 9.57422V9.61565L26.5115 9.45409L26.59 9.65292L26.4699 9.41681V9.61565L26.3539 9.41681L26.3125 9.53694L26.1551 9.37539L25.9935 9.49552L26.1924 9.29668L25.5586 9.33811L25.8734 9.21798L25.6746 9.05643L25.5586 9.21798L25.6746 9.01915H25.4385L25.9563 8.94045L25.7574 8.82032L25.1982 9.01915L25.6746 8.70019L25.5959 8.58006H25.5586L25.3183 8.45993L25.2397 8.70019V8.58006L25.0409 8.77889L25.2397 8.38123L24.9207 8.34395L24.842 8.58006V8.30252L24.7633 8.8576L24.7219 8.58006L24.6018 8.70019L24.6432 8.2611L24.4444 8.62149L24.4817 8.22382L24.1668 8.10369L24.0839 8.50136L23.9266 8.10369L23.8065 8.50136L23.7692 8.22382L23.649 8.2611L23.7692 7.98356L23.4088 8.22382L23.4875 7.82616H23.0112L22.891 8.02499L23.2513 8.10369L22.891 8.14511L23.21 8.34395L22.6549 8.06227V8.14511L22.5762 8.42265L22.5348 7.94628L22.1371 7.5072Z" fill="url(#paint29_radial_1_390)"/>
<path d="M21.2631 7.58586L20.9026 8.02494L20.944 8.97768L21.5407 9.0191L21.9383 8.9404L21.6193 8.58002L21.4618 8.18235L21.5819 7.58586H21.2631Z" fill="url(#paint30_radial_1_390)"/>
<path d="M20.6252 7.66458L19.751 7.70601L19.9085 8.77887L20.1902 8.50134L20.0286 8.34393L20.4264 8.3025L20.6252 7.66458Z" fill="url(#paint31_radial_1_390)"/>
<path d="M18.7984 7.78474L18.877 8.02499L18.6782 7.98357L18.9557 8.1037L18.9972 8.14512L18.9557 8.26111L18.9143 8.38124L18.5581 8.1824L18.438 8.42266L18.9557 8.97773L19.1131 9.13928L19.3119 9.09786V8.97773L19.5522 8.94045L19.5937 8.38124L19.2333 8.22383L19.4735 7.82617L18.9557 7.78474H18.7984Z" fill="url(#paint32_radial_1_390)"/>
<path d="M16.4124 7.82613L15.5343 8.14508L15.2982 8.50132L15.5343 8.62145L15.3768 8.74158L16.0147 8.77886L15.2982 8.89899L15.3354 9.17652L16.1308 9.25523L16.5698 9.53691L15.2982 9.49548V9.53691L15.3768 9.89315L15.9319 10.2121L15.9733 10.5311H16.9261L17.5225 10.1334L17.8042 10.4896L18.5581 10.4482L18.438 10.1707L18.2391 10.4109L18.2019 10.0506L18.4007 10.1707L18.6368 9.93457L18.7569 10.092V9.89315V9.81445L18.0403 9.29665L18.0031 8.30249L17.7628 8.02495L17.4852 8.06224L17.4438 8.94041L17.1663 8.14508H17.0089L17.1249 8.4599L16.9675 8.34391L16.8888 8.50132L16.6899 8.4599L16.8888 8.26107L16.6485 8.06224L16.2508 8.26107L16.4124 7.82613Z" fill="url(#paint33_radial_1_390)"/>
<path d="M17.8042 7.82616L17.7213 7.94628L18.0403 8.22382L18.1605 7.90486L17.8042 7.82616Z" fill="url(#paint34_radial_1_390)"/>
<path d="M23.2886 9.45405L23.1727 9.5369L23.0525 9.6156H23.21L23.2886 9.45405Z" fill="url(#paint35_radial_1_390)"/>
<path d="M19.3949 9.97189L19.196 10.5311L19.751 10.7672L20.0286 10.5311L19.3949 9.97189Z" fill="url(#paint36_radial_1_390)"/>
<path d="M24.8793 10.092L24.6805 10.1707H24.9994L24.8793 10.092Z" fill="url(#paint37_radial_1_390)"/>
<path d="M24.2041 10.1334L24.3657 10.7299L24.6805 10.5311L24.6018 10.1707L24.2041 10.1334Z" fill="url(#paint38_radial_1_390)"/>
<path d="M4.00199 11.5252L3.84459 11.7241H4.16348L4.00199 11.5252Z" fill="url(#paint39_radial_1_390)"/>
<path d="M3.32678 11.604L3.16937 11.6827V11.9602H3.28946L3.09067 12.0803H3.60428V11.9229L3.68705 12.0803L3.88598 11.8815L3.76589 11.6412L3.56696 11.7614L3.60428 11.604L3.36817 11.9229L3.32678 11.604Z" fill="url(#paint40_radial_1_390)"/>
<path d="M22.8537 11.7614L23.0112 11.9229H23.21L22.8537 11.7614Z" fill="url(#paint41_radial_1_390)"/>
<path d="M22.5762 11.9229L22.6922 12.9958L22.4933 13.352L22.891 13.1946L23.0898 13.5135L23.5289 12.7969L23.7277 13.033L24.1668 13.0745L24.3242 12.8342L24.0467 12.6768L23.8065 12.8342L23.7692 12.5194L22.9324 12.1217L22.8537 12.2791L22.5762 11.9229Z" fill="url(#paint42_radial_1_390)"/>
<path d="M28.7773 12.5567L28.5784 12.6768L28.7773 12.7555V12.5567Z" fill="url(#paint43_radial_1_390)"/>
<path d="M25.0409 12.8756L24.8006 12.9171L24.9994 13.0745L25.0409 12.8756Z" fill="url(#paint44_radial_1_390)"/>
<path d="M24.0467 13.4307L23.7277 13.5508L23.5289 13.8284L23.649 13.9899L24.0467 13.4307Z" fill="url(#paint45_radial_1_390)"/>
<path d="M24.7219 13.5508L24.7633 13.9899L24.8793 13.7911L24.7219 13.5508Z" fill="url(#paint46_radial_1_390)"/>
<path d="M15.9733 13.9485H15.6958L15.6171 14.11L15.9733 13.9485Z" fill="url(#paint47_radial_1_390)"/>
<path d="M7.77974 14.2675L7.66372 14.7853L7.77974 14.5865L7.94135 14.7853L7.82113 14.4249L7.97866 14.6652L8.09875 14.545L7.77974 14.2675Z" fill="url(#paint48_radial_1_390)"/>
<path d="M8.21885 14.3462L7.89983 15.1415L8.17746 15.0214L8.33894 14.5864L8.21885 14.3462Z" fill="url(#paint49_radial_1_390)"/>
<path d="M7.97866 15.2202L7.74255 15.7794L7.94135 15.419L7.97866 15.2202Z" fill="url(#paint50_radial_1_390)"/>
<path d="M8.06144 15.2202L7.97867 15.5806L8.14015 15.6593L8.29755 15.4191L8.06144 15.2202Z" fill="url(#paint51_radial_1_390)"/>
<path d="M7.97866 15.6178L7.82113 16.0569L7.97866 16.1356L7.77974 16.2972L7.94135 16.5333L7.97866 16.7736L8.14014 16.4546L7.94135 16.2972L8.17746 16.3345L7.97866 15.6178Z" fill="url(#paint52_radial_1_390)"/>
<path d="M34.4233 16.496L34.3073 17.2913L34.4647 17.689L34.6221 18.0038L34.4647 18.124L34.7048 18.2855H34.506L34.4233 18.8406L34.7422 18.6003L34.5848 19.1595L34.7422 19.2797L34.941 18.998L35.5001 18.8406L35.6577 18.4015L35.7363 18.7619L36.0968 18.3642L35.9352 18.998L36.1754 18.7992L36.2127 18.124L36.4115 18.2855L36.5317 18.6832L36.5731 18.3228L36.7305 18.6417L36.8921 18.563L36.7305 17.9665L36.6104 17.8878L36.5317 18.124L36.453 17.7263V18.1654L36.2542 18.0867L36.2956 17.9251L36.1341 17.8878L36.2956 17.5275L36.0139 17.8464L35.898 17.2499L35.6162 17.4488L35.5001 17.2913L35.4174 17.7677L35.3387 17.4488L35.1026 17.689V17.2913L34.9036 17.4488L34.8624 17.4073L34.8209 17.3286V17.4488V17.7677L34.7837 17.4902L34.6636 16.7321L34.4647 16.6534L34.6221 16.5747L34.4233 16.496Z" fill="url(#paint53_radial_1_390)"/>
<path d="M25.9149 16.8937L25.8362 17.3701L26.035 17.2085L26.0724 17.3286V17.2085L25.9149 16.8937Z" fill="url(#paint54_radial_1_390)"/>
<path d="M7.50225 16.931L7.38216 17.6062L7.62234 18.3228L7.50225 17.805L7.70104 17.7263L7.50225 17.5689L7.97867 17.1298L7.54364 17.3287L7.74256 17.1298L7.50225 16.931Z" fill="url(#paint55_radial_1_390)"/>
<path d="M8.57505 17.9252L8.45903 18.2856L8.53786 18.2441V18.5217L8.57505 17.9252Z" fill="url(#paint56_radial_1_390)"/>
<path d="M32.9941 18.7619L32.3562 18.9607L33.3919 18.998V18.8406L32.9941 18.7619Z" fill="url(#paint57_radial_1_390)"/>
<path d="M25.8734 19.0809L25.5959 19.2797L26.1137 19.3584L25.8734 19.0809Z" fill="url(#paint58_radial_1_390)"/>
<path d="M8.17746 19.4785L8.21885 19.7147H8.49635L8.21885 19.9135L8.49635 20.0336L8.53787 20.1123L8.77398 20.8704L9.13425 20.8289L8.93545 21.1065L9.56928 21.4669L9.21308 20.3526L9.13425 20.1123L8.17746 19.4785Z" fill="url(#paint59_radial_1_390)"/>
<path d="M34.1456 20.4313L33.4704 20.7875L33.2716 20.4727V20.7875L33.9469 20.8704L34.1456 20.4313Z" fill="url(#paint60_radial_1_390)"/>
<path d="M31.1259 34.4282L31.4034 34.5898L31.3248 34.946L31.4407 34.9874V34.5483L31.1259 34.4282Z" fill="url(#paint61_radial_1_390)"/>
<path d="M31.7225 35.1034L32.0787 35.3436L32.1201 35.5425L32.0787 35.2649L31.7225 35.1034Z" fill="url(#paint62_radial_1_390)"/>
<path d="M30.9643 35.5425L30.8857 35.8987L31.1632 36.0189L31.2834 35.7413L30.9643 35.5425Z" fill="url(#paint63_radial_1_390)"/>
<path d="M31.362 35.9816L31.2419 36.0976L31.2834 36.139L31.362 35.9816Z" fill="url(#paint64_radial_1_390)"/>
<path d="M31.2834 36.139L31.4034 36.2591L31.4407 36.0975L31.2834 36.139Z" fill="url(#paint65_radial_1_390)"/>
<path d="M34.0669 36.8556L33.7481 37.1746L34.0669 37.0917V36.8556Z" fill="url(#paint66_radial_1_390)"/>
<path d="M38.1223 36.9343L37.327 37.3319L37.4056 37.5722L38.0022 37.2532L38.1223 36.9343Z" fill="url(#paint67_radial_1_390)"/>
<path d="M40.3509 36.9343L40.1894 37.1332L40.3095 37.2533L40.5083 36.9758L40.3509 36.9343Z" fill="url(#paint68_radial_1_390)"/>
<path d="M30.3306 37.0544L30.2105 37.0917H29.5726L28.0232 37.6882L27.9447 38.1273L27.5843 38.2847L28.1021 38.1687L28.74 37.5722L29.2164 37.4894L29.3737 37.5722L29.0962 37.6882L29.295 37.771L30.3306 37.6882L31.0058 37.6509L31.4034 38.0486L31.9213 37.9699L31.9999 38.1273L31.7225 38.4835L33.1931 38.0072L33.5907 37.6882L32.7166 37.7296L32.6751 37.4521L32.0372 37.5722L30.3306 37.0544Z" fill="url(#paint69_radial_1_390)"/>
<path d="M35.8151 37.2119L34.3073 37.6095L34.0256 37.8498H34.4233V38.1273L34.7048 38.2847L33.7107 38.5664L33.5907 38.7652L33.9469 38.8812L34.9036 38.4049L35.26 38.6451L35.3801 38.3676L35.579 38.0072L36.6518 37.7297L36.7719 37.4521H36.0553L36.2956 37.2533L35.9766 37.3734L35.8151 37.2119Z" fill="url(#paint70_radial_1_390)"/>
<path d="M28.6572 38.0486L28.6984 38.3261V38.2847L28.9388 38.206L28.8187 38.0486H28.6572Z" fill="url(#paint71_radial_1_390)"/>
<path d="M32.2775 39.1629L31.4822 39.4404L31.8798 39.5978L32.2775 39.4777L32.7166 39.3203L32.2775 39.1629Z" fill="url(#paint72_radial_1_390)"/>
<path d="M41.1048 39.7179L40.7486 39.9955L40.906 40.1156L40.6699 40.3931L41.1462 40.0742L41.1048 39.7179Z" fill="url(#paint73_radial_1_390)"/>
<defs>
<radialGradient id="paint0_radial_1_390" cx="0" cy="0" r="1" gradientUnits="userSpaceOnUse" gradientTransform="translate(28.0026 5.41943) rotate(-90) scale(5.11164 5.90693)">
<stop stop-color="#16B798"/>
<stop offset="1" stop-color="#3E837A"/>
</radialGradient>
<radialGradient id="paint1_radial_1_390" cx="0" cy="0" r="1" gradientUnits="userSpaceOnUse" gradientTransform="translate(29.3944 8.83891) rotate(-90) scale(0.180192 0.0993965)">
<stop stop-color="#16B798"/>
<stop offset="1" stop-color="#3E837A"/>
</radialGradient>
<radialGradient id="paint2_radial_1_390" cx="0" cy="0" r="1" gradientUnits="userSpaceOnUse" gradientTransform="translate(28.7193 7.78469) rotate(-90) scale(0.19883 0.178099)">
<stop stop-color="#16B798"/>
<stop offset="1" stop-color="#3E837A"/>
</radialGradient>
<radialGradient id="paint3_radial_1_390" cx="0" cy="0" r="1" gradientUnits="userSpaceOnUse" gradientTransform="translate(28.0026 1.62094) rotate(-90) scale(0.078705 0.140852)">
<stop stop-color="#16B798"/>
<stop offset="1" stop-color="#3E837A"/>
</radialGradient>
<radialGradient id="paint4_radial_1_390" cx="0" cy="0" r="1" gradientUnits="userSpaceOnUse" gradientTransform="translate(28.4604 2.11799) rotate(-90) scale(0.099414 0.0808054)">
<stop stop-color="#16B798"/>
<stop offset="1" stop-color="#3E837A"/>
</radialGradient>
<radialGradient id="paint5_radial_1_390" cx="0" cy="0" r="1" gradientUnits="userSpaceOnUse" gradientTransform="translate(20.8654 4.42531) rotate(-90) scale(1.8889 1.19296)">
<stop stop-color="#16B798"/>
<stop offset="1" stop-color="#3E837A"/>
</radialGradient>
<radialGradient id="paint6_radial_1_390" cx="0" cy="0" r="1" gradientUnits="userSpaceOnUse" gradientTransform="translate(29.4338 2.69587) rotate(-90) scale(0.15948 0.258904)">
<stop stop-color="#16B798"/>
<stop offset="1" stop-color="#3E837A"/>
</radialGradient>
<radialGradient id="paint7_radial_1_390" cx="0" cy="0" r="1" gradientUnits="userSpaceOnUse" gradientTransform="translate(28.9574 2.73523) rotate(-90) scale(0.15741 0.138749)">
<stop stop-color="#16B798"/>
<stop offset="1" stop-color="#3E837A"/>
</radialGradient>
<radialGradient id="paint8_radial_1_390" cx="0" cy="0" r="1" gradientUnits="userSpaceOnUse" gradientTransform="translate(20.0079 4.64486) rotate(-90) scale(0.795327 0.695975)">
<stop stop-color="#16B798"/>
<stop offset="1" stop-color="#3E837A"/>
</radialGradient>
<radialGradient id="paint9_radial_1_390" cx="0" cy="0" r="1" gradientUnits="userSpaceOnUse" gradientTransform="translate(18.6968 5.25995) rotate(-90) scale(0.379022 0.378997)">
<stop stop-color="#16B798"/>
<stop offset="1" stop-color="#3E837A"/>
</radialGradient>
<radialGradient id="paint10_radial_1_390" cx="0" cy="0" r="1" gradientUnits="userSpaceOnUse" gradientTransform="translate(17.5639 5.22059) rotate(-90) scale(0.0994165 0.240248)">
<stop stop-color="#16B798"/>
<stop offset="1" stop-color="#3E837A"/>
</radialGradient>
<radialGradient id="paint11_radial_1_390" cx="0" cy="0" r="1" gradientUnits="userSpaceOnUse" gradientTransform="translate(19.3949 5.40079) rotate(-90) scale(0.238185 0.19886)">
<stop stop-color="#16B798"/>
<stop offset="1" stop-color="#3E837A"/>
</radialGradient>
<radialGradient id="paint12_radial_1_390" cx="0" cy="0" r="1" gradientUnits="userSpaceOnUse" gradientTransform="translate(17.9224 25.4414) rotate(-90) scale(20.2415 17.06)">
<stop stop-color="#16B798"/>
<stop offset="1" stop-color="#3E837A"/>
</radialGradient>
<radialGradient id="paint13_radial_1_390" cx="0" cy="0" r="1" gradientUnits="userSpaceOnUse" gradientTransform="translate(8.3576 16.3159) rotate(-90) scale(0.138769 0.0973598)">
<stop stop-color="#16B798"/>
<stop offset="1" stop-color="#3E837A"/>
</radialGradient>
<radialGradient id="paint14_radial_1_390" cx="0" cy="0" r="1" gradientUnits="userSpaceOnUse" gradientTransform="translate(8.39695 16.4381) rotate(-90) scale(0.0952732 0.0993965)">
<stop stop-color="#16B798"/>
<stop offset="1" stop-color="#3E837A"/>
</radialGradient>
<radialGradient id="paint15_radial_1_390" cx="0" cy="0" r="1" gradientUnits="userSpaceOnUse" gradientTransform="translate(3.06788 8.36048) rotate(-90) scale(0.0994165 0.138814)">
<stop stop-color="#16B798"/>
<stop offset="1" stop-color="#3E837A"/>
</radialGradient>
<radialGradient id="paint16_radial_1_390" cx="0" cy="0" r="1" gradientUnits="userSpaceOnUse" gradientTransform="translate(17.4251 5.63691) rotate(-90) scale(0.15948 0.217452)">
<stop stop-color="#16B798"/>
<stop offset="1" stop-color="#3E837A"/>
</radialGradient>
<radialGradient id="paint17_radial_1_390" cx="0" cy="0" r="1" gradientUnits="userSpaceOnUse" gradientTransform="translate(16.2529 5.99728) rotate(-90) scale(0.358311 0.635866)">
<stop stop-color="#16B798"/>
<stop offset="1" stop-color="#3E837A"/>
</radialGradient>
<radialGradient id="paint18_radial_1_390" cx="0" cy="0" r="1" gradientUnits="userSpaceOnUse" gradientTransform="translate(19.631 5.75705) rotate(-90) scale(0.0807754 0.19886)">
<stop stop-color="#16B798"/>
<stop offset="1" stop-color="#3E837A"/>
</radialGradient>
<radialGradient id="paint19_radial_1_390" cx="0" cy="0" r="1" gradientUnits="userSpaceOnUse" gradientTransform="translate(20.2068 5.8378) rotate(-90) scale(0.078705 0.0994639)">
<stop stop-color="#16B798"/>
<stop offset="1" stop-color="#3E837A"/>
</radialGradient>
<radialGradient id="paint20_radial_1_390" cx="0" cy="0" r="1" gradientUnits="userSpaceOnUse" gradientTransform="translate(3.84453 6.31417) rotate(-90) scale(0.356238 0.120157)">
<stop stop-color="#16B798"/>
<stop offset="1" stop-color="#3E837A"/>
</radialGradient>
<radialGradient id="paint21_radial_1_390" cx="0" cy="0" r="1" gradientUnits="userSpaceOnUse" gradientTransform="translate(17.1455 6.71185) rotate(-90) scale(0.596496 0.973473)">
<stop stop-color="#16B798"/>
<stop offset="1" stop-color="#3E837A"/>
</radialGradient>
<radialGradient id="paint22_radial_1_390" cx="0" cy="0" r="1" gradientUnits="userSpaceOnUse" gradientTransform="translate(20.8261 6.71185) rotate(-90) scale(0.596496 1.43111)">
<stop stop-color="#16B798"/>
<stop offset="1" stop-color="#3E837A"/>
</radialGradient>
<radialGradient id="paint23_radial_1_390" cx="0" cy="0" r="1" gradientUnits="userSpaceOnUse" gradientTransform="translate(16.1928 6.3722) rotate(-90) scale(0.0994165 0.178099)">
<stop stop-color="#16B798"/>
<stop offset="1" stop-color="#3E837A"/>
</radialGradient>
<radialGradient id="paint24_radial_1_390" cx="0" cy="0" r="1" gradientUnits="userSpaceOnUse" gradientTransform="translate(18.9558 6.73051) rotate(-90) scale(0.457727 0.439171)">
<stop stop-color="#16B798"/>
<stop offset="1" stop-color="#3E837A"/>
</radialGradient>
<radialGradient id="paint25_radial_1_390" cx="0" cy="0" r="1" gradientUnits="userSpaceOnUse" gradientTransform="translate(19.7697 7.04946) rotate(-90) scale(0.258894 0.258907)">
<stop stop-color="#16B798"/>
<stop offset="1" stop-color="#3E837A"/>
</radialGradient>
<radialGradient id="paint26_radial_1_390" cx="0" cy="0" r="1" gradientUnits="userSpaceOnUse" gradientTransform="translate(15.1986 7.78472) rotate(-90) scale(0.874032 1.09363)">
<stop stop-color="#16B798"/>
<stop offset="1" stop-color="#3E837A"/>
</radialGradient>
<radialGradient id="paint27_radial_1_390" cx="0" cy="0" r="1" gradientUnits="userSpaceOnUse" gradientTransform="translate(27.9031 7.38913) rotate(-90) scale(0.238185 0.356201)">
<stop stop-color="#16B798"/>
<stop offset="1" stop-color="#3E837A"/>
</radialGradient>
<radialGradient id="paint28_radial_1_390" cx="0" cy="0" r="1" gradientUnits="userSpaceOnUse" gradientTransform="translate(22.7542 7.66666) rotate(-90) scale(0.238185 0.497052)">
<stop stop-color="#16B798"/>
<stop offset="1" stop-color="#3E837A"/>
</radialGradient>
<radialGradient id="paint29_radial_1_390" cx="0" cy="0" r="1" gradientUnits="userSpaceOnUse" gradientTransform="translate(24.7427 10.0319) rotate(-90) scale(2.52475 3.67841)">
<stop stop-color="#16B798"/>
<stop offset="1" stop-color="#3E837A"/>
</radialGradient>
<radialGradient id="paint30_radial_1_390" cx="0" cy="0" r="1" gradientUnits="userSpaceOnUse" gradientTransform="translate(21.4205 8.30248) rotate(-90) scale(0.716622 0.517809)">
<stop stop-color="#16B798"/>
<stop offset="1" stop-color="#3E837A"/>
</radialGradient>
<radialGradient id="paint31_radial_1_390" cx="0" cy="0" r="1" gradientUnits="userSpaceOnUse" gradientTransform="translate(20.1881 8.22173) rotate(-90) scale(0.557144 0.437073)">
<stop stop-color="#16B798"/>
<stop offset="1" stop-color="#3E837A"/>
</radialGradient>
<radialGradient id="paint32_radial_1_390" cx="0" cy="0" r="1" gradientUnits="userSpaceOnUse" gradientTransform="translate(19.0159 8.46201) rotate(-90) scale(0.677269 0.577858)">
<stop stop-color="#16B798"/>
<stop offset="1" stop-color="#3E837A"/>
</radialGradient>
<radialGradient id="paint33_radial_1_390" cx="0" cy="0" r="1" gradientUnits="userSpaceOnUse" gradientTransform="translate(17.0276 9.1786) rotate(-90) scale(1.35247 1.72936)">
<stop stop-color="#16B798"/>
<stop offset="1" stop-color="#3E837A"/>
</radialGradient>
<radialGradient id="paint34_radial_1_390" cx="0" cy="0" r="1" gradientUnits="userSpaceOnUse" gradientTransform="translate(17.9409 8.02499) rotate(-90) scale(0.19883 0.219619)">
<stop stop-color="#16B798"/>
<stop offset="1" stop-color="#3E837A"/>
</radialGradient>
<radialGradient id="paint35_radial_1_390" cx="0" cy="0" r="1" gradientUnits="userSpaceOnUse" gradientTransform="translate(23.1705 9.53483) rotate(-90) scale(0.0807754 0.118055)">
<stop stop-color="#16B798"/>
<stop offset="1" stop-color="#3E837A"/>
</radialGradient>
<radialGradient id="paint36_radial_1_390" cx="0" cy="0" r="1" gradientUnits="userSpaceOnUse" gradientTransform="translate(19.6123 10.3696) rotate(-90) scale(0.397661 0.416312)">
<stop stop-color="#16B798"/>
<stop offset="1" stop-color="#3E837A"/>
</radialGradient>
<radialGradient id="paint37_radial_1_390" cx="0" cy="0" r="1" gradientUnits="userSpaceOnUse" gradientTransform="translate(24.84 10.1314) rotate(-90) scale(0.03935 0.159441)">
<stop stop-color="#16B798"/>
<stop offset="1" stop-color="#3E837A"/>
</radialGradient>
<radialGradient id="paint38_radial_1_390" cx="0" cy="0" r="1" gradientUnits="userSpaceOnUse" gradientTransform="translate(24.4423 10.4317) rotate(-90) scale(0.298249 0.238213)">
<stop stop-color="#16B798"/>
<stop offset="1" stop-color="#3E837A"/>
</radialGradient>
<radialGradient id="paint39_radial_1_390" cx="0" cy="0" r="1" gradientUnits="userSpaceOnUse" gradientTransform="translate(4.00403 11.6246) rotate(-90) scale(0.0994165 0.159443)">
<stop stop-color="#16B798"/>
<stop offset="1" stop-color="#3E837A"/>
</radialGradient>
<radialGradient id="paint40_radial_1_390" cx="0" cy="0" r="1" gradientUnits="userSpaceOnUse" gradientTransform="translate(3.48832 11.8421) rotate(-90) scale(0.238183 0.397653)">
<stop stop-color="#16B798"/>
<stop offset="1" stop-color="#3E837A"/>
</radialGradient>
<radialGradient id="paint41_radial_1_390" cx="0" cy="0" r="1" gradientUnits="userSpaceOnUse" gradientTransform="translate(23.0318 11.8421) rotate(-90) scale(0.0807754 0.178166)">
<stop stop-color="#16B798"/>
<stop offset="1" stop-color="#3E837A"/>
</radialGradient>
<radialGradient id="paint42_radial_1_390" cx="0" cy="0" r="1" gradientUnits="userSpaceOnUse" gradientTransform="translate(23.4087 12.7182) rotate(-90) scale(0.795329 0.915465)">
<stop stop-color="#16B798"/>
<stop offset="1" stop-color="#3E837A"/>
</radialGradient>
<radialGradient id="paint43_radial_1_390" cx="0" cy="0" r="1" gradientUnits="userSpaceOnUse" gradientTransform="translate(28.6778 12.6561) rotate(-90) scale(0.099414 0.0994639)">
<stop stop-color="#16B798"/>
<stop offset="1" stop-color="#3E837A"/>
</radialGradient>
<radialGradient id="paint44_radial_1_390" cx="0" cy="0" r="1" gradientUnits="userSpaceOnUse" gradientTransform="translate(24.9208 12.975) rotate(-90) scale(0.099414 0.120158)">
<stop stop-color="#16B798"/>
<stop offset="1" stop-color="#3E837A"/>
</radialGradient>
<radialGradient id="paint45_radial_1_390" cx="0" cy="0" r="1" gradientUnits="userSpaceOnUse" gradientTransform="translate(23.7878 13.7103) rotate(-90) scale(0.279606 0.258904)">
<stop stop-color="#16B798"/>
<stop offset="1" stop-color="#3E837A"/>
</radialGradient>
<radialGradient id="paint46_radial_1_390" cx="0" cy="0" r="1" gradientUnits="userSpaceOnUse" gradientTransform="translate(24.8006 13.7704) rotate(-90) scale(0.219544 0.078705)">
<stop stop-color="#16B798"/>
<stop offset="1" stop-color="#3E837A"/>
</radialGradient>
<radialGradient id="paint47_radial_1_390" cx="0" cy="0" r="1" gradientUnits="userSpaceOnUse" gradientTransform="translate(15.7952 14.0293) rotate(-90) scale(0.0807754 0.178102)">
<stop stop-color="#16B798"/>
<stop offset="1" stop-color="#3E837A"/>
</radialGradient>
<radialGradient id="paint48_radial_1_390" cx="0" cy="0" r="1" gradientUnits="userSpaceOnUse" gradientTransform="translate(7.88124 14.5264) rotate(-90) scale(0.258894 0.217518)">
<stop stop-color="#16B798"/>
<stop offset="1" stop-color="#3E837A"/>
</radialGradient>
<radialGradient id="paint49_radial_1_390" cx="0" cy="0" r="1" gradientUnits="userSpaceOnUse" gradientTransform="translate(8.11939 14.7438) rotate(-90) scale(0.397663 0.219554)">
<stop stop-color="#16B798"/>
<stop offset="1" stop-color="#3E837A"/>
</radialGradient>
<radialGradient id="paint50_radial_1_390" cx="0" cy="0" r="1" gradientUnits="userSpaceOnUse" gradientTransform="translate(7.86061 15.4998) rotate(-90) scale(0.279606 0.118055)">
<stop stop-color="#16B798"/>
<stop offset="1" stop-color="#3E837A"/>
</radialGradient>
<radialGradient id="paint51_radial_1_390" cx="0" cy="0" r="1" gradientUnits="userSpaceOnUse" gradientTransform="translate(8.13811 15.4398) rotate(-90) scale(0.219542 0.159443)">
<stop stop-color="#16B798"/>
<stop offset="1" stop-color="#3E837A"/>
</radialGradient>
<radialGradient id="paint52_radial_1_390" cx="0" cy="0" r="1" gradientUnits="userSpaceOnUse" gradientTransform="translate(7.9786 16.1957) rotate(-90) scale(0.577855 0.198859)">
<stop stop-color="#16B798"/>
<stop offset="1" stop-color="#3E837A"/>
</radialGradient>
<radialGradient id="paint53_radial_1_390" cx="0" cy="0" r="1" gradientUnits="userSpaceOnUse" gradientTransform="translate(35.5997 17.8878) rotate(-90) scale(1.39182 1.29243)">
<stop stop-color="#16B798"/>
<stop offset="1" stop-color="#3E837A"/>
</radialGradient>
<radialGradient id="paint54_radial_1_390" cx="0" cy="0" r="1" gradientUnits="userSpaceOnUse" gradientTransform="translate(25.9543 17.1319) rotate(-90) scale(0.238185 0.118055)">
<stop stop-color="#16B798"/>
<stop offset="1" stop-color="#3E837A"/>
</radialGradient>
<radialGradient id="paint55_radial_1_390" cx="0" cy="0" r="1" gradientUnits="userSpaceOnUse" gradientTransform="translate(7.68041 17.6269) rotate(-90) scale(0.695913 0.298257)">
<stop stop-color="#16B798"/>
<stop offset="1" stop-color="#3E837A"/>
</radialGradient>
<radialGradient id="paint56_radial_1_390" cx="0" cy="0" r="1" gradientUnits="userSpaceOnUse" gradientTransform="translate(8.51704 18.2234) rotate(-90) scale(0.298249 0.0580085)">
<stop stop-color="#16B798"/>
<stop offset="1" stop-color="#3E837A"/>
</radialGradient>
<radialGradient id="paint57_radial_1_390" cx="0" cy="0" r="1" gradientUnits="userSpaceOnUse" gradientTransform="translate(32.8741 18.8799) rotate(-90) scale(0.118058 0.517811)">
<stop stop-color="#16B798"/>
<stop offset="1" stop-color="#3E837A"/>
</radialGradient>
<radialGradient id="paint58_radial_1_390" cx="0" cy="0" r="1" gradientUnits="userSpaceOnUse" gradientTransform="translate(25.8548 19.2196) rotate(-90) scale(0.138769 0.258907)">
<stop stop-color="#16B798"/>
<stop offset="1" stop-color="#3E837A"/>
</radialGradient>
<radialGradient id="paint59_radial_1_390" cx="0" cy="0" r="1" gradientUnits="userSpaceOnUse" gradientTransform="translate(8.87337 20.4727) rotate(-90) scale(0.994157 0.695912)">
<stop stop-color="#16B798"/>
<stop offset="1" stop-color="#3E837A"/>
</radialGradient>
<radialGradient id="paint60_radial_1_390" cx="0" cy="0" r="1" gradientUnits="userSpaceOnUse" gradientTransform="translate(33.7086 20.6508) rotate(-90) scale(0.219544 0.437006)">
<stop stop-color="#16B798"/>
<stop offset="1" stop-color="#3E837A"/>
</radialGradient>
<radialGradient id="paint61_radial_1_390" cx="0" cy="0" r="1" gradientUnits="userSpaceOnUse" gradientTransform="translate(31.2833 34.7078) rotate(-90) scale(0.279607 0.157405)">
<stop stop-color="#16B798"/>
<stop offset="1" stop-color="#3E837A"/>
</radialGradient>
<radialGradient id="paint62_radial_1_390" cx="0" cy="0" r="1" gradientUnits="userSpaceOnUse" gradientTransform="translate(31.9213 35.3229) rotate(-90) scale(0.219544 0.198793)">
<stop stop-color="#16B798"/>
<stop offset="1" stop-color="#3E837A"/>
</radialGradient>
<radialGradient id="paint63_radial_1_390" cx="0" cy="0" r="1" gradientUnits="userSpaceOnUse" gradientTransform="translate(31.0846 35.7807) rotate(-90) scale(0.238182 0.19886)">
<stop stop-color="#16B798"/>
<stop offset="1" stop-color="#3E837A"/>
</radialGradient>
<radialGradient id="paint64_radial_1_390" cx="0" cy="0" r="1" gradientUnits="userSpaceOnUse" gradientTransform="translate(31.302 36.0603) rotate(-90) scale(0.0787038 0.060044)">
<stop stop-color="#16B798"/>
<stop offset="1" stop-color="#3E837A"/>
</radialGradient>
<radialGradient id="paint65_radial_1_390" cx="0" cy="0" r="1" gradientUnits="userSpaceOnUse" gradientTransform="translate(31.3621 36.1783) rotate(-90) scale(0.0807754 0.0786377)">
<stop stop-color="#16B798"/>
<stop offset="1" stop-color="#3E837A"/>
</radialGradient>
<radialGradient id="paint66_radial_1_390" cx="0" cy="0" r="1" gradientUnits="userSpaceOnUse" gradientTransform="translate(33.9075 37.0151) rotate(-90) scale(0.159478 0.159443)">
<stop stop-color="#16B798"/>
<stop offset="1" stop-color="#3E837A"/>
</radialGradient>
<radialGradient id="paint67_radial_1_390" cx="0" cy="0" r="1" gradientUnits="userSpaceOnUse" gradientTransform="translate(37.7247 37.2532) rotate(-90) scale(0.318958 0.397653)">
<stop stop-color="#16B798"/>
<stop offset="1" stop-color="#3E837A"/>
</radialGradient>
<radialGradient id="paint68_radial_1_390" cx="0" cy="0" r="1" gradientUnits="userSpaceOnUse" gradientTransform="translate(40.3488 37.0938) rotate(-90) scale(0.159479 0.159468)">
<stop stop-color="#16B798"/>
<stop offset="1" stop-color="#3E837A"/>
</radialGradient>
<radialGradient id="paint69_radial_1_390" cx="0" cy="0" r="1" gradientUnits="userSpaceOnUse" gradientTransform="translate(30.5875 37.769) rotate(-90) scale(0.714553 3.0032)">
<stop stop-color="#16B798"/>
<stop offset="1" stop-color="#3E837A"/>
</radialGradient>
<radialGradient id="paint70_radial_1_390" cx="0" cy="0" r="1" gradientUnits="userSpaceOnUse" gradientTransform="translate(35.1813 38.0465) rotate(-90) scale(0.834679 1.59062)">
<stop stop-color="#16B798"/>
<stop offset="1" stop-color="#3E837A"/>
</radialGradient>
<radialGradient id="paint71_radial_1_390" cx="0" cy="0" r="1" gradientUnits="userSpaceOnUse" gradientTransform="translate(28.798 38.1873) rotate(-90) scale(0.138768 0.140785)">
<stop stop-color="#16B798"/>
<stop offset="1" stop-color="#3E837A"/>
</radialGradient>
<radialGradient id="paint72_radial_1_390" cx="0" cy="0" r="1" gradientUnits="userSpaceOnUse" gradientTransform="translate(32.0994 39.3804) rotate(-90) scale(0.217473 0.617208)">
<stop stop-color="#16B798"/>
<stop offset="1" stop-color="#3E837A"/>
</radialGradient>
<radialGradient id="paint73_radial_1_390" cx="0" cy="0" r="1" gradientUnits="userSpaceOnUse" gradientTransform="translate(40.9081 40.0555) rotate(-90) scale(0.337601 0.238166)">
<stop stop-color="#16B798"/>
<stop offset="1" stop-color="#3E837A"/>
</radialGradient>
</defs>
</svg>
