<svg width="46" height="46" viewBox="0 0 46 46" fill="none" xmlns="http://www.w3.org/2000/svg">
<g clip-path="url(#clip0_1_500)">
<path d="M35.2216 9.44336C35.2216 9.09028 35.2813 8.74402 34.9323 8.677L33.385 8.37943C32.9976 8.30486 31.8415 9.24265 31.4625 9.00582L30.5668 8.4461C30.1316 8.17405 27.9955 9.46816 27.6109 9.05218L26.5664 7.92249C25.9754 7.28334 27.9344 6.99871 27.9344 6.42785C27.9344 4.03693 28.0666 5.14039 27.0811 3.8673C25.7219 2.11175 25.7922 2.14679 25.6053 2.11517C25.4254 2.0848 21.197 1.37737 21.0189 1.29561C19.8386 0.752597 19.3286 0.38316 18.561 0.756191L16.7925 1.61582C15.7692 2.11337 13.5831 1.23075 12.699 2.29288C10.714 4.67805 10.5122 4.49082 10.6812 4.84983C11.3187 6.2045 11.5494 6.47331 11.1915 6.68803C7.97074 8.62057 8.1127 8.49354 8.0552 8.67322C7.19988 11.3463 7.15101 11.3035 7.33214 11.5073L7.92007 12.1687C8.34162 12.6431 7.0051 13.5264 7.31686 14.0164C8.78311 16.3204 8.7664 16.244 8.77718 16.3903C8.89829 18.026 8.85786 18.0669 9.03755 18.1976L10.3017 19.1172C10.6641 19.3808 14.2219 20.2163 14.2219 20.9241V25.571C14.2219 25.8619 13.5335 26.681 13.588 26.9891C13.8782 28.6333 14.0088 29.5914 14.0081 29.587C14.021 29.6731 13.8834 30.5656 13.8941 30.4907C13.828 30.953 14.7653 31.1692 14.7653 31.6042C14.7653 34.0323 14.8021 34.0045 14.7054 34.1497C13.9906 35.2217 14.0893 34.3335 14.6154 38.6307C14.9953 42.126 14.9196 42.0466 15.1785 42.1607C18.0593 43.4314 18.014 43.3603 18.1053 43.54C18.8271 44.962 18.909 45.3746 19.4778 45.3746C21.5625 45.3746 22.549 45.5857 22.549 44.6558V43.4343C22.549 42.7204 21.1347 42.0935 21.1347 41.625C21.1347 36.3812 21.0861 36.5941 21.211 36.4355L22.4634 34.8429C22.7186 34.5184 23.8253 34.7592 23.9744 34.3037L24.4892 32.7318C24.6968 32.0982 26.6976 32.8829 26.8458 32.1532L27.182 30.4972C27.2185 30.3175 26.5806 28.9328 26.6448 29.0827C26.5404 28.839 26.7289 28.5706 26.9935 28.586L28.1588 28.6545C28.5096 28.6751 29.256 27.5424 29.5925 27.295L31.1731 26.1336C31.7191 25.7324 30.4092 24.5421 30.8701 24.1109L32.0469 23.0096C32.2735 22.7976 34.7611 22.9934 35.0238 22.8874C36.1887 22.4182 36.2978 22.4265 36.3447 22.1782C37.4454 16.3396 37.3843 16.3719 37.3843 16.3719C37.4019 16.2548 36.9793 14.6787 37.0057 14.7822C36.833 14.1091 38.7438 13.9911 38.7438 13.3819C38.7438 10.9637 38.8301 10.8185 38.4923 10.7143C35.3129 9.73482 35.2216 9.80346 35.2216 9.44336Z" fill="url(#paint0_radial_1_500)"/>
<path d="M21.1086 45.7542C20.9072 45.7542 20.6871 45.7501 20.4461 45.7454C20.155 45.7399 19.8323 45.7338 19.4774 45.7338C18.7838 45.7338 18.5718 45.3009 18.1075 44.3527C18.0158 44.1654 17.9109 43.9514 17.7871 43.7072C17.6909 43.6492 17.3569 43.504 16.785 43.2555C16.3735 43.0767 15.8094 42.8316 15.0332 42.4893C14.6393 42.3163 14.6355 42.2816 14.4474 40.4624C14.4001 40.0046 14.3396 39.4194 14.258 38.6693C14.152 37.8045 14.0649 37.1607 13.9948 36.6435C13.7648 34.9441 13.7509 34.8424 14.1768 34.2717C14.24 34.187 14.3153 34.0861 14.4041 33.9533C14.4151 33.8654 14.4134 33.572 14.4106 33.1059C14.4086 32.7544 14.4059 32.2721 14.4059 31.604C14.3852 31.5623 14.219 31.4403 14.1197 31.3676C13.8472 31.1677 13.4746 30.8943 13.5382 30.4418C13.5384 30.4413 13.5384 30.4406 13.5385 30.4398C13.5394 30.4339 13.5403 30.428 13.5416 30.422C13.5619 30.2939 13.6422 29.7443 13.6492 29.6147C13.6295 29.4724 13.4985 28.5497 13.2342 27.0516C13.1817 26.7541 13.3824 26.4157 13.6149 26.0238C13.7057 25.8711 13.8413 25.6424 13.8627 25.5574V20.9565C13.6483 20.6289 11.9781 20.0859 11.2587 19.8521C10.5771 19.6305 10.2429 19.519 10.0903 19.4081L8.82624 18.4883C8.54701 18.2852 8.53766 18.1438 8.47567 17.2247C8.46148 17.0121 8.44369 16.7489 8.41943 16.4213C8.38062 16.3442 8.22393 16.1 7.9314 15.6442C7.71991 15.3148 7.42522 14.8557 7.01391 14.2094C6.73342 13.7688 7.0707 13.2948 7.34184 12.914C7.44498 12.7688 7.63384 12.5038 7.64372 12.3985L7.06369 11.746C6.7823 11.4296 6.81087 11.3417 7.28902 9.87514C7.4006 9.53265 7.5404 9.10374 7.71308 8.56396C7.79178 8.29964 7.79178 8.29964 9.2999 7.40048C9.7227 7.14856 10.274 6.81991 10.9944 6.38776C10.9611 6.25443 10.8138 5.9513 10.6589 5.63271C10.5717 5.45339 10.4704 5.24549 10.3563 5.00309C10.1547 4.57489 10.3326 4.38784 10.7622 3.93592C11.0695 3.61285 11.5837 3.07181 12.4232 2.06358C13.0568 1.30242 14.1533 1.35525 15.1211 1.40179C15.6989 1.42964 16.2957 1.45839 16.636 1.29308L18.4047 0.433456C19.2167 0.0385026 19.8068 0.320971 20.7 0.748089C20.8396 0.814932 20.9896 0.886628 21.1528 0.961737C21.3384 1.01313 22.5953 1.24528 25.5961 1.74949L25.6658 1.76117C25.9523 1.80914 25.9659 1.82693 26.6832 2.76149C26.8582 2.98933 27.0805 3.27881 27.3659 3.64771C27.6327 3.99235 27.8034 4.14203 27.9277 4.25128C28.3074 4.5846 28.3063 4.71056 28.2983 5.69021C28.2966 5.88985 28.2945 6.13206 28.2945 6.42801C28.2945 6.89556 27.8169 7.14424 27.3549 7.38467C27.195 7.46786 26.9425 7.59921 26.8422 7.69085L27.8463 8.77689C28.0515 8.80114 28.6815 8.56503 29.0644 8.42164C29.9194 8.10108 30.42 7.9302 30.7576 8.14133L31.6284 8.68524C31.772 8.68309 32.1702 8.4786 32.3876 8.36702C32.8192 8.1451 33.1606 7.97027 33.4535 8.02651L35.0008 8.32407C35.6027 8.43979 35.5902 9.00922 35.5835 9.31523C35.5826 9.35207 35.5817 9.38926 35.5815 9.42663C35.7465 9.51001 36.2485 9.66059 36.9698 9.87711C37.394 10.0045 37.9275 10.1646 38.5983 10.3713C39.1244 10.5332 39.1217 10.8181 39.1099 12.1874C39.107 12.5065 39.1036 12.8987 39.1036 13.3821C39.1036 13.9116 38.5261 14.1508 38.0167 14.3619C37.8104 14.4475 37.433 14.6038 37.3576 14.7078C37.3588 14.7138 37.3599 14.7197 37.3608 14.7258C37.4023 14.8589 37.4571 15.0757 37.5502 15.4449C37.6663 15.9049 37.7159 16.1304 37.7349 16.254C37.7387 16.2709 37.741 16.2896 37.7423 16.3108C37.7482 16.3685 37.7446 16.3951 37.7403 16.4235C37.7293 16.5732 37.6896 16.8068 37.6233 17.1965C37.458 18.1674 37.1468 19.8658 36.6985 22.245C36.6232 22.6434 36.4077 22.728 35.6933 23.0087C35.5461 23.0667 35.3697 23.1359 35.1585 23.2209C34.9954 23.2868 34.7059 23.2877 33.8547 23.2734C33.3376 23.2647 32.4862 23.2505 32.2548 23.3077L31.1291 24.3612C31.1238 24.4719 31.2766 24.7759 31.3603 24.9423C31.5926 25.4046 31.9107 26.0378 31.3865 26.4231L29.806 27.5844C29.7153 27.6509 29.53 27.8692 29.3665 28.0617C28.8513 28.6681 28.509 29.0341 28.1383 29.0129L26.9804 28.9448C27.0365 29.0543 27.1168 29.2422 27.2584 29.5831C27.5554 30.2979 27.5605 30.4422 27.5348 30.5681L27.1986 32.2243C27.0607 32.9035 26.261 32.8653 25.6179 32.8343C25.3634 32.8221 24.9438 32.802 24.8242 32.8653L24.3166 34.4151C24.1626 34.8853 23.63 34.9432 23.2021 34.9897C23.0543 35.0057 22.809 35.0325 22.7385 35.0747L21.4992 36.6506C21.4824 36.7966 21.4843 37.3129 21.4881 38.3527C21.491 39.092 21.4947 40.1333 21.4947 41.6067C21.5388 41.7059 21.7941 41.9235 21.9646 42.0688C22.4074 42.446 22.9091 42.8737 22.9091 43.4339V44.6553C22.9091 44.9694 22.8163 45.2193 22.6336 45.3986C22.3281 45.698 21.845 45.7542 21.1086 45.7542ZM15.3369 41.8376C16.1099 42.1785 16.6651 42.4198 17.0714 42.5964C18.3004 43.1303 18.3004 43.1303 18.4244 43.3748C18.5522 43.6267 18.6595 43.8456 18.7529 44.0366C19.2055 44.9606 19.2598 45.015 19.4774 45.015C19.8371 45.015 20.1643 45.0213 20.4599 45.0269C21.263 45.0423 21.9565 45.0554 22.1294 44.886C22.1441 44.8714 22.1894 44.827 22.1894 44.6556V43.4343C22.1894 43.2059 21.7894 42.865 21.4976 42.6164C21.1099 42.2859 20.7751 42.0006 20.7751 41.625C20.7751 40.1433 20.7713 39.0975 20.7685 38.356C20.7613 36.4198 20.7613 36.4198 20.9212 36.2222L22.1808 34.6208C22.3892 34.3556 22.7626 34.315 23.1236 34.2758C23.2778 34.2591 23.5597 34.2284 23.6382 34.175L24.1477 32.62C24.3331 32.0536 25.0341 32.0876 25.6516 32.117C25.9149 32.1296 26.4047 32.1532 26.5025 32.0683L26.8203 30.4727C26.7722 30.2573 26.4401 29.4878 26.3343 29.2643C26.328 29.2532 26.3221 29.2419 26.3165 29.2298C26.3158 29.228 26.3149 29.226 26.314 29.2242C26.2155 28.9944 26.2428 28.7351 26.3864 28.5305C26.5301 28.326 26.765 28.2128 27.0144 28.2273L28.1423 28.2936C28.2911 28.2166 28.6316 27.8159 28.8177 27.5966C29.0343 27.3418 29.2211 27.1217 29.3796 27.0055L30.9499 25.8515C30.9555 25.7394 30.8015 25.4332 30.7172 25.2654C30.4883 24.8097 30.2033 24.2428 30.6241 23.8487L31.8009 22.7474C32.0093 22.5523 32.4275 22.5309 33.8659 22.555C34.2508 22.5616 34.7749 22.5702 34.9059 22.5476C35.1118 22.4648 35.2843 22.397 35.4293 22.3399C35.696 22.2351 35.9129 22.1498 35.9927 22.1031C36.9082 17.2466 37.0129 16.4902 37.0242 16.3748C37.0242 16.3728 37.0242 16.3708 37.0242 16.3689C37 16.1768 36.7229 15.1096 36.6623 14.8911C36.6604 14.8848 36.6586 14.8784 36.657 14.8721C36.6568 14.8713 36.6566 14.8703 36.6564 14.8694C36.4907 14.2158 37.2131 13.9167 37.7405 13.698C37.9414 13.6148 38.3101 13.4621 38.3838 13.3625C38.3839 12.8856 38.3873 12.4977 38.39 12.1811C38.3949 11.6246 38.3987 11.2061 38.3714 11.0537C37.7094 10.8498 37.1824 10.6915 36.7624 10.5655C35.0419 10.0491 34.8621 9.99517 34.8621 9.44353C34.8621 9.39519 34.8631 9.34703 34.8642 9.2996C34.866 9.21371 34.8687 9.09044 34.857 9.02971L33.3309 8.7352C33.2228 8.74562 32.9182 8.90213 32.7153 9.00635C32.1709 9.2863 31.6561 9.5508 31.2719 9.31056L30.4019 8.76682C30.2243 8.75478 29.6587 8.96628 29.3162 9.09457C28.4217 9.42987 27.715 9.69419 27.347 9.29618L26.3025 8.16649C26.0946 7.9417 26.0802 7.72625 26.1046 7.5852C26.1738 7.18863 26.6049 6.9642 27.0219 6.74696C27.205 6.65172 27.506 6.49503 27.5747 6.40124C27.5748 6.115 27.5768 5.87924 27.5784 5.68392C27.582 5.27262 27.5847 4.94774 27.5549 4.88773C27.5459 4.87299 27.4942 4.82771 27.4526 4.79106C27.3145 4.66977 27.1057 4.48667 26.7968 4.08722C26.5104 3.7176 26.2876 3.42723 26.1122 3.19885C25.8085 2.80317 25.6132 2.54856 25.5356 2.46806L25.4761 2.45799C21.0799 1.7193 20.9372 1.65371 20.8685 1.62227C20.6953 1.54267 20.5365 1.46666 20.3891 1.39622C19.4999 0.971081 19.1958 0.847456 18.7179 1.07961L16.9492 1.93924C16.4437 2.18505 15.7841 2.15307 15.0857 2.11928C14.2471 2.07903 13.3793 2.03717 12.9749 2.52304C12.1203 3.5496 11.5958 4.10124 11.2824 4.43096C11.1748 4.54399 11.0718 4.65234 11.0163 4.71882C11.1248 4.94882 11.2211 5.14684 11.3045 5.31808C11.7224 6.17699 11.9526 6.6501 11.3762 6.99618C10.6488 7.43264 10.0929 7.76399 9.66736 8.01771C8.92094 8.46279 8.51197 8.70645 8.39302 8.79539C8.22159 9.33086 8.08252 9.75708 7.97147 10.0979C7.7668 10.7258 7.63491 11.1304 7.60976 11.2796L8.18817 11.9302C8.59642 12.3895 8.20919 12.9336 7.92655 13.3309C7.82502 13.4736 7.63887 13.735 7.62844 13.8378C8.03436 14.4755 8.32599 14.9297 8.53551 15.2562C9.12075 16.1681 9.12075 16.1682 9.13495 16.3606C9.15974 16.6957 9.17753 16.962 9.19209 17.1767C9.2167 17.542 9.23503 17.8155 9.25587 17.9127L10.5124 18.827C10.6041 18.8838 11.0898 19.0417 11.4802 19.1686C13.6243 19.8656 14.5807 20.2846 14.5807 20.9245V25.5712C14.5807 25.7924 14.4485 26.0269 14.2325 26.3908C14.1317 26.5602 13.9657 26.8403 13.945 26.948C14.2282 28.5533 14.3461 29.2233 14.3572 29.5346L14.3628 29.5338C14.3712 29.5894 14.3784 29.6372 14.3112 30.1216C14.2855 30.3052 14.2683 30.4312 14.2517 30.5203C14.2512 30.5275 14.2503 30.5347 14.2492 30.5419C14.2695 30.5868 14.4413 30.713 14.5443 30.7882C14.8026 30.9778 15.1241 31.2137 15.1241 31.6044C15.1241 32.2707 15.127 32.7517 15.1288 33.1019C15.1347 34.1128 15.1349 34.1524 15.0037 34.3491C14.9056 34.4963 14.8221 34.6082 14.7525 34.7017C14.5022 35.037 14.5022 35.037 14.7067 36.5472C14.7734 37.039 14.8646 37.7127 14.9717 38.5869C15.054 39.3433 15.1146 39.93 15.1622 40.3888C15.2431 41.1683 15.295 41.6705 15.3369 41.8376ZM26.8297 30.4256C26.8295 30.4264 26.8293 30.4273 26.8291 30.428L26.8297 30.4256ZM13.6509 29.6262C13.6514 29.6318 13.6523 29.6366 13.6528 29.6404C13.6525 29.6381 13.6521 29.6357 13.6517 29.6332C13.6516 29.6323 13.6512 29.63 13.6509 29.6262ZM34.8921 22.5532C34.8912 22.5535 34.8903 22.5539 34.8894 22.5542C34.8903 22.5541 34.8912 22.5537 34.8921 22.5532ZM37.0286 16.3189C37.0284 16.3191 37.0284 16.3193 37.0284 16.3196C37.0284 16.3194 37.0284 16.3193 37.0286 16.3189ZM21.1659 0.967667C21.1666 0.967846 21.1675 0.968206 21.1683 0.968565C21.1675 0.968385 21.1668 0.968026 21.1659 0.967667Z" fill="white"/>
</g>
<defs>
<radialGradient id="paint0_radial_1_500" cx="0" cy="0" r="1" gradientUnits="userSpaceOnUse" gradientTransform="translate(21.4996 20.0001) rotate(42.5805) scale(25.1247 17.6736)">
<stop stop-color="#22CCC4"/>
<stop offset="1" stop-color="#3A887D"/>
</radialGradient>
<clipPath id="clip0_1_500">
<rect width="46" height="46" fill="white"/>
</clipPath>
</defs>
</svg>
